<mxfile host="Electron" modified="2024-07-25T03:02:23.564Z" agent="Mozilla/5.0 (Macintosh; Intel Mac OS X 10_15_7) AppleWebKit/537.36 (KHTML, like Gecko) draw.io/24.6.4 Chrome/124.0.6367.207 Electron/30.0.6 Safari/537.36" etag="k4xOC_UbGjsq-4HT015o" version="24.6.4" type="device">
  <diagram name="PÃ¡gina-1" id="6IEeUgkFpzx8JXdW7iRc">
    <mxGraphModel dx="1221" dy="854" grid="1" gridSize="10" guides="1" tooltips="1" connect="1" arrows="1" fold="1" page="1" pageScale="1" pageWidth="1169" pageHeight="827" math="0" shadow="0">
      <root>
        <mxCell id="0" />
        <mxCell id="1" parent="0" />
        <mxCell id="CZolbAfWvqU23V3ubjtU-22" style="edgeStyle=orthogonalEdgeStyle;rounded=0;sketch=1;hachureGap=4;jiggle=2;curveFitting=1;orthogonalLoop=1;jettySize=auto;html=1;entryX=0;entryY=0.5;entryDx=0;entryDy=0;fontFamily=Architects Daughter;fontSource=https%3A%2F%2Ffonts.googleapis.com%2Fcss%3Ffamily%3DArchitects%2BDaughter;" edge="1" parent="1" source="CZolbAfWvqU23V3ubjtU-2" target="CZolbAfWvqU23V3ubjtU-7">
          <mxGeometry relative="1" as="geometry" />
        </mxCell>
        <mxCell id="CZolbAfWvqU23V3ubjtU-2" value="User" style="shape=umlActor;verticalLabelPosition=bottom;verticalAlign=top;html=1;outlineConnect=0;sketch=1;hachureGap=4;jiggle=2;curveFitting=1;fontFamily=Architects Daughter;fontSource=https%3A%2F%2Ffonts.googleapis.com%2Fcss%3Ffamily%3DArchitects%2BDaughter;" vertex="1" parent="1">
          <mxGeometry x="130" y="400" width="30" height="60" as="geometry" />
        </mxCell>
        <mxCell id="CZolbAfWvqU23V3ubjtU-3" value="Information&amp;nbsp;&lt;div&gt;scientist&lt;/div&gt;" style="shape=umlActor;verticalLabelPosition=bottom;verticalAlign=top;html=1;outlineConnect=0;sketch=1;hachureGap=4;jiggle=2;curveFitting=1;fontFamily=Architects Daughter;fontSource=https%3A%2F%2Ffonts.googleapis.com%2Fcss%3Ffamily%3DArchitects%2BDaughter;" vertex="1" parent="1">
          <mxGeometry x="130" y="190" width="30" height="60" as="geometry" />
        </mxCell>
        <mxCell id="CZolbAfWvqU23V3ubjtU-10" style="edgeStyle=orthogonalEdgeStyle;rounded=0;sketch=1;hachureGap=4;jiggle=2;curveFitting=1;orthogonalLoop=1;jettySize=auto;html=1;entryX=0;entryY=0.5;entryDx=0;entryDy=0;fontFamily=Architects Daughter;fontSource=https%3A%2F%2Ffonts.googleapis.com%2Fcss%3Ffamily%3DArchitects%2BDaughter;" edge="1" parent="1" source="CZolbAfWvqU23V3ubjtU-5" target="CZolbAfWvqU23V3ubjtU-9">
          <mxGeometry relative="1" as="geometry" />
        </mxCell>
        <mxCell id="CZolbAfWvqU23V3ubjtU-5" value="OWL" style="shape=cylinder3;whiteSpace=wrap;html=1;boundedLbl=1;backgroundOutline=1;size=15;sketch=1;hachureGap=4;jiggle=2;curveFitting=1;fontFamily=Architects Daughter;fontSource=https%3A%2F%2Ffonts.googleapis.com%2Fcss%3Ffamily%3DArchitects%2BDaughter;" vertex="1" parent="1">
          <mxGeometry x="230" y="180" width="60" height="80" as="geometry" />
        </mxCell>
        <mxCell id="CZolbAfWvqU23V3ubjtU-6" style="edgeStyle=orthogonalEdgeStyle;rounded=0;sketch=1;hachureGap=4;jiggle=2;curveFitting=1;orthogonalLoop=1;jettySize=auto;html=1;entryX=0;entryY=0.5;entryDx=0;entryDy=0;entryPerimeter=0;fontFamily=Architects Daughter;fontSource=https%3A%2F%2Ffonts.googleapis.com%2Fcss%3Ffamily%3DArchitects%2BDaughter;" edge="1" parent="1" source="CZolbAfWvqU23V3ubjtU-3" target="CZolbAfWvqU23V3ubjtU-5">
          <mxGeometry relative="1" as="geometry" />
        </mxCell>
        <mxCell id="CZolbAfWvqU23V3ubjtU-7" value="user interface" style="swimlane;whiteSpace=wrap;html=1;sketch=1;hachureGap=4;jiggle=2;curveFitting=1;fontFamily=Architects Daughter;fontSource=https%3A%2F%2Ffonts.googleapis.com%2Fcss%3Ffamily%3DArchitects%2BDaughter;" vertex="1" parent="1">
          <mxGeometry x="490" y="380" width="121.79999999999995" height="100" as="geometry" />
        </mxCell>
        <mxCell id="CZolbAfWvqU23V3ubjtU-26" value="Option 1" style="strokeWidth=1;html=1;shadow=0;dashed=0;shape=mxgraph.ios.iComboBox;spacingTop=2;spacingLeft=2;align=left;strokeColor=#444444;fontColor=#666666;buttonText=;fontSize=8;fillColor=#dddddd;fillColor2=#3D5565;sketch=0;whiteSpace=wrap;hachureGap=4;jiggle=2;curveFitting=1;fontFamily=Architects Daughter;fontSource=https%3A%2F%2Ffonts.googleapis.com%2Fcss%3Ffamily%3DArchitects%2BDaughter;labelBackgroundColor=none;labelBorderColor=none;textShadow=0;" vertex="1" parent="CZolbAfWvqU23V3ubjtU-7">
          <mxGeometry x="10" y="34" width="100" height="15" as="geometry" />
        </mxCell>
        <mxCell id="CZolbAfWvqU23V3ubjtU-25" value="Option 2" style="strokeWidth=1;html=1;shadow=0;dashed=0;shape=mxgraph.ios.iComboBox;spacingTop=2;spacingLeft=2;align=left;strokeColor=#444444;fontColor=#666666;buttonText=;fontSize=8;fillColor=#dddddd;fillColor2=#3D5565;sketch=0;whiteSpace=wrap;hachureGap=4;jiggle=2;curveFitting=1;fontFamily=Architects Daughter;fontSource=https%3A%2F%2Ffonts.googleapis.com%2Fcss%3Ffamily%3DArchitects%2BDaughter;" vertex="1" parent="CZolbAfWvqU23V3ubjtU-7">
          <mxGeometry x="10" y="65" width="100" height="15" as="geometry" />
        </mxCell>
        <mxCell id="CZolbAfWvqU23V3ubjtU-15" style="edgeStyle=orthogonalEdgeStyle;rounded=0;sketch=1;hachureGap=4;jiggle=2;curveFitting=1;orthogonalLoop=1;jettySize=auto;html=1;entryX=0;entryY=0.5;entryDx=0;entryDy=0;fontFamily=Architects Daughter;fontSource=https%3A%2F%2Ffonts.googleapis.com%2Fcss%3Ffamily%3DArchitects%2BDaughter;endArrow=classic;endFill=1;startArrow=classic;startFill=1;" edge="1" parent="1" source="CZolbAfWvqU23V3ubjtU-9" target="CZolbAfWvqU23V3ubjtU-13">
          <mxGeometry relative="1" as="geometry" />
        </mxCell>
        <mxCell id="CZolbAfWvqU23V3ubjtU-9" value="" style="shape=image;verticalLabelPosition=bottom;labelBackgroundColor=default;verticalAlign=top;aspect=fixed;imageAspect=0;image=data:image/png,iVBORw0KGgoAAAANSUhEUgAAANEAAADyCAMAAADk3NBFAAAA81BMVEX///8MR5wUJ1sAAAAOI1nT1t4AAk4ADVIuO2cARJsAOZcRJVoAQpoANpYAP5mioqL29vYfHx/v7+8qKioAAEoAAE6urq4APJhLS0sAM5VERERycnLm5uYAHVYAMZQAGVQAFVPU1NQAEVG6urqUlJSgpbbZ4O2xtcMACU/r7/aWm67Ex9LMz9iMkqfj6PKer9BSXH4dL2FATHNWYIFGUXd+hZ1qco6xvtnAy+CHh4fFxcViYmIoN2aorLxudpG6vsoyXaaQo8pQcbB+lcJkgLfL1OYRERFffLUdUKA6YqiCmMSXpsomVqN/f384YqlHbK42Njb1GCaiAAASgklEQVR4nO1daVvaShQGRDQhidSKaRQBsSKxCtrFoLaWVVBp6f//NXeyz5ksTMIkoffp++FeSUMyb2bOPuHkcv/wDxYuzrMeAVtsf652vl9lPQp22H86OCkUigdfalmPhBHOm42CgZOD66zHwgKfbnfKBRvNk4usx7MuujcHxQKGcvXzdtZjWgeVb9WTAoHiwZ2a9bhi40ejWSYJITQ6l1mPLB6udjt+fHS0Cj+zHl10qHdQgFotnF659PVvE6frEi5A5Ub1x89GE2d4Uv1WyXqQEXBx0oKjf9JHf10lWP41jhFyefxXGLkSO7ufsh0pHSpPVShAuBYgtEWx9Bc4RpfVRqimJjT6SWnDxQm5PECADp481pSwuuVmY4Mdo+2bEr7gigEeT/cLEKdy6fOGxhmVJ6CxC61ioBn99H0HitNGOkbnHShAO6GRw3kDnH1S3bg4Az11fISr3dHKN8KnuN0ox6h7AzR2+WCXwsfZ/gqkrlzdHMcIPW4gQNRh3c/bFpzYp/1kR0qJH6TDdk1vYS53oPC1NsAxIr2AiOmRfegYlXe+Z+wYqYRp6exGNi2EF1gsfc3QMarAmKHQaPyIc5mLAoidTg4yc4wuysRInuKO5PqAcIxiPZl1sf25BFbLWkke9a607updF56ge10D6dUwXTYjpQShdZk4MT9OsgvbPZaRjaPpsdRpxRnIe4Hrg10wUPtSIrypFMQJxQxAgJpFpg/y0/dOEtMfgvMWFCD2tuO82sCXQKOTaJwB6gxG4iOBJ0gmy1uNxOKMLlzlySWnUHQP0mMJ1TPIjEejk6Bh/1mA2rSUQJzxowWWN2Nr0Z1O+/3+FDOql0SQX2Vcz/BkDm+YWfSuNl7UFVHkeV5U6oNJz7ryPnSM2IbtKiFAO7esBEgdLkRe4vIInPlfSVYGQ1PfkI+xesNKnMiYgVkGvj0SZU5nwYuyMJ9zsv5/9FlWJm3jhGQSsBfFFnxSrIRUndXN4S/GWtccqdrujXgZTZVUnxnz5FFHO2s/TRRhwoQNM0Xa4yXER5wPgURWcmpvLuic+J5xgEzArmkykHTSpkmjYiaiYcuc5hxoa+PlXJCk/PJ1oktUXhyZ/0Ca9eoaZv3yIEqaNArUhTFBr/bn9mteQRrCUg7cwqAkza2hnxPZpriuF4oZoI/NzmlUObSwBKFtfeyP6qa+IyDkrTuSCdhYGz22v8ZIk9JClxRp4TyggexDx6A0d4cDHaNO1BCm8hQzTUqFEVpywsBdOSofwCgvjZyT1gszyZih+o0hn5yGlAKXx0Vh4bfmTPXQc88iUwElarEmqzuMd5FV9DWmtPFD80BGeRlj7knX0G30qMFCXXmHdczwihjxPfxIO3DVIUZj/EwipUZjHsnsRcw0adgd9DU3B4cGwVOEyENNTaQ9V9YzyAxTAgnbHpoQ3jKshmz3DR8hmFEPft+Tmm6GxBkeZ/drAlnAJRo/b/w1lPj58jfHh80QUopL8gpk+SAwFCBOLOx8TyK+r+i2dab/9aroIUQ4HR1170U8CVjfRw937RQanWSKU23EQ9YXUre+kosJqBYteMpwHvFAAlcArJMqIPaRGIlT9MdEomRknO0BocLKjSZQYeTepAQ3k2o6I/TUVdopyvN9/yuR5WysnkFsrSi3bhPMN2vWHPWCfDlqRsFbDpzt2NaSTHZTtr7q9DEuV6sEe9UFMkJjL3kTsCqZJr1LtgLfRQZWfsvlQm0QZOSnGWx4tu7c5rYP8AWX/KYjfY64ZU6lXnR+2hvH9g2sTOe2Sy6fNAo2bzoVUQ0OIEhwg1WXhAlYjBHjmCEAhpstv+ZodXdeHq6+KJ6AdRmls8FyaM4Nr77QagaFxhPbv3N8codRK5W9HlPLCglLWu1tekyrsV0oE4x2kqViwg2EpNmCcorCNB2O3WIGjKaYmy3MqQjxr6svayILRppCNy0YhAH11TNgNBEjE+Jk+nxP6oymeWp9jRGiFaJc6ozUSZ3aj3PgJl1pkC6jIR99gvL8IFJWOk1GPYm0PZwgSZIQOmucQq3lTKTHqJeHLhwni8Lv2WQ8ni3EQE6cOPCNXEOwPiO13e+9DYfDN20a7Keor3mQ6hH4+vJtaqcEtIHivxqlhRZ4yWQYVbTxnBd52YQoSsueH6u+WWd16fAzDSY4phNe9JKSfkfmsx6j6azOE/UeQa4vemCwqjbheTysE5Tfml86sz8mA4sIZpUJI20uWgPlJJnn0URZ1XteWA77XR393vgF0tFLxYGC0SdMbwSzyoBR2xJnJN/ictzT+lpvOFkovFVv5I2NFqIswaBbUiZhMUEPUCLTwskyGpuGUhIHb8D69UdysC4WxFA+CDP8AUixCMVjpL7wpkRMXDrqVHsbj1+13iiAEqeMVpp+PL8qUcSsrBh188ajVEbOE5+aKg+ZS1leDHwJyXkaw4JNEnVAtD6jriEsgmSbCnWINO8Kb40T6Z741Ak0iNJSkowqxgy5FW6tvjqulge0D9ypW9JG4QwYzXRLKL24B4LLwTbq4+DLERjbdlbPTsZCZEZGAApsn7Zijriw9K7n8raZDc5yr0BkRrqnzHG40Z+Gx6QcH8XX7NoXC80JhyEqIyMVqoAxrshP+Zd9AmF/TYm7VScqI0OIJnAMoXIU1fLb9fJ4LlAuMiPD9RJxy6++hFYXuJfAa/nDtkhpMdJVkaVXp69v/Wl/LIeXS/ioAY6t7NJipGtqUwtN6rKM/IRVeYOIUmQJanqMVJ0Ar9+LNosoR3WgbT3Dp8Ooq9juScieJIDI/qZtkFLSdQYjfe+HRpsXlejdBcgoJXukMxL0zXvUVZ/ojKxVF8XRWIORqu+3+h1lE4IUMdvmylH0LFAcRoY1FcyyMB24RcQBDW1dFzPgi8pI332ADOyQvsId9Vnbm2qEyepzWTDSrQVSyK8R0tdSNKVlS2jkyY3JyFB2i9wwAiNuHomSo3LqMdV3VE/1t77sNI1ajvLY/nMatB2zEDdAisqor/sKXDtSmY6T6Qf35kioFFOQIkd8+mZMYTSLVteiD8uxzbdKSozaRlROWbJ3IC/oXIA25i7GtEjRMye96JVuBK4+oZGmERabcPmUGOUmUdSCC0kcr+TUB08rnpGNk1ONUb43OfErOKnEjmIljrqLlfcex1p4eaPWEiJPqmcLez2GKMWrTfSUVbpOkEVFlGVFJGpmgvKiBUxUn/MG+Pw4clARs9rSHoSuPEFZ9tpqpVJR+9p4WQcFSY6XJz6rqTe3C1K8gr4g1hXjDVJJeYm49GLX+HpS4FsBAla10FHpjzmQ6xdEedwHlUvNvJrA83p90DjUnfZmssxFLpevUYdFT9XHveNkceQzguk4L4JyF19fDrW2QasyNWdcEkfEilS1F8nQ/BHeQ1mrVt6fSIqMPXwOjXPwFlTH649gFQOdrcjzxWLOG1zRuJ1vqv3h7PdckrnleKbvVpPn9OK07n6Gdm8yFy3Iy9cgqbcGOpTJoiZnvwOCeRXakudlwTjOCZyx/46rU0sTkz0narfdbnepPGxy54kNZ69M91X0FVBqRZ7+/rqe5CN97njfglIYtLnMDHYMVrw70nDnIOi1A06mUw/Z7FOdw2lS8BUVWLzB3okNQyaMCNeQBx7pW2BWRqQSpYwY4eJCvD4Q/MIlXfk8K0ZYmAUrhsOQWIVqkjJj5GwC4qx3KA2574ZGKgKNJGXHyNxGYAff7RG3WM4Gfn4VhjqFusuQkfWijqSPsl0XkPsQvmM1T2eTMmRkZmZNvRBezHVAU1/LkpGR9TPScn3KoJimdpMlI+ONN6MIOKJ8m2/jGRmbI14jlKNo8qxZMqrog9SrKtRp9E2fI2Mvga4ZxrSlDpqKYaaMjP0lvAq3p4aBJnGcKSPDzUYamVYx5OsUbydmysjYesYtqF//X/1KbC5jRkbpJs/3Vu05dBYdzQaWbBmZG23FPt0ccQJNFJstI9P74RZ0BTa6rXoZMzIrYHQFQ8r90hkzIl6VCEWdLguZNaPcjHazR51yX1vmjHJLOkp12v3f2TPKjWi8OtoZ2ghGuclK11uIUDffBEbI9w43SOIgwq9kbQSjXGUS8LKlDlmKtNd1MxghwzQRfd8uE3hhGO1n2TaFkV5m4RS4eVwvsI0iV8s3h1FOL6+NJF40fz5a5KU5Uaylw0Yx0qG2p31N60/bab0Jsvn4x2jz8Y/R5uMfI3qcHRv4hR+rPOzdG0cf0Ydf5gkP5j89mJ/urRPNT48xfgIsOUYftwy8c49UjrccoI/P5l975j8emp+OzE/71mmn0e+bOKP3zoHa1hZg9M6P0Qfz09/B6Pn/xuhw6//G6IPD5vn5+X/ByBrjkfMToL6M/pif/gZG9hgfnBMgo/1TE/DsTWZkazrXwkBGEH8TI/d3ZzeK0cOZDmMB1e6P3m09209e//Tu6P6UYHR6drZnjfHQ+KqXUe3MvSZk9PDrz/P7D3u04Ww8Rn+s0Tnjtp7lL1udHUNGf7YInHkYBfkM+0f2dw6TZGTd5WPu2LmzDldBI52FMzraIhDIiNTeuKNxnwIjeymZjDC3bWvrcY8FowfwLapZWouRS0FndAYH/Z4Fo3fwazQ/Z70WIxc6o2fyoMuIXo4IRgQeU2H0/OfZYHRmH/jwUDu9h4z2Hh8f7UHpON6nZvS8V6sdOlNFES+ty+hYv0ftvuaqhWPjjFPACBtjkD0KYPRsnm9Psq/xYsrIvUPFOmJHePYs0foMAYwe4Lfd2CQhRti6tifF5kiOIR4jJwK2F+1qO+tlRBPa24wwJ2WPHPE7FowcE3TovaM/1Fvy17ALNK2SbUbYoXvy0DELRo4FspfA2YqRXe7YvSdcRuVmc+Wv5B+B2+MEXEb3LBg5U2J/PdzI/sQ6moBf/l/ZyeCIWBM5Z6E/OwciRhMrGNkHwpQd7JqWu8K71BSr4e3GNpER0SiySXbDDO8I4niqLmy32zmQ8qqDbZnNjkCQZDms3ZgPo48ko0cWjDyawQ3qAT7t4p1bigdP1hLrgr7G5erXoM46Pow86vWZBaNf5OV9bQtsb14u4U0QYfs+xNXfovkwsh+ifYyNhXXE0vaxfAZT+Ya3bPE2NIHt+wI6VPkwsr0g+562Nl/TCzqDz+vIOxZC/n36PhPt+3a++7TU8GHk+CmmZ+TEgmsyMs/ft51vj6q7+gx0dEATRNi+r1j1dof2Y+SEm897D4dufL4uo63js4ePzgfi+cPGz2Xfp28Ctu/zduPzY+QN69gwwgGKUWTj50YrrIdbBXZ8axIdE4/81sApvPsRC0ZEsAwe7EWhBRZcgBZzALvy4e3GXEaEufuI3/wez5zEZnQKJh43RoRolGh6uMH2fUDoLEakI/zLvfkjIy+o8t69JvYAkfrC1xB1V3bY3fKkdG3P63vvM8OHZUgYEV54GW35MfLUJpxS53ssNCJNTEhHSwKwfV+5VbSMV8WEzzcOHz88Hh/uu+c4J3m+Q5wQ+Kl2ePzhwzH29Eg3IFrfZ9i+j22X5XiogcbPZSoBgoDt+1h2wo4D2A0budOxeridd8Cq3aFftcxx3iQkO+Z1iI7YlG2N2QM2fi6W1mgqr3ctx+OMUmCckSBqYRYyBmD7vmJplYVmDTLoZtH3+bIKxCnUi2KOCyhAjPo+q3dAbwa2NWaPq90DKEDMmiDCjrjFkjfOSAI0EVt8ELPvEzEyxzVuPMqNEvPVDuKMcqPDujM7gYsWfIRJaCQi87K2Fg3D1ed0rMbV9w4zSxcG9Q5/dsla9igJ2NggzEU1We+LTJKdMO/6S5r05D3k7RtcpxYZtzYn3K4EG6fj+HQLHUd2T5HobJ3ACgjCeQus9BKjlX5ewi970km0cToB9SleBiMMZJ0hlb7PGAjHKLieQYkaSAMUO1mkAQiltDITGAYiVdMspiZAEFGytaFAZg4XoDS8xgBA7xjFGbHEiUx53qQsQBDbnzv48o/hgBFpacYxQxxcFPEVU4waZcLSQaOZaoQcgMr1AcwERBjUBba1Yl3twhLql3hhO1mCyyLTFIRPZD2DImxHVhrEDCysNEtAx4hCAV+20owZ4oA0kiehYfvPW1iou6PZXJs6tm9ow/btr6U16wxpgahnBMQZMGpMM2aIg3MYUfsVEc6bjdCC/KYBBW1Ag5ET4KkzZOry0CEszoB1BtZp0uRwAVzpops9JJz16ia4PJQgErDm0IlMc+qFm/UAE7BoeV3BxRiyiW9jQUQ9Oy2QmChvmMtDhx8tXE0DAdo8l4cORMXR0djZbiRYD12QgDUFaHNdHjrABKzX4v6NwHZXxN9asVnYt3bAZL0ThyVqXxClYjoW6D+eMS6mCupeEwAAAABJRU5ErkJggg==;" vertex="1" parent="1">
          <mxGeometry x="350" y="180" width="69.09" height="80" as="geometry" />
        </mxCell>
        <mxCell id="CZolbAfWvqU23V3ubjtU-12" value="" style="shape=image;verticalLabelPosition=bottom;labelBackgroundColor=default;verticalAlign=top;aspect=fixed;imageAspect=0;image=data:image/png,iVBORw0KGgoAAAANSUhEUgAAAoAAAAKACAYAAAAMzckjAAAABGdBTUEAALGPC/xhBQAAACBjSFJNAAB6JgAAgIQAAPoAAACA6AAAdTAAAOpgAAA6mAAAF3CculE8AAAABmJLR0QA/wD/AP+gvaeTAAAAB3RJTUUH6AcSBAwSJvbm0wAAgABJREFUeNrsvXecJFd9r/09VdVxpifPzszmMBu0q1VGCGWBMkgCY3GNje81cA2XICEZsF9fv+/1Xl+HaxwESMI2Tte+NraRbYQEJkhEIZCEUNycw+TU3dO5q+qc94+elXZXG6Zn6nRXdX8fffqzowmnqk6dOuep30kAIYQQQgghhBBCCCGEEEIIIYQQQgghhBBCCCGEEEIIIYQQQgghhBBCCCGEEEIIIYQQQgghhBBCCCGEEEIIIYQQQgghhBBCCCGEEEIIIYQQQgghhBBCCCHNimAWEEICwd13m1vzPW15K9YaMhCDchJKWm1KODGhRIsSot1Qwjj1zxQQg5LRSo1nFAVQgFJlJVROKWHDEFlDKAeQGcM1iyqkZuyCO7P/Gw+WmOmEEAogIYR4zPXXb7PG45lljuWsMoWxXEH2QBm9CmqJEFgChV4APQD6AHTU+PRyAGYAJKEwowRmBNSEEhgVMI4JyBFDGkPFaHjo4CN/mObdJIRQAAkhZI4N77h/mRBqIwyxSii1CsAaBaxC5bMcgNUAl5kH1FEBMaSAfUqIfUqpvaZp7GvpzR762Re/aLMkEEIogISQxuLuu81Bu3+1pazNSqnzoNQmQGyBwEYA7U2eO44CDguo/UJhlzKMV4VwXymmunYc/v62IgsPIYQCSAjxPZfe8aF4TsUvlCYuEVJdCiEuBnAegAhzpypcQO0DxCsQeEVAvOKYzov7//3BIWYNIYQCSAipGxfc/KmWUtS5CEJdqpS4RAhcCoVNaIxuW78yIqCelcJ4TijxLGA9v+exz2SYLYQQCiAhRAvn3/mJPgfiKgVcA+AqABdT9uqOC4FdUHgOQvzIFc4P9z/64AFmCyGEAkgIWRAb3n7/WljyaihxlQFxtYI6j/VCEFBjgPEUgKeF4f5o96OffwGAYr4QQiiAhJA3sOX2T/fbpn2TEOJmQN4IiH7mSkMwKqB+IIX4jgvjWwe++qfHmCWEEAogIU3K9ddvs0YSySuEYbwDCjcC6hI+903BQQU8KaCeBCLf5BhCQggFkJAGZ9Nd92+Fws2qEuG7FkCcudLMqKKCeMqA+JaQ7mO7vvb5fcwTQggFkJCgs22bsfGF1FsUxC8IqHcBWMZMIWfUQWAHhPoqJB7d+/jnngfHDhJCASSEBIPB2+6JGGHxNkOZ75RQd4rKVmmEVMsQhHoMUvzbnks7vo9t2ySzhBAKICHET2zbZmx8YfY6QP0SoN6N2u+NSxqbYQj8k3KNf9j7tT99mdlBCAWQEFJHNt9x/xYp1N0K4j8Dag1zhOhvGMROQD0iXfH3e7/+wEHmCCEUQEJIDTjv5+4bUA5+RSn8MgTOY46QOiEBPAEl/mxPdOhreOQRl1lCCAWQEOIl27YZG15Mv1UofAhQ7wQQYqYQHzEKIf7egXiY6wwSQgEkhCySwZ+7Z7nhGh8QSnwQwErmCPE5NiAelZAP7Xvscz9kdhBCASSEVMGmd953vZK4D8A7AJjMERLAFuQnUOp/73nsc4+Dy8kQQgEkhJyeSz/0oVB2LPZOBfyagLiCOUIaAQXsNyD+qKU/97c/++IXbeYIIRRAQgiArW//SGfJin5YKPVxcKFm0rgtyhGh1B+bkc4v7nhkW5kZQggFkJCm5Lyfu29AOvh1AL8KoIU5QpqEw4D6//Zc0vklLi5NCAWQkGYTv98A8CEAMebIwrFCFsLhKKxwCKFQBCHLhGGasKwQDMOAaZowLeu1r99QyRkmhCEgIOC6DqAUpONCQsF1XSjpQioJ13XhlG04jgPHtmE7ZThlB7ZTgmNz9ZMF8rJS+M29j3/2G8wKQiiAhDQsG+/8+FKo0G9AqF+l+J27+olEoojEY4hGo4jG4ohEoghHowiHQrBCIYRCYQihs5pS8/qRUhJ2uYxSqYRyqYRyuTT3dQGlYgmFQg52mUPfzpKX31em+I29jz7wHDODEAogIQ3D4G339JqW9f9CyA8BIsoceZ1wOIJYaytaWlsQi7ciGosjFoshFInAOJvc1WROqfLs+I5TRrFQQLFQRKGQR7GQQ75QQCGThSsZQazkqPgbYZZ/Y/dXHp5mdhBCASQkyOIXMUPmJwD8dwDtzZwXphVCa1s7WloTaGltRSzWglhLHJZlLcyoAiaAZ/oDBYVioYh8LodcNoN8LotsJotSMd+sRWVKKHx69+Of/Ttw6RhCKICEBO3Z2XDXJ94jlPEHzbg/r2GFkGhrR2uiDa2JNrQkEohGYzh7b21zCuCZcFwH+WwOs5lZ5GZTmE3NolwuNlPj80NHuB/Z/9UHd7I6IYQCSIjv2fSO+96iTPwJFN7SLJVEpKUVbR1daG9vR6K9E9FoFNUPzaMAnotiqYRcZhazmTQyqTSys2ko1dBBMhsKn7GiHb/DZWMIoQAS4ku23H1/l1OUfwwhfqWRnx0hDMQTbWjr6EJbezva2tsRDof1yhYF8LTpSFcim8kgnUohnZ5BZjYN6TbiqiriZ4D8pT2PfW4PaxpCKICE+IZNd93/i0qpBwAsabxKQCCWaENHdzc6unrQlmiHaRoaLIwCWHU6pyQppUImO4t0Konk9Axys2moxhlGl1NQ9+997HN/yRqHEAogIfUVv3fet1pJ9WeAuLWRrisciaG9q7vy6exCNBI+g4NQAP0kgKdiuw4yyRSSMzOYmZlCuRT8MYQC6iswnV/lTGFCKICE1J677zY3lJZ9QgC/gwbYwUNAINHRic7ePnR2dSPe0nL2MXx+EMCa4EcBXHiSuVweqdQ0ZiYnkUmlghwdHFZCvHfvVx94ipURIRRAQmrC4M/ds9x0zH8AcF2gH25hoL27B109vejuWYJwpIpxfBTAQArgidiOjVQyieT0JKYnJyHdwK1FWAbwkT2PffZvWCsRQgEkRCsb7rjvnULgrwB0B/H8TSuEriX96OldgvaOLpiWsUjxoAAGVQBPTMCVLpIzSUxNjGNmagJKBicyKIA/3R0Z/nU88ghX0yaEAkiIt6y+fls0kkj/IYS6J2jPhRAGOrp70dvXh57eJTAta/Fdf1r8wMsxgDUQmACMAVzIOTmui+npKUyOTyA1MwUEY5mZb5UM/MLhRz+bYm1FCAWQEE847+33nu+axj8LYEuQHty2rh70DSxFV+8ShF7bbeN4s08BpACeO4FSuYSJsTGMjgyjXCz6vMyLnY7h3Ln/0QcPsNYihAJIyKLYcNe9twtl/BOAtiCcrxUOo2/pCvT1L0NLa/wszT4FkAI4/wQUgNl0GmMjw5gaH/ft5BEFjJuuvHHX1z+/nbUXIRRAQhZU9jfdcf9vKqH+FwDD3w+pQFdvL/qWrUR3dw/mtwWHBhmhADasAJ5IsVjE+OgoRoeGYDs2JZAQCiAhjUFlvF/yryHEL/r5PC0rhP7lKzGwYiWikWj9ZYQC2BQCeBzHdTE5NopjR4+gVCz57fGYkgZu2vfoZ19ijUYIBZCQc3Lez903oBx8RQFv9us5xlpasHTFavQNLINpmnUWNwpgswrg8T9XSmF6egpHDx9CLpv106OSkkLduu+rn3uWNRshFEBCzsiWO+8fdKC+A2ClH8+vs7sHy1etQUdXz6IfTEUB9NelB1gAX/9aYmpyEkcPHUSukPeNBALipj2PPfA8azhCKICEvIFN7/q1DcqV3wWwzG/n1tXdi1Xr1iPR3u6ZeFAAKYCeC+Dx/1EKU5OTOHJoP/IFP8wcVmOGY12x6z/+5AhrOkIogIS8xuBd92w2lfEdQPT76bx6+/qxcs06tCTaT2lgKYAUQB8L4BxSOhgbHsHRI4dhO069W7Ltbtm9av83HpxljUcIBZAQbLrr/q1KqScBLPHLOfX092H12g2ItyZO39r6YQUO3+8EUgPBpQCeVQCPY5dKOHhgPyYmJqDquai0wLcH0h1v//73tzkghFAASfOy/p33XWRIPAGgxw/n097egXUbz0NrR+fZW1sKIABASgVXKrhSwpXqtf+XUkIq9dpHKQWlcNLXZ8MwKtWeIQQABUMICFH5vimMyr+GgAEBwxCwTKPy/4aodeYHQgCP/yydnMGBffuQzeXrWWy/uPexz36YtR8hFEDSpGy54xMrHSGeATBQ73OJx2NYvX4Tuvv6Ic76yDWXACql4LgSjpz79/hHVv5VUqPYzCedU34kBOZk0IBlGLDMyidkGQiZhoe1aRAFcO43pIuRoWM4fPgIXLc+W/cKhU/vfvyzf8xakBAKIGkyBm+7p80MmU8BuKCe52GZFlatX4+ly1fBMOaznIuPxgB6KIBKKdiuhO26sB238rVTkbyFu4v/uoAtUyBkGghZJkKWgbBlzomh8O6c6vYiUN155TNp7N29G7OZuiwbYyulrtr7+Od+ytqQEAogaRbuvtvcWFz2FQjcUc/T6O1dgnXnbUEkGq++tQ2wACqlUHYkyo6LsuOiZLsniJ4fJ4F4OQbwjX8gBBAyzYoMWgYiIQth61xSGHwBBADpujh66ACGjg1B1n5s4AErUr5oxyNf8NXChYT4CYtZQBqJjaVlD9ZT/qKRCAbP24yeJQMLiPwED9uVKJad14TPduRpJaiZ310r0U8JlACgBCGAsGXOyaCJSNiEedL4QuGhC9ZPJk3TxJrB9ejs6MTePbtRKJVrefh1Tin0RwA+wlqRkKDXooScS/7uuO8+CDxQr+MvXbES69ZvghkKLa6x9mkEUAEo2xXRK9oOSrYLKdVCEvWRu+iNAM77TdysRAejIRPRsAnTNPwhgMqbtEqFPHbv2I7UbKaWj6QSSt25+/HPfY21IyEUQNKgDN75axebkM8ACNf62KFQCBs2n4/e/qXeNNY+EsCy46BQrsheyXawuJ48CuB80zlZCC2YhhFoAQQA17Wxf/cujI1P1vLxnLSc0AU7/uOPxlhLEnLKiyezgASd1ddvixpI/d96yF9bewe2XHgJorFYzd7HhAF0t0axpLMFLdEQIpYByzRRsh0USg6mMgWMJbOwneobbMeVKNoOiqVKlE9KedL5+eeNsQZ2WMeLdaVEvlRGfm6jjbBVEcFo2EIkZEIEcHiBZVVelOKxgzh85GitxgX2Opb9IIC7WVMS4psqjhBv2HTHJ/5UCXF/rR+d5avWYN3GjTCE4W3Sp2kX+7viuGjtEmxa1oW1/e0IWWefVawUMDKTxZ7hGew4MoVdQzOn7a5VUCiWXRTKDopl5/UJG35YCLrek0DqltbZl4ERQiAathALW4hFzhUd9E8E8MRUxo4dxv79h+BKWavn9bY9jz3wTdaWhFAASYOw4a77rxFKfR+AUbOHxjCxYcuFWLpU0xKDc+2sYQJv3jCAa89fgdVL2haVZDpXwk92j+A7rxxFOldCsVzp2s2XnNPv3kAB9K0AnkrIMhCPhBALhxAOmb4XwONpjQ8PYe/e/bWRQIVdrQP5C3/2xS/arDUJqWAyC0hQWXv3b7SbrvNtAJ21OmYoEsPWSy/Hkl59m4sIAbzlvAH8t1svwhWblqKjJbLoNKNhC4NLO3H9+SsAIfDCgTHkitwxqxGQUqFku8gWy8iXbCgJmKZRw51LFhZ7aG1rQyxsYWYmqX8LOYHecs6amt7z7LMsMYQcfywICSgb7rrv80LhnlodryXRgS0XXYbWluhJoQUv6euI433Xb8a6gQ6t15LMFvEX33wZT+0YOv0vMAIY+L2AIyETLdEQ4pHQwmVQ6c7zSiRw95592scEKmA8WrTWvfLtP86x9iSEEUASUAbvumezoYy/Ro26ftu7+rD10jchHtM3z+TyDQP4yG0Xobc9rv16YmELV29ejoGuFrxwYKKGY7FIrXClQqFsI1MowXFVZQs70/DZWQq0tLUB0kUqldYd7WiVpspN7X3mKZYOQiiAJKD0bnzL3wNiQ03kr6cfWy68GNGwpknzAnjnFYN495Ubat5Ar+nrwEVrl+Anu0dRsnXv3Sqq+4izfXCOn8/3c5Z0sJC0PP7AmzRs10WuWEah7ABzexrPayax0P8RQqC9owPlQh6ZrObgnBCX9Gy89gvTe54usxYlFEBCAsamd9z3FgjxB7U4VkfvgHb5e+815+GtF6ysW372tMXw5g0D+PHu4YogkIalEhV0kC2WoaAQtvyxpIwQBjq7upFJpVAolnQeKgblTkzvfeYZlgbS7BjMAhI0lIlttZK/87ZehGhI33vSu65Yj2u2LKt7nq7oTeB333cNWqNhFrAmQEqFdK6E4ekMktkCHB8MATAtCxs3b0Y4HNJ7IIFPXH/9Nq6BS5oeRgBJoNjwzvsvFwr/W/dxWtq7sPmCSxCPWufowlp49+M1W5bjrjcP+iZvO1oiGBzoxA+2VyaGCCHmTlV49Kl/jyo/b+xhLjuV7mFXKkQsE4YQZ/h9r/47c1qhUBjRSBiTk1Nai3o2Utg+vefZnaxRSTPDCCAJFMKVn9B9jHCsBRu3XoyWmL5IxNLOVvz8Vet9l78Xr1uC91yzkQWtyVAKyBbKGJnJIp0v1mqXjtOypG8AfX29umuSD/KuEwogIQFh3bs+tQRCvFvnMaxwBOvPvwQdiZi2Y5gC+MBNWxAy/RmAf++152FdfwcLXFOKYKVreHQmg1ypTvMkhMD69RsRjWgdjnDTebd/chXvOKEAEhIALMd+P4CIrvSFEFix4Xz0dbdX2Z1V3ef6rSuwtKvVt/lsGgIff8fFMBfSbRu4j+DnNB+pgJlMEZPp/OvbA9aQUCSCtYNah0cYruX+CmtVQgEkJAgI8V6dyXf2r8CygT6tsyLjIQu3XbrW91m9flknrtq8jGWuySmWHYwls5jNl2p+7P6BfiTaEhobP/Ee3mFCASTE52x6169tAHChrvSj8Vas3bAR0ZCpddD9NecvRzwSjAmId1+zcW5CQCP/x4kg55rjBACz+RIm01m4UtYwOmtgUGMUUEFtXv+u+85j7UoogIT4GCXl3brSrnT9bkH7SVu8aXjYDIHrti4PTJ6v6WvHhWuWsPARAEDJdjGeyqJYtmt2zK7uLnR2dOh7Jl31bt5ZQgEkxNcGiFt0Jd2+ZAD9vd3aN8beuLwL7fFIoLL9+jouUE38h5QKk+k8MoVadQkLrFytca6GELfzrhIKICE+5YKbP9UC4M1a6n/DxPLVg4iE9M/IvWywL3B5f+WmpQhZrCbIyaSyRcxkCgD0LxfT092DaEzTrHyFNw3edk8b7yhpRrgaOvE95Zh9NZTQsiZER+8AuttbFxH9m/9frl/aGbi8j4YtbFrehe1HplgQa4bwz6mcxe/yRRtKKXS3xas84yqvTwgsX7Yc+/fv09IGWpZxLYCvsdyRZoOv9sT3KIjL9LSzAktXrELY0h/962mPoas1Gsj837qql4WQnJZCyUEyU9R+nP6B/tdnpHhfD9zAO0kogIT40wAv0JFsPNGOjo7a9P4s624NbPav7mtnGSRnJFcsYzavd9HoaCSKjvYOTdUL3sS7SCiAhPjTALUIYEdvP2KR0CLXqsC8Pn0dLYHN/WU9CR+eVQ0WQanb6tQI3CedL6JoO1qP0dOnbUb6xdi2jW0hoQAS4iu2bTMAsU5H0j29S2oy2kophWjYDOwt6G2LsRySczKdKWjdNaSru1tX0q3rX05xA2zSdHASCPE157+Q7LUhQl6nG4pE0Z44w+QPD61QKoWpTAEhM7jvWpGQBdMwIJXy0VmphjhEsDj7g6EkMD1bQF/nuSZVLSxjE/E4wtEoykXvxxwarjofwC7eY9JMMAJIfE0R5lId6cZaE9qXfpFKYSKdR8l2EQkF911LCCAcYlVBzo3tSMzm9KwRaAiB9nY9M+kFxCDvHqEAEuIjLOFqGfjT2pqAoXHPXwVgarYA26l0idmuG+j74DiShZHMi0yhDF3B4kRbm67nlQJImq99ZRYQP6MUtGyd0RKPQ5xJAD1ovFLZIsq2nNttFiiWgyuAZceFK1XtV6cTQcsp0ehP47x/r1i2EY96PnIDiYS22fTrQEiTwQgg8TtaBDAaDms74ULZQbZ48n6pqVwpsDcgmS2xFJKqKNl6Xnji8bgu0R7gXSPNBiOAxNcIYYSUhv6kcMTS044oIJ0vvWHN2pHpbGDvwch0xqM1eEXVeRksOGvkOLbjevd4nZBQJByCFbLg2LbXt66Hd400G4wAEn83qUpqKaOmoafo50v2aZfCODaVCew9CPK5k/rgSj0ybBoGQmENnQICnZd+6EMh3jlCASTENwKoZ6aGqWlZllzp9JGJI5OzyBXtQN6DHdwHmFSJlHomDRkCMC0tnibSxyIdvHOEAkiIb0qo8lwADSG09P5Kpc449kkphe1HpwOX/a5U2HGUAkiqfHGDniigEAKmpWfkUsQyuOI5aSo4BpD43P8MoTweWyWM4/tLeYvtnH3g+zO7R/DmDf2Byv+XD02gUHLgjTJXeR8Fy78Hpb1uR5ZKwRSGp8VGCMDStai6MMIsL6Sp2ldmAfF3KMH7CKCAgI6O5XNFPJ7dO4ZC2QlU9v9g+1GWQbKw58HVNQ5QT9xCum6Ud41QAAnxi/9pWK1Z1/rP55qsXLIdfPfl4AhVMlvEs7tHWQjJwoRK02rQhqHnAbY1DS4kxK+wC5j43ACVltpeCHHmhaA1pvnYcwdwyyWr9XVjecijP9kH25X160WsyaoqXLxZW/boGWnh+XNLSLPCCCBpSgGs14pt05kivvnCYd9n+0Q6j2+/eITljxBCGhRGAIm//c8QQmiwNSG8D07MN+Dx5af24MpNA+hK+HfS4d98+1XYrutxd7kfIzdcvHn+2SOqvNsCeubbMwJIiBcwAkh83gBp6gJW9WtECmUHf/HNV6B86h4/2H4Mz+8fY9kjhBAKICH1KqCaRnyL+trXCwcm8PhzB3yX38PTWfzlt15hwSOEkAaHXcDE3wgpoLSMJD9zR5JYcJJVdZl+6Ye70N8Zx+Ub/LEP/Wy+hD/8t+dQsl1NXXfsbp1nSVp0WdRD9es46thCWtcsYEKaDUYAia9RSlNt7wMXkVLh84+/6IudNnJFG7/35WcwOpNloSOEEAogIXVXQE3LwPjj6sqOi9/78rN4dk/91ttLZov47S89jYNjaRY3QghpEtgFTPytf0romQYMw6PeNXHSVwvpOnVdhc8+9gLee91G3PGmwZrK6Z7hGXz2qz/DdKaAYC2v1sjdgOq0XwYNTcsAcg4wIRRA0hQYSjTD0DEpFf7xe7uw6+gMfvWWC9CV0LsrletKPP7cAfzLj/bAlZLljBBCKICE+Mn/lFC63vnPlKxaRHqLPNUXDo7j1/7qe7j76g1zO4aYnl/29qNT+NsntmNoavas2YB5/LR+1OCtoCFCTfW7CM9221FvTJcQQgEkjY4SQs92Uv695ELZwd9/dye+9tNDuPPNa3Hd+SsRjyzuUZVK4ZVDk/jKM/uw+9g0yxUhhFAACfGx/xlKzzIwAQjvzGQK+D9P7sCXvr8bb1rfh8s3LMWWVd1IxMLz+nvHldg7nMSLByfwo51DmMkUWKAIIYRQAEkgDFDo6e4LzsDCsuPi6V0jeHrXCIQAlnYnsLw7gYGuFiSiIcQiIZgCKNou8iUH4+k8hqdmcWQyg7LtsAyRxoI9wIRQAEkzCKDSsyYxvF8IGlhs1/L8/nhkOouR6ew59FZ5cUJo6sWblZ775/OL8L/wUQAJ8QSuA0j83QYboqHXASSEBF+zCaEAEuK5AaqG3QmEEEIIqRfsAiY+f0MRQmmwNWGcZYmKqg73+i+Luf9opV7dpAX/sF5vK7xnp9yh0z9iYlHZygggIV61r4T4GV0RQEJIMMWS4zcI8QRGAIm//U8ooeOdX0dwSQg/jS1sgEZSLfiHQVechjiVyvMgmuzeERIcGAEkvn/fZx4QQhro1YYQCiAh50RXFzC9khBCSBPDLmDib/8zDCGUnoWghSd7AYsTvlrsJBBvr29xgtwsJYyTSXSdimiiO0ZIEGEEkPi7gGqKAHIgOSFBdXY+u4RQAEnjo3TV9mxECCGENC/sAib+9j9DiaBMGjQMgZC1mHcqddI/i8o3zzLNy8xXHv56DQqFR4eQUsGVkg8zIYQCSMj8G2Fdy8B4tWbL65YQi1iIRazFp6W8PKvFJlBH+66JAOoX3HzRRjJbXGhB9RFVnoymdZE4fIMQb2AXMPE5emp7Li9NCCGkmWEEkPgaJZQQSs9C0HTAc2TQyV94cTcDVvi8e4Wp7jVG+DTLVH2eMXFqfvLJJcQLGAEkfjdA1vaEEEIIBZA0WQHVswwMs5YQQkgTwy5g4m+UEBDe94MJITwaXehXlVR1/XP9iMAcolLWRCNl/jyv+0xd32JRZdHg2xshnsAIIPG5/+naCo55SwghhAJIiE/RNAZQMWcJCWidwCwgxAPYBUz8jVJattcVwqt9ezWYZMO2bwGbUay8u2rREHle7ZEFBJ8HQnwLI4DE3/5ncMU+QgghxGsYASQ+N0BNXcBne/Wpt3J6EHnyLmzaxH3lwps/qH4SiM8K00KzT+h5lDgJhBD9zSAh9S+gSnEMICGEEEIBJM2EMjS973N9aUICCZ9cQryBXcDE5waoNC0ErTxqSHTMUPEg2xo+xFkDDVDa/yBg2Vxlnp9xIUC1uGzlyxshnsAIIPF7C6RJANmIEBLMd0KO3yCEAkiawP/0RAAVBZCQwCEVkCvazAhCKICkCd72aWqEEEgFjM9k4EhGAAnxAo4BJE2JgDhz73JV7Yvy6fX5L6Wq80o0TGGrciCDjy5cLa6se3UlEhX5K9ouKy9CPIIRQOLzAqppDCDjioQEAgVgbPp1+eOzS4g3MAJIfF77K6Gjxq9sBXemH9brYsXrLZ4HjaYXp1LXCKeqYZ5rPUK1m6IpH5RFj16yxOLyXEp1kvwRQiiApFn8T9cWCpxJSIivcaXC6HQG5VPkjzP4CaEAkjMweNs9baalupUMCRhG2DDtlqBei5ToE56nqTA0OoZwOOKFScI0Lc/2pzKEgGmYHpyVZ6bspXV7+OveC7xlmOjq6mAF4gNsx8XoTAaOyxc1QiiA5DXW3fVrK0LSvVBBDCoDa4VU6yDECgA9c58QAAhTAXChZHCHeup413elxMsvvsiCRE6itbUVt9xyo/dlWCxi3Jry4xM03yOfqev77BdVsl2MJjNwKX+EUACbmdXXb4tG2mbfAsgbAFwO4BIo2avmWhShwFHRhJCGoFh2MJrMQEpfOi0hFECilw3vuH+ZMOW7AeNOqNSVAGLMFUJII5Mr2ZhIZsFl/gihADYVW9/+kU7biLxPCfELgLoCShgAa0JCaonQ8NfVzwL27IRQzzqkmq7vTL6EiXR+XnOzBHs8CKEANgKb7rr3Sijjw2XgbgAxSh8hpJmYyRQxkykwIwihADYHG+74xNXCMLYppd7G3CDEhwgP06nbJJB6Zsi5LlxhIp3HbK7EskYIBbAZxO++24TA7wO4iGvREUKaESklRpM5FEp23bycEAogqQmb77h/iwv5GQjcztwghDQrtisrCzw73N2DEApgA3PBzZ9qKcXc/89V6lOAMJkjhJBmpVCyMZbMwF3EVF9OAiGEAuh7Nt75iTtLcB6GwnLmBiH+R2hKszpn8avgVCdtp84Cns0VMZHOceQLIRTAxuWCmz/VUoq6nwPUB5kbhJBmRilgIpXFbJ6TPQihADYw591x3yUl4XwJwEbmBiGkmXFcidGZLIpl27M02QNMCAXQd2y48/5fkFB/DSDO3CAkeJwkFx51VVa/ELSP+kgXIVu5oo2xfBbuWfd1I4RQAAPebmy6877fVlD/A1ylgBDSxCgFjCWzAIBELMwMIYQC2JgM3nZPxAxZ/1dB3c3cICTQ73GLnGF6+shdNVui6bimxdlcdb9edlwcnUgjX7LR0x734xURQiiAi2f1O+/rsCS+qqCuZW4QQpqZdK6IoakMu3wJoQA2NoO33dNrSjypgAuYG4SQZsWVCqMzmdrt58tZIIRQAOvF6nfe12FK8Q1AUf4IIWf3FVTbbSlO++XC0DuhJFe0cXQyjbLNXT0IoQA2OFvf/pFOW6rvKOBi5gYhpBmRSmFsJoepWS7sTAgFsAm49EMfCmXHo49AKcofIaQpyRVtHJucRcl26nJ8dgATQgGsOZmx+EMC6m3MCUIakOr3bJtnutVOA1an/bLeSKUwOpPFVDrPskIIBbB52HjXfb8FhQ/58dxClomQZSEajaClpQXRaBThSASWZcEwDVjGQm6zesP/SS/7epTyOL1qz0+d9UfK434td17pzf+YUqpzpqQk4Lrz24HBPTU9dbrfcTCv/r553AspJaTrzrOonPuYtj3/nSakUqe9jJaWGCu6MzCbL2F4etYXY/2EpkkgN6x+cf3DX4DBu/3aC1HJVMgDQNlB5rkZTG/bBk7xpgA2FxvuvP8XoNT/8sUzKQQi4RA62tqwpK8PXV2daE20IRpvgWV5cDuVjtCDHwcJKf9em/JBEr4vBxx4VgtsR2J4ehbpXKnh8/zNfbseMiR6edff+JSFDOCqHuDJh5BUwLQARpTCYSFwWAFHJLAjLLDjho8hy1yjADYMm+6690ql5N/We+2BaCSMpf1LsGLlCnT39CESi2tuFOt0uSpojb7w/uI5yGket1vU4iCelRBRt+K1sASUUphM5zE2kz1ntJk01SPZCaBTAYMQuPZ4yTAAOArqiYdwCMCLEHhaKvy4O4QXLvswbOYcBTBwbLjjkz1KuV8GEK2LWgiBzvZWDA4OYunylYjFW3hTCCFayRRKGJ7KoFh2fPnOxWUAfYsAsBbAWii82wCQtJF/4iF8XwH/oRT+45Z7cIjZRAEMRGEWwv0rAMvqcfCO9jacv+U8LF2xEqYZ4t0ghGilZDsYnspgNl9iZhCviAO4XQC3CwE88RBeFcA/CeBLb/s4jjB7KIC+ZMMd938EUHfV+rghy8IFW8/H4Pr1MK1qxc+DV+PXkmj0bp+z5FVVl64aPHv8Gm4J0HAAsYiJC0p/PpUdF2PJLGYyBa7pR3SzVVU+v/fEQ3haCPx52cW/3n4v+NZBAfQH57393vOlUH9c6+MuXzaASy69FK2tbbwJhBCtuFJhPJnFZDrv7Yx87ZrNPuAGecW8WilcHTLwp08+hL9yQnjo1g9jlFlTOzjl/RRWX78tKk3jHwDUbE0IwzBw8UUX4Jprrqf8EUK0IpXCaDKL7UcmMJ7KBUr+SEOyRAH/3bRx+ImH8Pff+TzWMUtqAyOApxBpS/0BgAtrdbxYLIZrr7sG3T09/ujV8nVbIGpzoSL494AxEg9ySnhz46peB1oTjqswkcphMp2HK4O7nBsngTQsYQC/LA38pycewl9YIfzODR/GFLNFH4wAnsCmd957KYB7anW8rq4u3HLrrRX5I4QQDdiOxPBUBtuPTGAsmQ20/JGmEcF7HBv7nngIn/6PzyPCLNEDI4DH2bbNkC8kHxKAWYvD9fUtwbXXXYdwOAxfhd18Pfhf+fAw/gxHqEZYM1HU+WargOTTGSjZDibTOUwFbIwfIXN0APhMyMCHvvUgPnzLPfgus4QCqIUNL6Y+IiCuqMWx+gf6cN1113uzcwchhJxArljGWDLbuLt3sA+42Rg0BJ789kP4YjyGT1/9QWSYJd7ALmAAW27/dL9Q+N1aHKuvbwmuu+4Gyh8hxDOkkphM57Dr6CT2DE3PyR8hDaX9Hy4U8OoTD+NqZoc30EIA2Jb9p6ISbtZKW1sC11x7LUIh07+Z0TQ9RV4N/m/QDGOP4QJ6YsUZWi5R5TqA88/8XNHGVDqPmWyhabZsY/yvqVkFhe89+TB+520fxe8KwZpqMTR9BHDTHfdfJ4D36j5OPBbDW9/6VkSjHM9KCFk4jisxkcph59Ep7D42hanZPPfrJc2EpRR+58mH8cjjf4E4s4MCuGCUof5Ae2m1TFx77dVoTbSyxBFCqq+nlEI6V8LBsSReOTSOY5OzKJTspswLwTGApMK7YzZ+/MTnsJJZsUA3aeaL33DX/e+CUm/RXVld8ebL0bNkydl+y6tmwoMT1pILfmxStWZjvfNJeJaA8uUtClKZEgs8W6mATL6EZKaIVK4Ix+XyLYSc8sRdCBM/efJhvPPGj+GnzJHqaN4I4N13m0YNJn6sX7caq9esYUkjhMxD+hRSuRIOjafw8sFx7BuewdRsnvJHyJlZqhR++O2H9Q/lajSaNgK4obzs/Qpqs85jdLa34eJLL+OyBYSQM+K4EplCGalcEalsCa50mSlngdUpOQ1RofCPTzyM1ps+hr9kdlAAz8jq67dFhUr9D53HCIUsXHnVWxAOz2fSx1zXkR8qtnqPJQ9c5S58mfkq6OXAD2XBozw4dSs4pSqzd2fzJaRyReSKzTmWjxDPawyFP3vyYeRv/Bj+kdlBATz9q0Jb+mMKWKHzGBdesBVd3b0sYYQQlGwXs/kS0rkSZvNlbsdGiB5MpfB3Tz4E98aP45+ZHRTAkxi87Z6Igvo1ncfo7urAxk2bWLoIaVIKZQe5oo18ycZEMofRZJaZ4hGCKwGSc0kg8PfffhD5m+/BY8wOCuDrFxw2fkUpLNWVviEE3vSmN8Ew6rHYc2VVzLLjomxLOFLCcSXcatYIU2/44qzXWmWi8/rVMy/zoBZ5b7w/XQjlYYP0+oEr3YZCQwmZ5xgqpSN/1YKy4/T5sPj+2XPm7zwPUXYc5MsO8sUy8mUbxZJ70t67hTK7eJuVSKwdq7e8I5DnLqUD1ylBOiXY5QLscg6F7AwKmTE4ds7vpx8SAl+emx38TZZECiBw992mKolP6jzE4OAa9C7pq/mlFW0XhbKDsu3WbPjW/DeYr1JAz5ju4q7Mhfen6+1gOR8t5qt8cH2qznl1mkOU7Irs5YrlSoSvaMN+bYYuF2Ou0XtucAQw3oYVG29tqOtVUsEu51DMTiCXGUNm6jCmxrajMDsMpXw1tCGiFL783Yfwlrd+HDv44DS5AG4qLnuPElivK/14NIKLLrp4AbPUxILaD6kUckUHhbIzJ2PKp/Wj0PKrDSNbiywHp7+6BpARUYuCok77rbLjolByUCjZKJQd5Of+5Y4bpH4vYz55LA2BcLQV4Wgr2nrWYmDNldgAoJifRXpyL6ZHXsHEsZ/CKfti2EPCBR792hdw+Ts+iiQLU/MKoFACv6HzABdccAGisZj2CzkufvmSzZgDIQtqVBXKjkTZcVAsOyjaDopl97WvpVQM6BFShZBGY22IrrwMfSsvw4ZLfwkz4zsxtPe7SI69Uu/I4GBE4p++/GW8/T3vAddYakYBXH/nfbcDuFDba0aiFevWD2q/jpLtIl0oMxJByFlwHBdlR8J2XNiuRNlxUbRdlG0XJduB7ciTouYkYG/zQkAp3jvfikUogiXLL8aS5Rcjmx7D0N4nMbz/O1DSqdcp3dI5if8N4NO8O00ogAbUJ3X2L1580YWwzIVm57nXAVQAZvNlFMrOXAWovYrV/8q4yF/1SVPkfT6JRr2+6rNDKgVXKrhSQsrK144rYbsubMeF46rKZKc50bOdys/oBoT4g9b2fmx60/uw6rxbcGj7VzF68Kn6RAQVPvXEg3jxpnvwJd6VJhLAwbvu2QwlrteVfndXB1atXq2zHUQqV0LJZvSaeIOUCkoBrpRQwGtbjb225dhZBEoq9Yboi1TqtFFpV6o3jEeUx4VOVWSuch4nS55UCo4jG+lNgZCmJtbai81X/Fes2HgL9vz075Ca3FOP99kvfvNhPHfrx7Cfd6RJBNCU5r06F4+66KKLYQh92yrP5suUP/IGiToe8XKkhOtKOHPRseMRsuPRssrPK1J1JlE7s1816CxnEmgES1NgSXSuwKU3/XeM7P8e9vzsHyHdmi6T1GIq/J8vfxnXcTxgEwjg6nfe1wGJ9+lKv7e7G8uWL9N2/oWy81q3L2kSuVMKtlMZt2Y7EiXbrazt6LivfW078hyqxeaREH+oKheufkOuCBPL1t+Izv7N2P6jL2B25nAtD39V1zg+CeAzFMAGJyzxAQAtutLfesH5VSyIfA5OabNdqZAplKuoPvy5L23V9WVNrq+++eRKheKc3BfKzmtflx33HF2fhBAhBAIz0JP+d0bibUtx6c3/A3ue+0uMHPxJ7Wptgd954kF846Z78CoFsJHrCeDDuhJvb0tg+fLl2k4+UyhzMHvAcVx5guS5yJdtFErOGbr0ebMJIc2FaYVx3hUfRSzRhwMvP1qrw0Zg4O+e/wu8+bIPo2m36mloAZxb+mWDrvS3bj0fhuHF2D/xhjdF25UoOrLK6b5+FQjh0SUo353ua2cmgXzJRq5kI190Kv+W7Oq24SOEkCZEGAJrtv484ol+bH/6i7WZJaxw8YyN3wTwOxTABsQAflVX2rFYHGtWr9F27rP5MmsFv6KAfMlBtlhGplDZEqz42m4shBA/vqQR/9O3+mpYoRhe+v7naiKBAvjNb/wZ/v62j+AwBbCB2HL7p/sd2LfrSv/8LefBtEwtaZfm1jQj/sB1JWbzZWSLNrIFG9li+YTIHqWPEEJb9YruZZfhwms/hpd/+FAtFvuOhiQ+A+A9FMAGwjHL/wUQIS2ZZpoYXD9YGYjsCeqkf/JFu35VhtBRaQVLkhxHIlOwkSmUkc6VkCvZHItJiK+USgTqbEl19Kx4Cy64RuHlHz6k/VhK4e5vfwHX3fxR/KDZ8tlo4BriV3QlvX79IKKRiJa0S3NbWJHa4UqFmUwRh8bSeOnQJH66bxy7h2YwPJ1Ftkj5I4SQWtO78kqc96Zfqo0uKDywbVsD+9AZaMgI4Po7P3EtIDbpSn/DRm3zSpArcs2/WpAt2khlS0jlSsgWOduaEEL8xrKNtyOTOoahfT/UeyCFi6/swQcA/BUFMOCYEB/U1Z4PDAygq7MLOro1HVnZwWHhPcvCiwfh1C98hFhU3iazRSTnpM9xubMKIUFFBKlXdV5vl4u4oIbuYRbYcNkHkE0NITV5UHfr8rs/+mv8y9UfRKZZnqOGC3luvPPXEwr4eV3pn7dJW2AR+RKjf15Ssh2Mp3LYNTSD5/eNY99IClOzhdf3uyWEkJq8uJ7rs8iXdj99vJYUM4wLrv01hKPtum9UX76AjzZTyWy4CKASpXcJJeI60o7HW7Bq1XINb58CSimUyu4iBzcrb+oqLRWgJ3f3nL+RLdqYmi1gJltEgUJNSGMqVZBCgJwDsugMDMe6ccG1H8Pz3/593bfqU997GA/f8DFkmyFnGy4CKJT4RV1pb9y4AULoybJ8yeGCIgvOOxvHpjJ44cAEXj40ieHpLOWPEEIagkposWPJ+Vi16SbdB+uxNe4eRgHUyOBt9/QCeJumV06sH1yrqXwrFMoUlmql7+hkBi8cnMCLBydxdDLDPCSE+BDBj0eftRf9IloSfXrvlsKnH/8LxJuhZDZUF7Blmb+gNF3TsqUDaG1t1XLeZUdyy7B54LgSU5kiJtN57pRCSDMrVWC6VT0Y43faynAGcEY0n7pVUQQjBhgJwGgBhFnX3DStGM6/+qN49hu/rfMwfZEyfhXA5yiAAUIZeK+uftQNGzecUul491AXbcc/FZry/voWMzbRVZU1+iZnC0hmC1yuhRBC4AAyX5tDuSe0CWY7YHYDZicg6tOBmOjeiFXn3Yoju76p8wXj1//j8/jz2+9FiQIYAM67/ZOrpHKv0JF2OBzGyuXLtJy3VAolm0uSnEqmWMZ4qsBZu4QQ4pfogJuqfGACVg9g9QNGpOZnsnrruzF84IdwytokeGnYwC8A+LtGvqMNMwZQhtz3QdN8q/XrB2FZely5WObkjxNleGK2gJcOTeLlQ1MYS+Yof4SQNyCafmptvdd2cQFnHCi+ApQOALJY06sPhRPYcMkv6s7hexu9FDXSJJBf0JXw4LpBbSddKHsZ/fNgoK04/kHNPrmSjf1jaTy7dwx7h5PIFm22cIQQorOur+pzFk1yp4Hiq0D5MKCcml3/wNob0NqxXOdBLvnO53E5BdDnbLzzExdA4XwdaSfa29DT3anlvB1XNm2ESylgIpXHy4cm8eLBSYwlc5wIQwiZZ/sfpAhgM8zQBeBMVkTQma7J8YRhYeOb3q/1zkmBj1EA/f54KbxXV9ob1g9qC4gdn/whhPDog8V/tDyur//nOBJDU1n8dN849o6kkCkw2kdIY8aouAJy03klHMA+CJT344TZI9ro7DsfXf2bdebxf/rWn2EJBdDP/ieEtu7ftWtW64mAQaFYbp7JH4Wyg4NjaTy3fxyHJ2ZRdjjxhZCGji5obF2UavaxwT6PCLpJoLS7Jl3Cay94j87kI4bEByiAPmXDHZ+4CoAWS+vp6UF7IqHlvEu2C9kEa5rMZEt49cgUnt8/juGZLCS7eQlpDkXR2E3LeiQAyDxQPgBonubYvuQ8dPSdp/FtAx9SqjHD2YEXQGHo6/5dv36dtnekYlme0DHqo3e317qDF94VfVz8Xjw4iR1Hp5HKlVgZEtJkmDoFkAuCBkQCZwF7SK8DAFi39W6dh1jznQdxNQXQZ1x//TYLStytp1AJrFm1Sst5u0o1ZBeoVArjqTye3z+BHUenOZuXkCYmZOnbNUIxAlhnqggrOOMVEdQYuujo34L23o36ypvAL1MAfcZIe/p6AL060u5f2o+WeEzLeTfa2D8pFYanKxM79gwnuScvIU2OaRhaJ+rqiQCqkOcNrBHWIz1KAUrM71PTZWHOQPkQAH3tgoCB1Vvu0um77/nxnyLWaM9poHcCEZDv0rT2M9YPDp5jDMvCK6CS42qqHD1IVM3/+lypMDSdxfB0FjYXbCaEzBG29MUWHE29J0LAcwE0rZCmXFBaflUbygbKQ0B4tbb86F56ESLxHpTyUzoO0J4L4XYA/9ZIz2mQI4ACStypJVMMA2tWrdBy0rarAr/2n1QKo8kcnttXmdFL+SOEnEgkpC+2YGsTQBX2vC0xNUUAoRC4tQKdKcDNakvfMEJYufE2nbb0vkZ7TgMrgOvv+sTlALQsA75y5UpEwmEt5122nTOvk+eHdQDP8lEARpM5PLu3soYfl3IhhJyOaFinAGp74fT8pCsCqAMF7RW+jo+jd0JI/9rrIAxLV5bf/uRD6KYA+uLEjXfpSnvdujXazrtoB0+alAIm0oXXFm+m+BFCzoQQmgXQ1TaWzPOBOVZI17CxgE6CkTnAndGWfCTWjoG11+lKPgyFd1IA/WElWm6EZVlYtXyZllN2XBm47c4m0gU8t28cO4/NcHIHIeScRMMhrRNASqWylnRjpvfLVYWi7bpMCoHdNs4ePsG3vf8sXfc2fdohKIB1Z/CuezYD0DLne+2aNbAsPW+vQYr+zRZsvHRoiuJHCKmKlkhIa/rFop51RVvCRc/TjMQ69IiOCnCdrMqAO60t+faedYi1DuhK/sbvPYxWCmAdsaSlzcLXrFlV7YrJ8/4UbXn2DXh9QNF2sXsoiRcOTHABZ0JI1cSj+gSw7DiwSwXvG0KhnJjlfX0XDmuKAKqAv5TbI9DVjS2EiWWDN+g686gjcQsFsJ4vEELdqiNd07SwbGm/nvLuSF+vXu9KhcMTGTy3bxxjqTxbMUJI9fIXCcE09L3NFgolSMf7LuCIWS7qON9QTFcXsIPAdgFDVJaF0TgWsHfllRBCk94I3NUoz2vgBHDwtnvaAFyhI+0VK1c0Zffv8HQOz+wZw+GJWe6xSQhZMG0tEa3pZ7MZLem2hgpaphaHo12aBMoNtgAe3yFEU9rxtn609ejZGUQA73j+LxBqhOc1cAtBmyHjekBP5q9bs2puZ975UJ0olW333CkLD4pmFaRyJewbSXHLNkLIogmZBmJhvU1KJp3Uku6SlpSWfeui8R49GaEaYCUGWQRkBjASGiRNYNngW5Ge3OV91gOdMzauBfAdCmCNERA364hRCWFgxTI9s3/LPuv+LdsuDoyl2dVLCPGM9tao1vRLtoNSblZL2ms7h+OeC3EkASvcokH+ygjsMjCn4kwA4YSWpLsGLoYQJpQGWTaA2yiAdUABN+tId9nypYhG9SzaWbKdcyyLIF67uEXnztleuJTC8HQOhyZmA78bCSHERw2JaaA1GtZ6jFQ6BaVpDcC1HaOeD1xMdKzU1Ag20OQ8N125HuH90IFovBPtvechNbFdh4fc1AjZH6gxgJveed9qAOu1VACrVul7c/XBwsmZQhk/OzCJfaMpyh8hxFM6WqNa1/4DgNS0lj1eIQTkisSE5+m2dja7AM5nvB4AZxq6xgL2rb5S18Vt/d7D6A/6cxusCKAUN+sKfS9fsVSP/Nku6tn7a7sS+0ZTGEuyu5cQ4j3hkIlETG/0r1Aso5jRM/6vJ5rORa2y5/2QrZ1rocWKVRnabbum7fo0IJZCx1poXQMXQQgDSnke9BC2xI0A/oECWCMUcKOOdNva29HeWu3ajvMrrGVHzmNiiaomyXkzOVvEnuEkSja3biOE6KGnLa79GMnpCSipp+difdcxLfu1JTpXnTlesZi6XpXgm4VjPWnYHcDNAGab50nHE/2It69GLnXQ87RFpRs40AIYsGVglJZ47uqVK7SdcdmufXdryZZ49cg0Xjk8RfkjhGgjEY8gEjK1HkMpiZnJcW3pX9S3X0MgRCCWWHb2d/6FfmR5cX9/uk+90bQziBDQ1w0scLNSwTbxwAjgxjs+vgaAlmm6y5fr2TamHrN/R5N5PLt3DBPpAgghRBeWaaBL88xfAJhJJeHoWacZIdMpbuw+5nm6rR0rYIV0BBZVZfkUDcnW9eOkK0vbaBDS7v4LdRXN/u89jM2BfoYDc6bCvEpLsoZAf1+fllOuZfStUHaweyiJmWwRhBCim572OAxDdwBEYXJ4SFvqW3oOFU3hem6xnX3nQ0s3rSrOGZJosNKkAHcWMLteF1KvZLxzJaxwG5yy90sISeBtAHYENdeD1AWsRQAH+voRiYQXsLcvzvkpu251k5YWyNHJDJ7ZO075I4TUhM7WqPZFnwFgNplEMZ/Vlv4VS3d1aMmf/q16TlhWM5kvYDuDuGkt6ZpmBF39F+i5HcA1QX6OAySA4i06Ul25Us/iz44r4WreVq1ku3jh4CT2jaa5hRshpCbEIyF01KDrFwDGRvRF/0zhljZ2HdWSdnv3Bj2SJIv6Iwr62vBzCGCmolQa6F52ia4ruibI4wAD0QU8t//v+TrSHujv13L3bEdWka446Z/5MDKTw94RrulHCKkd4ZCJJR0tNTlWJjWDvKa9fwHg4r79uZDpeL4Ccbx9GSIt3XpOWhUaawmYk5CAnAXMDs9T7liyea6B9TxQ0vfE5zEIYF8QczwQEUArbLwFgOdTzYQw0NvdpeWcy5oWf7YdFy8fnsLOYzOUP0JIzQiZBvo7W2viH0pKjBw9pPUYb1v9My2Vf+/yN2nMmAaf3OemtCQbTyxBtFXPZE/DwLVBze5ACKAE3qwj3SW9PbBC3gdBlapEAL1mOlPEM3vHMckZvoSQGsvfQHcCplGb6NPUxAgKBX1jmpe0pEZWtE1oSbt74FLo6f4tAEoicGP7qrrG4xFfb9MVwkSPpm5gKYI7DjAQAmgoXKQj3aXL+l8vItXOARHijB/blcBZfv7Gz9nnlUipsGsoiRcPTnJdP0JITQlbZk3lz7VLGBsa0nqM29Y+k9CRrhmKob13o6ZISLbxC5tyq5zoMn86lmzRkq4ABVBvmYDQspDPQN8SLedb9jD6ly3aeG7fOIanm+DhJ4T4ilgkhIGu1prJH6AwduwoXFffi27YtNOX9O/VIoBLVrwZphXRc+Iyh4aO/r0WBdTT1rV1DULT5Ji13/s8llMANTA3AWSNlod1Sa+Wc7Y9Gv83mszh2X3jyBZttkSEkJrS3hJBf2dLDdb6e51cOonpqUmtx7hmxSs5U+gZP71kxRX6Tlw2SRDAndWSbCzRg0hcT9DHNXA1BVADZsjcqkPb29oSaInFF/Gmcob3V6XgSrWwVOe6gl2p8OqRaWw/OsPlXQghNcUyDfR3taIrEavpcaVTxrHDh7TunmQIlbll7XNLdaQtjDA6+i7QlDnFSvdoMyDzWq5VCANdmtZnVCqY3cC+F0Al9Iz/61ui501gsZM/Zgs2frJnDGOpPAghpFYIUdnbd3lPW00WeT6lpsfYscMoFvUuZn/9ipdG41ZJS9p9q65EKKJpiRw520QlUWmLdlZ2aNHx8OCKIOa079cBNJS4UGnYrbqnp/vk5Qw8OoQj5QKWSaj8wbGpLHYPJWu+fzAhpLlpiYbQ2RpDyKpPTCA7PYHJySmtxzCFTL19/U/W60p/YN1boW0BZncWjbf929mEN6dlPcC27g26zviCb/0RWm75NHIUQG/fBrTE1Hu6O7Wc7UIigLYrsf3oNCZSXN6FEFIbQqaB1lgYrbEwLLN+nUFOKY+ho0egNL/4Xr/ypaGIWe7QkXY42onOJbr2/3XmZsY2kwDqud54Wz9CkU7YpaTnLmXEcTGAH1EAvUMoQMvc7e4uPQJY7eLMmYKNFw9NolB22CIRQjzHEAKGIWAaAiHLRDRkIRIyEQ6ZdT836dgYOrgfxbLeiW6mkFNvX//jLbrSXzp4IwwzpCmTZpuv0B4fByi8LaOGGUJH3xZMHvXe01RlvWIKoFec93P39UsHrV6nG41E0BqPn6KaVbvpaeVPVdH/OzqTw45jM3Ald/QgGhq9uQbfMgRM04BpCBiiIgKmYbw2u9OYW4vy+NfHa7NTvvCmivQdysPTVd6fk2rEPJ87MyUxOXQIqdmM9mO9ff2Pp8KG06MlSiEMDKy7Ud/JuxnUPfpXj8OrPCC8X62ns/98LQJoaNqwomkF0HXFoNBQgfUu6dGyn6IzX5FTCntH0jg00YRvdsRzQqaBcMhE2DIRtgxYpgHLMpqpw4gEDoX0xAjGJqa0HykeKu29afXPNulKv2vppWhpW6otn3Qti+L79wg3BxjeC2BlPUAdLzQUQK9fOrTcqe4uPRt1O+65n5LKXr7TmM4UQUi1mIZALGwhMteNF7KM16N2J9XXnEhE/Es+PY1jx45pH/cHwP3IxV81hMbnYeWmOzSe/SyAZuohOqEue23ha49fCNpWwDAjkK7ns8FXfvtBLL35HoxQAD156ZCDQkMB6O5s0ySAZ39QM/kyXjw0xfF+ZP4PqGnMCZ+JaNhCyDSYKSTQlDIpHDl4AK6rX2wGO4efWdMxcpWu9GOJAXT2XQB9s39TQLPG8mV+Tn69rfPCkRa0tK9CZmav56dsAJcDeJQC6MW7gDLW64g9t7W1Q5waNfFgvI/ryjM+qiOvjfdjZIaco4KyTMSjFloiIYQtkxlCGkf+crM4dGAfSjV4CRZQkx+66LELdB5j1eaf1zf5Qzn+GP9XVwksAIbn0wDQsWSzFgGcmwhCAfTmAZaDSkPhb2/zvkA5Up7WIRWAPcNJHJ7IgJAzRhLCFlrmpM8QHL1HGo9yPovD+/aiWCrX5Hh3rH/6YDxU0jYuKxztQv+a6/RdgJsGmn0oh8xpEcD2no04puN8DVwWpOz1eRewWOd1mqZhItHS+katXGSb60r1hnkljqvwyuEpjKe5vh95I5GQidZoCC3REEzDeL2yZ5CYNBhOMY9D+3ejUCrV5Hid0cxzN61+Xuug/NVb74YV0rhdnkyi6WdyKT07YrV2rdUlLRcHKXt9O6Boy933dwHwfLBeR0cbhIbNzU9dyqVku3hu3zjlj5zyAiLQ0RLB8p4Elna1oi0emZM/QhqTcj6Dg3t3olCojfwJgalPXv4vK3UG0q1IG/rXvlWj+JRPWAy5iT9ST/sZb+2HFdYyF6D7e5/H8qA8m76NAMq8uxQaBrx3drRrOd8Tx/bN5sv42YFJFO0m2bybnJOwZaItHkZrLATBBVpIk1BIJ3HowF6U7ZpNfFPv3fTkqx3R7A06D7J6y90Ih1v1HcCdrtMd81ndpFxA2YAIe5qsYYbQ3rMR0yM/9f6Fx8TFAIYogIsp/5bZLzQsEdDe3n76JQDV4h4UKQEBgcnZAl48NFX1jiCk8RACaI2G0RYPczIHaTpmp8dx5NDBmsz2Pc7K9vEnr1yx/SatL3PRbixbf6tO6wHcmXoZl99q0bl9gcOep9y+5DwtAmgCFwF4nAK4GKQa0PEy0toa1yOsUuLwxCx2DSehOIarqTGEQFu8In7s3iVNhwKmR49heOgYZA0rQ8twD9x32SPaF+Ndd/EvIxRu0XcANwkoCQ4APF6eCgC837o10alnHKCSuCgoWetbARRQS3U8AC1x7wftukri1SPTODqV5cPaxJiGQHtLBIlYmDN5SVMiXQdDB/dhZqbWESxVvOfSfy+ETadN51FiieXoX3O93ktxk5S/kwqVnokg8bYVuuQlMALo3/CEEAM6km2Nt5x+uKlY2EcqhVcof02NYQh0tkaxvCeB9niE8keaknwugz3bX66D/AG3r3v26XWdw+frPs7gJR+AqaE78nWPLWgTnuAKYBE6uqZjLT0wQwkdZ7zmib9AexCy1s/9U1oEMO5hBNB2K5G/sSQf2KYUP1GZ0buiO4GOFoofaVIUMDEyhH07tqNUrP0Wl2s6Rv7j9nXPvE33cbqWvglLVlyu9yDOJMvT6QqY8n42sGGGkOhco+OEhXKDEQX08zqAWnbXjsdjp4+uV/mCUXJcvHpkBrmizQkfTUgiFkZnawSmQekjzUs+n8fwof3IZeuz0H0sVHr2/jf96w26jyOMENZf8kEIoTFmokpze/+yTnkDsgiY3o+7bO/ZiNTEKxoMEFsB/IACuHDp7/b6OQiHQgiFFr9tT77k4JUj0yjNLfPC7d2ah0jIRHcihkjIXNibAyENgOO4GBs5hunREag6PQOGkIe2Xf23KwwhY7qPtXLzzyPRuUpzpk5VYRi1ymWfyKgqAhp6WBLdmhaEljgvCM+xfwVQeN+HHm+JL7oMZYo2Xj0yA9t5fY0/CmDjYxoCXYkoWqNhZgZpWqRUmJqaxPixw3Adu47NAzKfvuKfyi2h4hrdx4q0DGDV5p/TLEP23NZv8zyGD1dr0VvwNC0I3b5aV35QABeJ57O54tHIov5+OlPCzqEZnLLpB7uAG5y2eBidrVGO8SNNi+26mJmawtTIMdjlYp3PRhXff9E3dq1ITF6u+0hCGNh0+ccRjiT0Hui16F9A6xjdQqrKqKyvNs/8meevxVr7YJhhSNfz/akDIYD+nARy990mAM87/CORhQvgeLqAncfeKH8AI4CNSsg0MNDVgu5EjPJHmpJCycbQ8DB2v/IiRg/v84H8wX7v5u/+9JIley+vxcH6196KnuWXaD6KAzgzLGznMkxVqurX5/MJheKItvZrKTpf+4KGxQs9xpcRwK35nray6f2rUDi8sO674Zk89o+mz/hzlys/NxRCAO3xCDpaI9y2jTQdxbKDbC6P5OQ4CukZSNf2y6nJd6z7yZNXLX/1tlocLBLrxeAl/1l/HWCPg2OJ53P3C4AZ9TzZRMda5NNHPU83KrEJwE8ogNU+D6FIOzT0qi4kAnhsOoeDY7Nnf9mgADYMIdNAb1v8hEkehDQuSgG246JoO8jlcsikkihlUnDLBd+d6ltX/eyJW9c9WxP5E8LEhjd/HJGo5iCOKlU39q+pC2tRSz61dq7G+BEd54vNFMCF5JtUbTpudCRc3Qzgo1NZHBrPnOMeK2791iAkYmF0JaIwmqQylkrBleq1FxipTniZUa+XcC9rRJ2/XpNzqklaysMkFZSszNNVc/fbcSUcx0Yxn0exkINTzMMp5qBcx7dl9arl27/7cxufuqVWx1u64S4sWfFm/V7mTADibDeZYniSLGvIjnj7cj2na2CT37PUnwIojHahwarCkfl3AR+eyODI5Ll395Ac/xd4DEOgJxFDSzRUQ/HQj+1KOK6E7bgoFYsol0qw7RKcchmOXYZSCkpK4HThdi15ELCMVY1wfcfvMaBcB8p1IV0bSrqBuQtXLd/+9Hs3P/m2Wh2wtWsDBi/+ZQjd435lMYDr/tXxXGVZy/HjieW6Hr3NFMCFNMgSMaWhnM13DOCB8VkMTeXmGUWhQAWZaMhEb3sclmkE+jrKjouS7aJYLKKQnUU+OwunVIBrFyHLJXCMEQkgzjvW/uSZWwefvbpWBzStOM674n6Ewi01uLpxMMJXDS6gHEB4qy2Rll4IYUIpj1+KBNZTABci+oZrCeV9gzyfRn7/WBrD0/Pf2k2y/zewJGJhdCei+t/0NQpfLptFJp1EKZeGW8xCOjZvLGkE8u87/9vbr1i6s2byJ4SBdZd+BO0962rgMmlA5niXq0UVAdHqaZKhcCvC0W6UChMenytWbdsGY9s2+HadOF8KoFBCy3mZxtkFcM9Iuup9fSmAwUMIoDsRQyIWrEWdi7aDQtFGOjmDfHoadiENaZd5Q0ljPZ9QyY9d+pWhTd1HL6/lcfsH34EVG26qwZEk4IzxRi9IqkoAvBVAIQRau9ahNDzh9dmG39KLZQCOUQCrqgCEpUWrzrSPowJ2DaUwkS7wAWtwLNNAX0ccYSsYXb5F20G2UEZqZgql2RnYuVSQxm8RUuVLujvyG2/+J7U0MbW1lsdt69mK9Ze+X+9ev8dxJipdmWQB7lwCNCzQ0NKxHNPDOoQVayiA1d5joUJCwyBAwzh9mntH0wuXPwYAA0MkZKKvIw7T8HeXr+1KZAtlpGfTyCcnYGeSflqLjRAttIQK+37zyn8c6IhkW2t53HCsF5uv+iTC4RocVpUAJwmO/Vto/mmaCNI6oOV0DYHVAH5IAawCXV3Ap9vNYd9oGqNVdvuS4BGPWOhtj8PP7lcoO0jnipidmkAxNQ63xHJJmoMNnUMvfvTSr1xkGW5Nn1DTimPzlZ9Ga/uyWtgLYI94EDVoYnlUeoa8RFv7dJ3xGj9np4+7gL0PrRmnjAE8MDaLkZnFNbJcBNr/tMcj6EpEfHluUilkCmWkMznkpkZRnp2EdNk9RJoDoVTxzg0/PnDTmp9eXPNjGyEMXvZx9Cyr0aHdZGU3i4YTuBpej5KAcr2fCRxfoud0FQVwAZkmLWiYmSlOEMCD47MYml78LCzqn7/pTkTRFvffZA9XSszmy0hlMihMj6GcnoRSkjeMNA1Rs3zs3kv/LbayY3xLzZVFGFh1/n/G8vU3eicwZ0tG2YAzCXBPcQ+wvRfAWBeEMDyvgw1GABcgVYYQQs8sEADAofEMjk1xCn5DRxYE0NMWQ2s05KvzcqVEKldCenYWhakRlLMz4FYypMlQW3oP7fzghV/fHDacuhhR/+AdWHv+u72d9HG2x7g8Wole1bQSbNTSUwYQ8zTJUKQVZqgFTjnj7akCqymA1VqzEraOLmAlJY5MZnF0KstnrMHlr7ctjpaof4q3VAqz+TKS6Szy00Moz05R/EjTETKdsQ9s/Ya7dcmBLfU6h97VN2LDpR+AYdWoZ8BNATJb+wv1W/XiVWOpYRygMEzEEkuRmd7jddIDfl4L0JcCCKXKOsxqMp1DMe9tREgwpO87+etrjyMW8UfRVlDI5MuYyeSRnxpBOT0Gxe1jSPMht/QefPUDF3xja8S067YGU9fSa7DpTR9FKFyjicaqDNjc8cNTIZUO4MUqIack0dK2TIcAhi7vQjeASQrgfMuJAVvH28tEKo+23g5/vtWQRWMIgSUdccTCpi/Op1B2MJ0pIJecQGFyCIpLuZAmpC2SP/xfL/h629rO4QvreR7tSy7B5ivvRSTWXjvjeW3WLxsK77LV9uz2nEi0tV/L6YYtDFAAq3IqUdLRBSw1jMHgY+2TMiPgG/lzXImZbBGzySTyU0fgFrmcC2k+TMOdfvfGH2auWf7y6np3lLQtuQRbrv51RFu6algRTAKqUINGotlaIcf7yTRKIaxpRIByMQDgFQrg/O+FrSth78WDCugL+Wv3h/xlizam0znkp4dRmhmD4jxx0mQYQqWvWvbq2F0bfrQxapW7630+7X2XY8tVn0Q80Vu7g8oc4MwwRKClHbfheVTVPoJISE/7IQT6/ZqV/hwDCFGCpkkgfPdqPHrb4ojXecyf40pMzRYwm5xCYeIIpMM9eklzYQqZumr5q8N3bXh6c8Qst/vhnDqXXoXNV9yLWC3lT7mAPcrWQWseO4DwaDx/+SjgzCAUSeh5FwAFsLp7q1xbR2RNSxcwI4D1lb/2WN1n+2YKZUync8hNHEZ5dpo3hTQVEdMeumntT2ffuuqF88KG0+GTIAK6V9yATZd/BLHWGgch7SHu9RsUASwfAZwpAEA4omdikCEw4Nds9GkEECUtJu54/1D6fV/ZRqYrEa3rOn9SKkzO5jGbnEZ+/BCjfqSZKA8kZna+fc2POy/sP7BK+GiogxAmlqy9HRsu+QAi8RoHIu3xud0+iHYBXHQJPvqa/AGVtQC1nCojgNU+wJjVka6rYYstBgDrQ1s8jPY67vBRKDuYTOWQnTyCUnIC3BOGNEOz2xIq7nnL8u3Zm1Y9v7UlXLzIbydomBEs3XA31l34nxCKtNT24O5sZbs34n8BLB+rTNI5UYZCYQgjBCU9noKg0OfXbPSlAIaAlI5ZIK6GCKCAgCEEJBf1rRnxiIXuRLRux0/lSphOppEb2w+3yB1lSEO3tMWOSH7n5Ut3Fa9d+dLmjkh2k1/P1AwlsGLL+7Bm810wQ7V8ORSALAL2GDjur2a2vcC8VnPyN/HG8mOaCIVbUS4mvS4e7X7NRV8KYHa2Mx1pS3mernT0TC42DAHpUgBrQSRkorc9XpdjS6UwmS4gPT2B/PhBKOnyhpCGQkBNt4QL+zd2DaXfNLCzZ1P3sS2W4V7i+3qhZRlWX/B+LB+8HsKo8WoAyqmM+/NNL0ATSKhaiADKk8b8nY5wJO69ACp0UACr4PD3txU33vmJIiA8DfM4tiYBZD9wbd7wDYG+jjjqMeyy7LiYSOWRmTiC4swY2OVLAooDYNIQaiRqltMdsUxheWJSbeg8Zm3qPraiI5rZCODNQbqg1u4LMHjJB9Gz9ILay4+SQHl4gULSPK8VegSwSvkrHTxnF30ooiW4wAhg9dIs0gLwVAB1jAGsCCAfce1VyNxaf/WYdFMoOxhPZpAd3gc7nw5i9rkCYo8S2NUWyYwta50qLk9MGsvapls6w9lExCq1GVAdQsgOQ6i216ttFTUEXutLk0rkVUUgfIVUYlb4bMFFJeAqZWT9cC6tkYIjICNt4UJIVRqjgblPsOsEw0LX8huw7sL3oa1rVV1aKTgjAEocDF7zm1+FACoXKO0DZOacvxoKx3ScbZtSEEL4L2rgWwEUQArwdvCkq2mWpmkYqIxJILroTsQQrcNCz5lCGZPTSWRG9kKWiwHJLVUExI/7W5Pb37LsVXXF8p09LWZxI4BbASxmZHw7S2JwaaSYtRXpwMD6d2H1eXchEu+oz0k4E5UFn0kdCvM8l3RTNlDaM++Z2VZIy9hy6+m/QSuAjO+eIx/XVmmvI8eupi5g0+Tbn04SsTASsVDNm7BkroipySnkRvZBSd+v6zXZFc08fdXyV8evX/1Sb8QoXwfgrSw9pNFo6TwPyzfdjWXrroFh1mkZKGcacFJVRzWIV8xDAGWpIn9q/qvKaYoAws6hnQJYjf8JpL1+XhzXhXRtzysNrgWoj7Bl1mXG73SmgOmJMeTHD0BJ38ZO8v0tMy/cuvZZ45L+vRcbQr2TJYY0KoYZQeey67Fq88+hq6+Ok5GdVEUAqzU6v1UjQW62lDz7BcjCnPxV1+tnWXoEUBloBzBEAZxv2VRq0utxFa4roVwb8FgALcNg7ayjwhcCve2xmg+vmZotYGr0GAqTR3yZL3GrfOzalS+Nv23185tjVvlqlhTS6ERbV6B/3Z1YseEmROKd9TsRdxZwxhvDrAIvpGfYD1jmgOIeLGS4shWO6Mlqny4F418BFGJMR/l0yjZMj5eIYhewHroSUYSt2sm1UgqTswVMDx1GcWbYd9X1qrbx4XcMPt25qfvoCiGwgiWENPxLoBlFx8BbsHzDnehddhFEPV+2ZRZwxgI64aMR2yj5RoVxZ4DSfmCB6/Jalh4BdBVifsxBH88CVmM6Cq1tFxHxWMbZBew9LdHQ3Li/2jE5m8f0sYMoJsd89CIEuaX7UPqO9T/uXJaYXM6SQZqFWPs69K66GcsH34p4os6bKcgcF3r2nSTIk2+HPVZZ529RLxx6lMhUCPsxC/0rgEqM6XjRckrezwRmF7DH+Wka6Gmr7QvTRDqPySP7UE5P+uYR2NJzuPjODU/FBlqnO1kqSNM8/+F2dAxciaXrbkbv8oshhFnfE5I5wB49/krGG+QrBCoLPB+u7MO84DSOv3DrKWtSUACrM2ahxqSWCGDJ8zQNwe3gvKSnLVbTtRWnZvOY8pH8re4Ys39+4/dDq9vHYiwNpGmaciOERM9FWLLqrRhYczUisY76n5TMzEX+WLf7DwXAqYz3c2cXmc5cW65pFxnFCGCVuGoUGsbWOaWSnow0DZQdrgW4WBKxMGI1XO9varaAiWMHUUpP1P3a28J5564NT1mXD+wKcV1Z0jTiJwzE2teja9k16Ft1BTp6N0D4IdImZ+eiSpQ/fzpCDrCPzXuNv/mWRR0YBgWwuntrhMaEhsWV7XJBy/mGKICeSHRXDZd8SeVKmDh2AKWZ0To3gFK9bdWL4u3rfmKFTIcFgTQNsbY1aO+/An0rr0T3wPkwDJ80SW6qstAz8SflY4A6AJgdHouapgigpABWxd7H/2R645332QA8nQlQLugRQIszgRdNTyJas67fXNHG6NGDdZe/FYkJ9YvnPylWJNjYkGZBIJpYibYll6J3+ZvRu+wiWKG4f07PnQacGXC8nx9RQOFloLAdiF/qfcnUJICCEcCF3GmMAd4ud1EqFqDmNubzkpDJiSCLIRELIRaxatLbUii7GD52FMWp+i31YgiJd6x7Bjeu+akwBLuYSHOIX6x9LRI9F6Jn2eXoWXYhwuFWf52iM77I8WTBuRfBc78SkH0asIdOUASPc0XXhCOFiB+z1PL5LT/stQA6jgPllCA83vPPsiiAC5chgc7W2nT9Oq7CyOgocuOHUK+xPQMtM/jPW7+JFW2M+pEmUA0jhHjHeiS6t6J74BJ0L92KcKTNZ2cpKzN9ZR6M/PlQSJ0JIPuDuftDL24KAVTAQQFc4+ljrhTsUgERjwWQEcCF09kaqclailIBw+NTyBzbu+CFQhfL1ctfxbs3/gAc60canVCkE/HO89DWfT66lm5FZ9952rbaWlxDYwP2SGXbMM6+8tm9UUBxB5B/Aaff/1d5fDhN4/gFfFnh+1oADeCwjma6XCoi4nHPg2UYEKJuXhHcRsIykIjVZnjEZDKD1NHd+h7ysxAxbbx3y3dwWf9u3nTSsAgjhFjbGsTbB9G+5AJ0LtmI9p61EMKnTY3MV3b3UJzA5797UwRyT1cmfJzBqjz3TampHCgKYPX3X6iDQnl/k0vFPBI6ZMY0ORO4SroTtdnrN50rYeLgDki7WPNr7GuZwYcu+hr6WmZ4w0njSZ8wEG5Zinj7IFo6N6KzdyM6ejeevI6fgv+619wU4Ez79OSanPIwkHvq7Eu8aFiyRVdwQCnYFMCqMQ7pGKelayZw2OJSMNUQj1g1WfOvZLsYPrgbTiFT82s8v/cQ/svWbyJmlXjDSeNIn2Eh0rIUscRqtHSsR1v3OiS61qC1bfmZ9+v1Te+IApzJyjp/xF8oF8g/DxR3zaPA6IgASl0ljgJYLdJ0DpmO94JQKmS1nG+IE0GqohYTP6QCho8dQylV+wkXN61+HndueBqCC8mSoAufMBCKdiMcH0CkZQCtXRvR2rECic5VaGlbqm0BXe9bYruys4cqgVE/n+FMA9kfAm5yvqVSQ/nQI4AGxwBWz/4Lukc2vpAqAd5OoS7ls1BQnq82z4kg8ycRCyFcA2GemE5idvRgTa/NEAo/v+n7uHbFy7zRJJAYZgShaDdC0R6E431oaV+LeNtStLYvQ0vHch/O4p0HbqYS+YPkDa6FTM3/xgD5lyvr+1VzbzQs2aI0CSAngSyEbdsk7rzvCIANXiZbLtmQTgmm5fFMYEYA5xlNADpa9Ef/svkSxg/u0Dew93RlwHDwKxd8AxcuOcAbTQIhela4DWa4DVa4DaFIJ2KJlYi3LUe0pQexlh7EWpcgFGkN8FXOdfm6GR/IDjmJ41E/Z/rcQir064uUmnpqJQVwoUq+H0J4KoCulHCKBZit3i8Fw5nA56YtFta+c4orFY4d3ANZKtTsuiJmGf/tksewvnMoYBIQhjAisMItCEXaYVqVgLsVisMwKjO0pXIgnbLvzl26NqT0X93quqWavnic9kXLsAAYEIYJ04ojFG6FYcURirYjEu1CKNqJcLQDViiGUKQV4WgHIrF2GGa4cSobVZ7r8rVB/HRfHCD/IlB4FfNe3uXUb2mYWe5o2ioWBop+vA2+F0AhxG4F3O51usVcFpHWTm/PFQKWacB22MVwxudACLS36F8UfXRsDMXkeM2uK26V8JFLHsWajlFf5rsZakEo0oVo61K09WxCS/sKxFqXIRLvhhVurciBabGANgzNHuVSgJOszPTlLF9/UT5WWd7FXeykPO+7gB2npKs4pimAC3nDF9ilY6esUiGn5XwjlkkBPAutsZD2RZ8zuSKmjuypofwVce+b/g3LE5O+yedQpBPhlqVo7ViHjr4L0dKxCvHWfkTiXZ5vg0iIr4RUlQB7ohL9owz7qDHPA7nngNJeD4qTqWUZGEfTMmEG4Msp5/6PACrs0pFuMadnJnCY4wDPfC8F0B7XG/2TUmHowC4opzZdPjGzhI9d+hVfyF843o9Y2xokujaho28r2rrWIJ7oYwNIfICqzTFOivr5REibHhcovALkX/KwKz6k5UxtTV3AQjICuLATjIhdTsn7yqOQ1ySAIZPP+xloiYS0j/2bGB9DMT1VG+EybfXRSx8Vq9rH65anZqgVLR0b0dq1GZ0DF6K9axCxRB+jfKS5kHnAmTpBMFj+fUH5KJD7MeB6HADTtLOMqykCWGAEcGHseOSBmQ133jcugD4v0y0VC5Bu2fMBzxGLAngmdI/9K9k2xg/vrcm1GEKqD134NVGvMX/h2BK0dp+Ptp4L0D1wAdp71sMwQyxkpLlQTmUGqcxR/PyEMwnknqnssaylAtazioStRwDlbfcgg3spgAuTfWA3PBZA15WwCzlEWr0VQEMIhEwDtstxgCcSC1vau8eHDh+oyUxVAeCXNj8pNvUcqYv4JXouQnvvBehZdjES3eu4fz1pQvFTgJueWzRY0fv8gpupzO6d104e1da6J/6vnmBCuaRlbkBG+HQ3gKBM+9sJ4DqvEy3mMp7PBAaAsGVSAE+hLa53aYnMbAazY7VZfuWOwR/jzct21jT/zFAL2pZcjtauTehddik6+za/vvuCX6oWNsJEu/gBkNmK+HFpFx+JX35uC7fd0LPQ9imVnBHRUvEV8ykduZP2620LhgAKtRvK+9Yln82gvc/70w2HDOS49evrhcw0EI/oK2pKAcOH9tTEhC4d2IOb1jxXU6tq7T4fbUsuRVf/Behddtlr6/T5snH2Xd3B569hkHnAmeHsXl+JXw4ozEX8VA3X49QQAVTSRanofQRQAEm/3r5gCKAU23U864WMHjHnOMCTScT0Rv9mpqdQmNX/jK1ITMpf2vKEUasuVyvSgc6Ba9DWez6Wrr0OkVgnC1PQpZTOsoD6vwS4M4AsMhN9I36ZytZtxZ21Fb/jaBgD6JT1TAyVAiN+vY2BEEArKl7SMhM4l4FSLoTHewpGOBP49fZOVPb91dY2KIXRI/u0X0fcKjkfuvgxK2zUprKLtw+iY+k1WLLyCnQPXMhZvaQJxa9YWdJF1mo3Hz5j5xa/mcpyLsU9qOueysJ7ASyX9AigUBj16+0MhADueOSBmY133XcECqs8veG2A6eYQyjm7cbmnAhygshE9C78PD0xBlvTkj4n8stbv2V1RjPajyOEgfb+t6Cj7zIsW38TYq1L2OiQJhO/POCkKgs6U8z8gT1UEb/yUfgirG7EvL/EkqaVWgQFcPEovAR4K4AAUMplPRdAoBIFpAACiai+6J9SCuNH9mu/hhtXP6+29h7U3goZZgSdy9+K7oE3Ydn6m/w71u8sNR0hC3yY5yZ3zHKMn29wgOI+oPBSZY1Fv9wPEZqbBOKxCxT1vOALsAvYi0x8SQF3eZ1uPpdBa4/35xsNmcgWm3uWmmEIRMOWtjfG6Ykx2CW9e2wvbZ0q3Ln+xzHdeWVacXSvvBVLVl2DvpVXQhjcUYY0g/g5Felzs3i9S5HiV1fcFFDcURnfd1L3u08G1Bp6quNyUU8EULIL2JNMfEnHMKj8bErL+XIcYGXnD11D16RSGD92SK+UCeW8f+s3YobQG8k1Q63oXnkblg3ejO6lF7EBIg0ufah088pMDcf3kXNYH1A6BBReBcpD85e9eri60aol2XxGzw5SQlIAF3/PTbykNLTDhUy6MhEE3gpbyDJgCAGpFJqVVo3dv7PTkygXclrP/47Bp9VAYlpzuY6gZ9WtWLHpTnT0bmI7RBoXWa5088ocoFzmhx+wxytLuJT2njDLukqZrzUifubjLkJIs7Oa9nNX7AJeNLsf/eyRjXfenwSUp2thFMs2nIL3E0EEBMKWgaLdnBWdZRqIhvVFQceH9Ub/euOpmbeu/lmX1npMmOhecRNWbHon5Y80sPTl5qTP8aalJou8J7OVWbzFXYCTDN75my0ahFTpEkCnM8oIoDceDfkSIG7wOuF8Jo12TRNBmlUAdS78XMjMIj+rdW9t+V+2frPTEHpfbzsGrsbKzXdT/kjjoACoYqVrV+a5W4efpK90sDKpwx6FP1dtnyeG9221a2dg21q2ET162Yfh24cgSAIIBbwgAA0CmEL7khWen280ZPp3D5gAC+Dk2DGt5/6mgT2jq9vHluk8Rlvf5Vi55b3o7NvCxokEXPrsymLNsjA3po+rH+ihyqipO/269DkTDZIHxtkjgAtE0xZwALDPz7lpBaz4P6sj3Xxaz82vzIBtPgwhEA3puXbXtpGcGNN47jLznk3f1Sp/scRqLN90N3qXv4ltGgmg8JUra/TJYiXad+J4PrEAUSEe3RdZie6VDwGlA5Vt8/wkpF5gJioS6LkATmm6JzhAAfTqZBWedTSUuVw+C+mUYVjebllmCIGQZcB2muuNOBaxtM3+TU2OQUp9+XnT6uenY6FSQlv9ZcUxsP7dGFh9HRss4nejqET3VLnykeW5Ll1ZfxEglfvjTAPlI0D5WOVT0y73OnQjm23QMQOkkNU02c/Afj+XoEAJ4I7HP3d04533jQBY6mW6ritRLmQQTXR7L0NhC7ZTRjOhs/t3ZmJYW9oh0xm/de1zq3XmTc/qW7Fy810QBpcJIn5AViJ4ypmTB2fu67kPFLPITzhJwB6u7MhRPloZZ9lMmG1ahHQ2Oazr6aIAeorAc1B4p9fJ5mbTWgQwGjIx21yPKGKaur5LhSyyGX3bsd225pmJkOn06Uq/pWsLVm/9RVihFh/dLXdOANy5CnQuuqM4jivYqNc/r91L9fr9hpz7vjqpcj1dhUvqdQtdwBkH7BGgPFz5t9mEryoBXPizkprRI4AGBdDrWyWeFVAaBHAG3cvWahHAZiJkGdr2/k1P6hv7Zxpy9G1rXtQ2I8MMtWLNBR9EomNt3Z6cypitue48ZXOGJqHg+UnYnZk54RurrM/nTJyydE6zYwBmu/evwHYW+ZyWwIK0XRykAHpZXSnxrI5uiVwqWXnjEt4Km2kYCJlG0+wLrGvyB6CQnBrXdt7XrXhpvyncAV3p9668EUtWXVUH6cvNzc4s4o3PDRt/QmrveqXK3rrOFOBMVv61x/lCds7GtB06JoAUMtralUO334sSBdDbU34eKLuAt1t3lGwbdiGLUNz7N4xo2IRdaBIB1LT4czmfRSGvZ9soATV9x/ofX6grT0LRHqy58P0wjFBtboKyATcz1110ri4+QogWZKYyZs+dAdxkZcKGM1XZ+9ijmqupsDq1JJvVJYAKL/s+S4NWBvY89pnMxjvv2wlgq6f3SilkZ1Po1CGAIQuZQnO83eka/zebmoLStK3eYMfQsyHDuV1Xnqza+n60tK+sQe67gJOubLdFCB1Ds+CVKzLnpioLLR//2klVhE97RE81V2Ex9WzMlEkO6cqOFymAesr9sxDeCiAA5NIz6OxfpUGKmmMcYMjUN/5vdmpK12m7/2nL95boSjzevg5L17+jBo1RttLwcBFeQsdY5DW7lei5zAJubm7/4izgzu1j7GYq0T1ZYPmoZWGxOqs8xvwKS3pazwQQpfAKBVBHxhrqKaHEf/X8TSA9M1fAvK1lTMNoivUAw5omvEinjGxGz54qMbP0VH/LzPW68mT1hR9EONKu82moDB6XuRq2kIT41DFUcW6Ck1PZneT4ZCdVnvuZ8/rOJco+Ydu6E8bKVhO54+NWG8wEIEIeFxZAulmk03qCC0LiJQqglox1n4Lw/tRLxRLcYg5mtNXztONhC+kGXw8wbBla0s1n0nA1Lf589cpXtI0AjiWWYcnKGzTmuALsycqgcrZERCvuCYJUmJOoMirLyZRPXjvwtTUFT9ghRBbPUZTn0jrpe3Npn+53T1ymqJ6z2psxQloXAezWkmwuPaxraNHMTZ/AUQqgBvY8/tChjXfedwyApxv4KqWQm02hTYMAxsIW0vnGFsCIZWp6SJO6Tjlz25rnNuhKfPWFH4IVjumVP5TofmQhld1ct+bs612abrYid3IuKqaKJ3zthzHMLOhNK6RWj5bTS89oc7RXglBcrACX8x8J4L2eG0E6ibYly72Xo5AJISr1bqOiqws4q0kAW8LFJ8OW/S4daYci7ehbfaO+RsuZmYuOsFEkp0GWKrNO3fSc3J0oerMV2QvceFGG25pTSA3A6vYmrVNuWXLysK4rf4kCqPfRewoaBDCbnoSOcYCGEIiGLBTKjbmwp2kILRNAlOsgp2eRTrxl2atpXfmxYvMvwgq36knczXJHAPJ6WXCm5pYZOb6uXKoiftzGjULaCFid3qnKibdM2ZiZPKaraPyUAqhTOJT4oSu8fwAL+SKcYhZWNOF52i2RxhXAsKbu31I+A1fPItr221a+uExXRTywTtPMX2VXlppoGBhFOfc9l4A7BdgTc5I3XYkAu9Nz27oR0sBCqqn7t5gbg23raY8dCz+mAGpk5+MP7Nx4533TADwdHaqUQjadRIcGAYxHLCCDhsQy9UwAKWiK/kHIZxKR/JU6ku7svwSxtuV6zrvhIjuMopycHc7cNmDHtwQbq0T1uCUYadZn2+rVcnazSW3j/0Zu+wgOUwD1l64fAbjL64QzM1Po6PN+4V7TMBANmSjajffWHtIkgPl8Tku6qxKTBwFcoyPt5Zt+Xk8my9LcbEpGzRoGmQXKxyofewywh0+J6vFekybGiGrZ/xcApsb26XmFFHg6KNkbZAGEgHhKQXkvgOkpKOlAGN5nT0s01JgCqGkJmGJWTwTwiqU7DT0Pv4GuZVfrabjdDIUg2LYH2CNA6ShQPlKRvXMuJswIKWlirD4tySpZwuTYQT1PuaQA1qYqUup7SkN9VCrZKOcziLR6v/dgPGJhugG7gS0dO4AohUJOy7Zm7qX9e7SM/+tZfjVCkQ4NeWFz1m/gcIDyCFA+XBG+8pBPllNZVEGkkJIaRhb6tSSbnz2mbfyfYQRj/F/gBXDXpR0vbXwhNQXA81GimeSkFgG0DAOxcONNBrE0RABdpwzH1RIt3d8SLl6soylbsuYmPRns5vU0dmw/vcWeAEoHKp/y0QYQPgopH6h6ZWWosvyLBpIT+3Wddb7DCsYSMIEXQGzbJnHHfd+BwH/yOun05Dh6VqzX8kC3RkMNJYCGIWAI7/PJLhW1rNIeDxePKmCjjrzo7LtUTybrWvaF7efi78tx4SsdnOumJxRSPlCLt5MlAPQMLZoc26Pr9v/0sg8jMG99VgM8cE8AwnMBzGYzsEs5hCIatoWLWDCEgGyQVaFNoaeSKZVKWtJd1jKtZWZJJN6DaELD7F95mm2y2H7Wr/10UkBpD1DcC5QON8+9IXygaimkmrp/pZ3CzPSEntwW+G6gHDvoxdsCntARS5NKITMzia4B7wXQEAItUQuZQmN0DxmGHgF0ynq2zlvdOaLltbJ35fV63lhVERDsWqpfG6oqY/iKeyofZyYQ7SchgRVSYQKhXi0Cm545pGv/XwiJb1MAa8iOxz93dOOd9+0F4PmerunJMXQNrNFy3olYuGEE0NQkgHa5qCXdlYlJLQNLOvsv09NCc/JHHdopWZm8UdgOFHb6Z+cV5bNywGJJtJhJHwA9mwtMDm/XddapZH8wdgBpGAGcq4OeUBoEMJNOwbWLMENRz885YpmIhEyUGmBJGF0C6Nh6BLk3PrNCi9R3b9aQquREglpGJ8rHgMIOoPDq3H65PjxHX50OhZRoILxU03tdEaPD+3U9mU++5z0IVIPeEAIIpb4JIT7mdbKulJidmURnnxZfQFssjEm7EPjsNw09A3UdV89Eme5oxvPaRRgmYgkN5UTZbNV0Ux4C8i9Von0yx/ygkFJI65pn1twEEO/Jpg7C1hRYMIAngpbVDSGAjiOfMENmBoDn+7elxoe0CWBL1MJMVsCV3LT9tALu6BHAsOV4Xu5b2ldDGBENDZrDVkRL4UpXunbzz1e2XiMUUgqpPwgNQNfs34nhnfqqFEUBrAv7v/FgaeNd938bSr3b67RnU0k4pRysSIuGZ1GgLR5GMlsMdP7rmp8gldSQ55CmcD2vXdp6ztfUgNS6+7eBZVMVK1G+/Etzs3f54kUopL4T0tBSTdduY2x4t64r2XvLPThEAaxXuZbqq0LAcwGUSiE5OYre5YNazrstFkY6X4IMcBRQaJIG6WoQQCFtAJ6H6lo712kq2LUeUtKA65jZw0Dup0D+5bkJNYRQSH0ppCIMmD1aDpVPH0UhX9CVrd8OYmloGAEsm3g8ImEDCHmd9szYMHqWr9MiOoYQaIuFkcqVApv3moYAVpbf8Pxc9cz/j7Yu05QJjbdvdE0aLFUC8q8Auecq++/6SUgJIad/vsMDc4+Y99X05Ki+7l8h8Fgg2+5GKUaHH/1sCsBTWt4cclmUM2lt594eD2tbS6826Dl3LWs1KT0nG4nrWbQUSs7lLz/z+tjDQPLfgdH/DaQe9Vj+jjdMfvoQ0kCENL1IKxcjR1/VddapmSn8IIjZbTVU4RHqq1DirTqSnhofwrJEhx4LFwLt8TCSmWBGAXWNAdThf0JTf3U41uV9RiiHC0DPV5ILrwLZpyvLuDRzBKVBXwZJE2DEAKtTS9K51AHkctpm+H/9PdsQyLElDSWArin/3XTMB6Ahsjk9OoT+1RtgWmEt594ejyCbt2G73FZKb/OkZxS0GWrV0PgpNqhnQxaB/M+AzFOAm2J+UEgppEFG1+QPAONDr+gs8l8JrHM3UvnZ/+8PDgFKSyjWlS6S48Naq6nO1ggrgYC2CGa4VUOq7OI7Lc4UkPoaMPp7QOpxyh85xzPELvtAENbT/atkCUNHtI3/K1gGvhXULLcarhAJ4/9CqRt0JD01dAjdy1ZBaPLmlmgIsYKNQtlhZRCoIheCacY01FyMAJ5E6RCQ+R5Q3MvGlARYSBv+fbh6jBbAbNOSdGZ6L8qa9pUXwJM3fAzZoJZGo9EeL7fs/BsALRt3FooF5JJTWs+/py0Kg+O+AlXdmaG4prPlcICK+O0DJr4ATP4ZUNxN+SPEUyH1wSesr/t37Ji+7l8V4O7fhhTA/d94cFZAaZuSPTmkd61HyzTQxa5gnRWe5w5omGHomdUKNO+MXgCFXcD454GJv6ws3PxaLxq79QhpKMJ6dttSThYjQ3t1nbVthfF4kLPdasjCpPCPEPgFHUmnZqaQzyQR1zQjGAAS8TDyZQf5EruCg4AQIZ2pN5mfO5Xt2Wa/BzjTZw5a+Obm++2EmrDMkGBj9QCGnl6U5ORuOI62tVSfuOHDmApy1huNWJ5aBgrfAjChK/3xw/u0X0NvWwwhy2DlEISHyDCZCR68tSH/MjD2x8DMv55Z/nx42v4LRjJCSgKEpugfAIwefVnjiz++FPi2qxHL08+++EUbQvytrvRTM5MoZNN6b4whsKQ9DtPg23wwHiMN3aCqWbp6XwFGPwNM/9/KDF9CIaWQNgfCAkJ6FtF3y0mMjx7RdeZ5E/hq0LPfatRyZUn5BUeITwHQEp4ZO7Ifa7ZcqvfFyDIw0NmCiXQBZcdlZeHbSszQs2CzQOMuBK0UUNwJpL6hYbcO4ish9dWz6tuTak5CSysSqIGZsZ2QUuoq11+94ePBnf17YuiiIdnx+OeOAvi6rvRTU+PIZ1L6nw/LwNKuFrTHw9wUwr8GyCyohsKOSlfv5F9T/kjthdR3AckmjpBq7P4dPvKStrSlgX9qhMehoQeZCSUe1pn+8IGdtbkOAXQlolja1YpoiOPN/AeXa5kX5WPA+MPA5F/NiR+79AhpWiE1Wua2fvP++baL45ieGtP1up9MTwZ38eemEcDdjz/wBIA9utLPplNITtQughG2DAx0taC/I46wRRH0TwVOATwrTgqY+TIw9lmgtL8ZWlBCKKTn+oRXaBPSyeFXoZSeZ1ECXw7q3r+nYjV+URZ/BqjP6jrA8IFdaO9ZAsOoXVbGIhaWRSwUyg5m82UuF9OwnLgeYBCfvjIw+11g9juAspusBfVbOSLEZ2UytFzT4yRx9MCLOp/uLzXKXWh0AYQdCf+fUKn0PwG0a0m/XMLY0UNYunp9za8tFrYQC1soOxK5oo1ssQzHZTSqcRrZoAqgBDJPAelvAjLPokEhpZCSkwn1AkZUS9LZ5D5k9a3ScewnU/hRo9yGhl9o7uAjf5iGwkM6jzFx7AAK+fpNCApbBjpbI1jR04pl3a3oTkTRGg0hbJkwDcHJIzVpYAU/EJUu3tHPAMl/p/yRszwv7LJvasIrtSU9cvgFfSVX4J+2bWucQd9WM5Q1YdkPKDd0L4CElkIhJY7sfhkbL74Sos62FbYMhK2wB8ECVozzzjJV67zyodG7KSD1OJD7KcsOCaCQ+qrFavAGOQyE+rQkLZ0Mho/t0Xn2/9RIt6IptprY/ZWHpyHEF3Qeo5BJY+zoQdalTdl8yJof0T8fG5j9NjDyv4Dcc5Q/Qhrq+dbwPEdWa1OPqdFX4bra1szdffPH8FIjlTSraR4pafyxEO7HALTqOsbYkb1o6+pBS6IdhCz+TVn4eyHo4l5g5hHAHmUEhZCGFlKvMIDwKm3nefTA8zoz4h8b7c42zWazex//kykBfFHvc6JweNfLcFzOym2u+rHJxgC66cpafuOf96H8NUEEhZCgEh7QNvkjlzqEVHJSW6UijMaZ/dt0AggAphP6IwBaR6aXC1kc3vkyFCv+JhNAHfhw397sc8Dw7wG5l+g3FFJCqiOyRlvSxw49p/PMf3DjR9FwY7yaSgB3/McfjSngM7qPk5kZx/ChfXzYSeNgTwJjnwem/u6Ns3vpNxRS3jByzghMJ2B2aUnaKacwclTfzlxK4a8b8ZZYzVYG8xHxmZayej8UVuk8zuTRA4i1JtDdO8AHv+Gb0+NdwF7jg3UAlVtZyDn1teAs5sxJnQEUUt6whieqb63csaMvQEpt5ShdCuPfG/GWGM1WBoceeaCglPh/alGpHdv1MtLJaT74TUEDjvUrD82t6feVJtvJQ4PfMODGG9bMN8xMaFv6RSkHRzRO/hDAP9zxYTTkoqZGMz7eex974J8BPKW9GlESh3b8DLPpJOvUhqbBdl9RdmV278jvA+UjNAz6Df2GN2xxNyy6Aboiq8nxXSjkMzoF8G8atWRZzfpIuTA+YUI+r1uClevg4KvPYd0FlyPR1sm6rCHrZ92TQGqIPQRM/jVQHl5kg+Un2KXne79hcWncG2a0AqEBbTf60F6tO7O98LaP44VGvZNGsxbh/Y/96YuA+NuaPC6ui0OvPI/Z9Azrjob0v0YIY7hA6jFg5HcXKX9+bbAY8iIsLnUhtlmbVc9OH0ByekTn2f9VIxd1o5mfczsS/iSAozVpXl0bB15+FpOjx1jBNmKLEeThfvYoMPq/5yZ6SN7OpjMMSimLi6aiYvUAoX5tWXNoj9aRXBlbNt7izxTAOQ4+8odpJeUHalYDKoWhva9i+MBurhPYcATR/ABkfgSM/B5QOsJbSMugkBIPi4oAopu1nUZ+dgyT4wd1Xubf3n4vZimADczer33+OwD+vJbHnBg6iEM7XoBjl1iZNEJ9qC1qplH+nGlg9I+Bqb8HVJk3kVBIKaPeEh0ErA5tyR/e+wOtBdAy8IVGv0UWSylgRcq/7pTCNwNYV6tjpqfGsWs2jZWbtqK9s4c3oWYIDTV6wNYBzP0MmPo/b1zQmRByhufbV3VYABrVLiC6UVvyhcwURo7t0HkF33rrR7Gn0Uu2wYcb2PHIF7JKiPejxut5OOUiDr7yUxzd8wocm1GY4LYPAYkSKAeY+Sdg4mFA5sAoCiFBFVIfR0iNGNByCSD06cWBPd/VbUYPNUNJogDOsferDzwF4PfqcezpsWHsfO6HGD92ENJ1eTMYIfAeexQY+V9A+gk2WhRSQvQ822YCSFxVkUBNz24mOYyxY9t1XtCBpyfwjWa4c+wCPoE9l3Rs2/hC6kIAd9b62K5jY+TgHkwOHcbAqnXo7FsKwwzxpgSi/vN5F3D2x5U9fDnWz8fSzsXnSMCJrK4s+SL0aYVSwP6d39V9JQ9t24amWA6BEcAT2bZNurb7y1DYVa9TsMslHN23Ezue+T6G9u1EMTvLiEWzIsTiPqoETH4RmPxLyl8ghJQRUhJAzHag9UogfoFW+QOA1NRhTE/s03mIaUs09tp/J8II4Cns/8aDs+e94967pDCeA9BRr/NwHAeTI0cwOXIELa1t6FzSj0RXLyItCQhGC3yFVBK+iwCWjlTG+tnjvEFkgULqq7ch3hLfiV9HZYu3cH9NDielwt4deoewCIHP3fAxZCmATcyur31+38Y7738voL4GwKz3+eSys8hlZ4GDexEKRdDa2Y1ERydiLW2IxlthWLyN9W0rlaYGa4ECmPkxMPk3/on6se0mFNLGQIQrCztHVmtd4uV0jB59BZnkkNamFqrxl36hAM6DPY898M2Nd97/SUB91k/nZdslJCdGkJx4ffubcDiKcLwF0VgMZigCywrBsEIwLQuGEDBMAzDm6bFKR4WrFvSrrnSavMGqsjtOSWDmXys7evipwVpIVlidgBFn20189Eg7Z9gpRwLKPX3BV/aZ0zotzgJ349FVqA3AbJ3b0aOv8q+o/QNUKuSxd/s3dR/mCzd+HNMUQHJcAj+36c77LQX1x34+z3K5iHK5iGyK96w++KAL2EkC4w8CxX0ahbSGFhZZC4SXN0fxoZCS+bzcnUkazyqZp3vu3bOI7PFjmBXxM+Jal3OZL/t3PgnX1rpuaUkpfLbZihUF8BzsfuyBP9l0x/1tSqj/wdxogHo0cGYwDzso7gbGHgLcVAPdiVpPRhAslBRSH1cFRqX79bSEG/rSZyaPYfToC7rL/N/e/HGMNFux4izg+Ujg4w/8thLq95kTDVCPNloLPvs9YOQPAiZ/fhVSzsJlVhA/Ydtl7Hrxq7oLQlECTdm+UwDnyd6vfu63AHyGORH8Zl6vXtboo8rA+MPA5F+fYfwRoZBSSCmkAX4ClMKel7+BQm5S73EEPn/Lx3CMAkjOyp7HPvv/MBJITldR6es3O438uSlg+PeA7E+Y+YQWxqxoSMaObcfYsRd0HyYlS/jDZn2qKYBVPvp7v/q531IQ7wVQYHaQ19sEpSHQJ974vfIxYOiVg/5DAAA280lEQVR/AKUDzHRCIaWFNWRW5DJT2PXiY/rzTuAPb/01zFAAybzZ+9gD/ywk3qYArrJLatcA5F4Chn8bcKYYNiCEQtqQQuqUinjluX+BlNrXMR0pWvh8M5daCuAC2f21z/5EWu5lAupF5kaz1/3qtddJbz8npJn6JjD6R4D0KvCswEaLEAqpn55t6Tp45adfRm52QnsOCeB/3vFh5Ju5lFAAF8H+f39wyLHl9QAeY240O7ome7jA+J8BU38HNPz+5BRCQppVSBUk9rz8VcxM1mR4yyvmFP6m2e8KBXCxEviNB2f3PPbZu5RQ/wVAjjnSrJWbBmQRGPk9IPMDZjEhpKE5uPPbGD76Si0OJQ2JX71hG5xmz3MKoEfs/ern/t4V7uUAnmdukEXjpoGpvwUKO5kXhJCG5tDuJ3Fob41WNVD487fdi+eY6xRAT9n/1Qd37rmk480C4sMAMsyR5kB5PQbQmQSSjwJOiplLCGnguhM4uOvbOLD7R7U65Ljl4LeY8xRAPWzbJnc/9sAXDcfcCuBfmSFNUY151wtsDwHJxzyc7EEIIT6sNaWLva88joN7flyzYwqBT95wP/hmPQf3AtbErv/4kyMA7t7wzvsvF1L9KYCrmCvkrBR2A5nvn7xRu9I0vlDM+5uEEOIpdrmAHT/7N0yN76/lYb9z48fwj8x9CmDN2PvoA88BuGbDHffdJQR+C8BlzJUGRIjKZ6Fknweyz6Fms1/VvL9Zg7zz0bkQQrSSSY/hlee+jEKudusvCyCpXHyAuU8BrAdq7+OffRTAoxvvvP9WQP46IK4HQy6NZoELKBkSyPwQyG/3Jr1APh1n+J5SPruNfFwJWShSSgwf/hn2bv8WlKztBFyp8OGbP4GjvAsUwLqy57EHvgngm4N33bPZUuZHFfDLANqYM834WuAC6SeA4n7mhd+F9Ow/oJASchZm05PY/fLXMDtzpPaPs8Bf3/xxPMK7QAH0Dfu/+uBOAB9fff22T0Xb0zcphV8G1F0AwsydhrKGM7ySloHU14DyyEJafsKiRSElviefz+HI/p9g5NBPoJRbj1PYq/L4BO8EBdCXHP7+tiKAxwE8vuXu+7vcMm5VSt0O4BYAPcyhBkQWgeTjgM2tpAmFlELaYMVDKWQyKQwfeh6jR5+HdEv1OpWyNPCLt3yaGzRQAAPAjkcemAHwJQBfwt13mxtLyy+GUlfDEFdDyasA0c9c8mutJ+fXAMoCkPwqYE/No8FiA0ZI4IT0jI9uYz/PhUIRyemjGDn6EtKTe+oV8Tvx9n/qlo/iZ3xAKIDB45FH3D2VXUWeB/BZANhy+6f7pVXe6kJsFRCbAbUGwCoAK8CuY//j5ivy50zPs8Gq9564FFBCvJPSxhFSpRRKJRv5fBrpmWOYGt+PbPIwXCfvl/x/6KZ78CALIgWwYdjxH380BmAMwBMn/WDbNmPLc7klynS6bSG7hRJdQqBFQLTMVTsxKBllDgLXrXzxlwFs0VHfn7U6dTPAzKOVLd7mXWnXW8CUz46/+Pw4uvcbKBVf7xEyhIBpnns9fGGE5nV8YQgYxjzSgwEI85y/Z5gGjHmVAzF3jmfHNIx5Z6MQ4XNKhWVWsZeAsODp3gPCgJhHHlaF4fV7tAUhvL3mSj56KYenLzeuUwag4Dhl2OU8HLuAQj6NXC6JXGYKpfwUpOPDBesVvp7sw31s7SiAzcG2bXJHRQzHmBln5+GHcJXSIIBnbVOdZCXy52Z5A+ospKPD+5GZnWFWEtKYVcR2hPFL73kPXGYGBZCQUxVC6UlXnV4C7am5rd0W0jXCLlhCCJknI9LA7bd8GGlmBQWQkDM4YI1StScqkT9ZYq4TQog+Uq7E7bfei2PMCgogIfXltcjfYuSPEUBCCDkHaUPilpvuxcvMiuowmAWkqRA1mNlgTwHJRyvr/S3yZAkhhJxV/m5+2714jllRPYwAEuIJymP5O56m8tE1UkgJIb5hHBK3ve1evMisoAASUl/s5Fy3b9GjBP0mXKpBj0UICRiHlItbbv4E9jErKICEzE+pFJQWtXCTQPobC5zt60MPYrCPEOJDFPBjw8HP3XQfuJcmBZAQHzD9bxpG1NbRwvy2BjQhhC/wAv9gxfGrN7wfReYGBZCQ6rzijAv2LTJdmQWMVmYwIYR4T0Ep/NpNH8efMysogIQQQghp+Ld2bJcW3nvLR7CdmeEtXAaGNBe6loFREq/P2vXqI075f0IIaRpcKDzQYuNyyp8eGAEkJECvwn6zaUII0cArEvjQLffgWWaFPhgBJM2mUJoigKo5c9NXH0JIwJlWCvdZU7j0lo9T/nTDCCAhfkUwwla9kHrxO4SQGlOCwIMlgd9/x0eRZHZQAAkhhBDSuGQV8DchiT+64V4MMTsogIRowxBQenprdSTKCCAhpCE5JIC/LBr4c0b8KICEBBstUkkBJIQ0DEUAX4fCXz49jSe2bYNkllAACamdpyldg8CkBgucz+QGSiIhxLdkFfBNA/i3aAxfv/qDyDBLKICENJpaakhT1Om4us+ZENKg5CDwAoDvAPhOp4VnL/swbGYLBZAQP/iJCs5E0CDKlPIwHdWkeUiI78kCOCiAAwrYrxReMRRemOnHnve8By6zhwJICCG+EtI1a89Hucx95P2IlNKz5TSVUnDk/BJTrsTRIzugpOP1+9uLSuFfAvqi7Biq0l2rgJRSKJoGppTCVNHAJCduUAAJISd6hueRRfF6mgxkecKSVdcxE04tY02O40oMDR2AK7Ne1wnbb/44/pBljFAACfGDpykoLU2e0NyvzKF+hAWLEEIBJMR/ZklvqOMx6A0sWA0jwYRQAAlp8oZLLCBdwez3AxRSlh1CKICE+KhJVnoaZ+WbCCBNiLeBt4EQQgEkzSx7Z/43YJdBEyIU0sBVQoLaTSiAhNRb+F77V1MAkKJDSFAfFz66hAJISKCEb97Sd+K/SkHTe7nSc5WEEEIIBZA0qeyd6995S6CUgGkEJYpAAySEEEIBJBS+aqJ9Z44AakFC2wwTQohG9PQBz9U1xikHYYczoQAScor0VSt8i5HBADUmyoOsJYTUGlkRQBMn7xN04r+UQUIBJE0pfNWKn1cy2GRw+ichdXnyXo8Ank76zvY9QiiApCGF73TSVq3cLbgLWCoYei5Racy2ZhTSWgZIKKWkZgJ4Nvk70+8RQgEkgZO+hYifXhlUeipV1tTNIKWUUVI1xjmkb74iyCqGUABJoKSvGnmrSVew1DYJRGnMUtb9lFEKaeDu5PzHAFb7c1YIhAJIfNM6eC172mRQqSBmMet7QiENmpDOYwygl1JICAWQ+EL6Fip7ixG/ecmgtmVglNRTDasq7wohFFK/nOnZxgB6GQmkDBIKIPGl9NUjCnjmLmCNr/vacn4+aauF3M4alBhCmlVV37gOoNeiRxkkFEASSOmriwzqWwiaURRPhdTrkU6866Q+GHWQPsogoQCSmkifzm5gr6OAQls1yOrV48xTjX1/KKSNX6rPPAlER/cvZZBQAMmCm6OFRu5qFfnzRAZVIGcBk6ZwXgppQyElDLw+BlB39+9i/oZQAEmTSt9ixS5QXcLB6wJu0pa5PAS4s3xKWSZPJrwUsDqDlFnznQVcKwE8vmE5l5YhFMAmrbmrFbl6CqCnS8ro6wGWLF2eCuAogFHmAzlFp1oAMxgCWOUyMDoF8GzSd6afEQogaSDxO5e4BSEa6JUYatNA7yMo7JsjxB/PbdWp6hbAc0Xz1AJ+dro0CQWQBFD6Fip4QYgGLkgG9S0EXU0EUFX5u6pGRYUQ4pkAqpoI4ELk8NSfnet39VkyoQASz1vzagWvFnIIj/5+UTI4NzA7QHdT1KDq5YwEQjQK4GJlbqECWI0QViuIhAJIfCh+QvP/ey2DNZ1FzJF6gWg6KaSkUfBaABcynm8hkjef/ycUQOIj8dMtf0GcRHLq97S97lM+KKQUUnJCleBVBHAx0ic0/z9FkAJI6tQCnE3Uai2DwVhSRlN1pVgPEgopOfkunUsAazGJQ8f/4wzfYyVIASQ1Fj9d8reYcYG+nUTCreAICbKQzifo5KtH/FwCuBA5rFbaTv1bryJ/Z+oSpghSAIlPxM8L+QvKJJI6CqBcRL0nGF0hJJBCepazUPOKAM73Z9WO7zuXMHoZ+aMIUgBJDcVvoRLnh65jnTJYv2VgFjW7RC3y57qKHSHEYwH00yQOL6XvXGkTCiBZpPhRBhcvgMHaC9jL6lPU+VoopMEjshpofTMQ3wxE1gDhAcBsB4w4IPOALADONFA6DBQPANmfArmXAFWmAJ68DqBfJnEA+qQPp/k9P1csFEBmQWDFb74y6JXoNcQkEm01kAjALODAeh2FtLbStxLovAvougsILz/z75ltlU+oD4htfv37sgjMfheYeQzIPAUot5nr9HMtBO1n6atm3B+7himAZJGtildj/LwWvaDMKK5jBJBQSAMupLHzgL7/BnTcBCxmvXQjCnTcXvmUjgITXwRmHgWU04zyZ6A+M3XnK28LjQZWI32cMUwBJPMUP68Fzw8yWKtJJOf8Pamr2tEWAKSvUkg1n7jZBvTfA/S+b3HidzoiK4EVvwss+VVg6H8CmR83owR6MYlD56QNHdIHnL4rmOsIUgDJAoWtljLo167jxf0saGMAGbCkkOokcSWw+o8Aq0fvcSKrgHV/DUz9IzD8h4sYI7gQZxD1un3iFAEE6jNpY6HRwMVK33zGBXKiCAWw6cRPp/RRBs/+M02VPesvEjD6PwoM3APUbHtsAfS8D4hfBBz8CGBPNJBJn+ao6g0CWM/xe16I3GKkbz7fr9/NogCSGsnffKSsEWXQF+MGlS4JVDrrLeWDYksaqhpa9pvAkv9Sn8PHzwc2/DOw/wOV2cPNUef7afye36TvdF3jhALYcJWAl8JXa+kL0vIyDbQTiB9Ol7NwG4qVvwN0v6e+5xBeBqz/e2DvLwDlkYbM5rMsA+OHrlxo+t35dvEu5G8IBTCw8rdYqWvmruNz/c28/17fJBDWVRTSADDwifrL33FCfZVxgXt/AXDTjVhKT+0CboSuXJ1yd7qfsWKlAAZa/M4mdPWOCjbjOMImkRLSvEJ6Biltuw7o/4i/TjO6tjIJ5cCHG/UZOtcYwCBIX62iffOVQkIBDIT8zVfaahkVbOpxhEqycJImlNLQEmDVZ+DLaGXbdZUlaCb/b2PdAXVSPRRk6fNC7qoVO0YDKYCBFL/FiJ4OEfRSEnWJo1eCeM7/1zYJRFfdxHUAiRcs+++A1eHf8xu4H0h9C7DH6/Oc6eNMYwB1Sd+Z5MkvcrcQ8Qt8IaAANof8eSV6i5E9dh3XYRkYQGqql05sKwhZAIkrgM7b/X2OZguw9FPAkU/X4eDa9vE+3TqAtZi0Ue34PS+EULf4caYwBTAw8jdfUWuUiGFgZDC4s4A58YEskP57gnGene8Axh5utKVh5tsFjEUKopddvAuN9umK+Ikz/JwSSAH0rfx5KXl+E0G/yuC5xwDqetlXzbYTCIU0ELRcArS+KSA1qQn0/Vfg6P/bEFl/yizgeklfNQLn1c8WK3bVpEEJpADWVfy8ksBaiKIOiazH9xcsg1ojgMHYoapBoZCelu67g3UbO+8Ahn4PkIXgl8jT7wRSjcjBo+/XsivXK7ET83yoOUuYAlg3+auHBOruNm6EdQrP+D0poWUesFKuJmcJ165qo5A2lpAaMaDj1mBlmxED2t8GJL92hl8wNd0r7++XqtQ1okrpq1e0r5qf6xa7auXPr2+BFMAmkL96SWAQRbDuXce2hKujUCjX1vSEdgD2GINopHpaL69MrggabdedWQCNiOeHkwpQ0vtqwZYoY3ERQL/MvPWiu1e3/FECKYB1kz+vBdBvXcuAf2ckV/W7jg1HR8GQblnTE9rOIBqFdGEkrgjmfU+85cw332zzvGAoKaGU99WCXalr5hMBPJtE+WnmrQ5ha4aagwLY4PJXjbD5VQKbouu47OiJANp2UU+pM9vPUrcTCulZiF8UzHwOLQHCA0B59I3PghH1/HCO40BJ7wXQkbDxxlnA85U7v8681Sl/XkoiJZACWDP50yWAfpTAQC9Nkysgr6OAlMu6BDBRmR35hjGGDI9RSM/x8+ja4F5bZM0bBTCySsuh7HJWS7rFIvI4eRZwtXLnZ7HzY+SPEkgB9L381VsWvbqmxR5roekvShJTGeS0VPaFjL7iZ3UB9iTDYxTS6l4crK7gnn94FaB+fMLtDAOR1dUVs3kWgVJRjwDOZJA6pf6pV1eul79Tb6k7scIR8/w9QgEMpPw1Q9cyULulacREClpMLZtNorIbiKHhKe0JgABSSH0lpGZbwFumU8a+xs+rSKCGIpDLTGu5hIkkUnjjTiBeit98ZUwgGCJU7ZZHlEAKYN3krxpJXKj8NVPXsg4RfMPPxqb0RADz+RLgZvU0vOEBoLCLTySFtAoBjAc7u4wTZi+HeoHooLZDZTNTWtIdncTsWQRlsUuueC1/fpHEhUjgfN6wKIEUQE/kbyHiJ2r0N40gi7p+DgDilf2YUQpSCG9DddlCGcpOQ+gQQKsbMOKAzPPJJE1UBaOyLmDrm6ErgiqVQjo5okVkXtmHqdOceK26c/0idQvZyHyhf3MuEaQEnvqexSyYl/zNVw69/jvdglmPjzGPnxsafm4AMHIFyFwBSc8bEqmQz83oK5XRNXwyyfxxA/6yILOACAFtV2mZ+XucfKGIcsH74RWFMmZGplCsot6aT93ol0+t2jMdf0cogOeUPyyiAIo6/Z0fZNHw8Pe0ieJsFlr6fJIzQzh5nLeHn+i6ymzgs/4eIccFMBPs85cFoP16wOzQeph0cghKeb85UCqDYY/rO92SWIs2pF7t6bnadwog8UT4avmmE/RI4XwrRc9FcDwJLVtrTE0cBvQsM1gZAB/beI5fUj76kPoKYBpwUsE9f6tzbg1MvYyP7tGS7nQKw/Osv/wU+atFZM+r6J4X7TQFkFlQdWHyWhhr/be1+Jt6yeK8RPHAEIZ0FKCZVBayrHG2bmxTTRpFb1CgkNaZ0sEAC2xO+yGKpRLSU3ry6MAxHAmg0C02slfPv/WiHacAUv7OWUBqWUjr+YAFMbo4L1F8ca8eAZRKITl5WO/jmngzIDh3i0I6D3IvB1T+soCT1H6YyYmDcB09YyW/9wL2ofnG39VT6BbSblMAmQWeiZ7OAlyPhzCIkcJ5SeDzuzBjO9CydcfoyF69pdJsn9vjlfUXhfQcn8wzAY1cHtB+CKkUho+8pCXtbAGTOw4i7cPIXqMInVdtMwWQWeBpIfJL4aYwnuUjJTAyiUM6CtP4xBjswoTeEhsaAFovY71GzmEiP6lMpgga+T3QHSWdmRlDNnVES9pjU1VH/4IqdH4Kkuhq0ymATSR/tYoKel3wG10YPZfF3UewX0tcRymMDdWg6y2yGmi9AlAGh9GR0+PmgPSTAQuMloH8dq1RUgWJI/t/rO0SXt6HVxchIkESOt3tmq5oHyWQAliTN5F6PwyNIoyeRwGffgnaRsgfOvgqpFPSb2SRZUD7NYARro2xcV5H8Jh6JFjnm3u1IoEamZ4aQXJSy/sfpITzlR9gJ+o/oaJRhK5e7TYFsEllj8IYXGGc9988uxOT2QJSOgpW2bYxOba9NqU41Au03whYXc1nbBTSc5N5Gsi/EpTwHzD7Q61HkEph/87vartho1PYPT6NEoXOt0JHKaQA+q7wURi9+fuqxgHuOowdugrRvt0/gXTt2pRYMw603wDE1vu8LqOQ1uXyRh8KRs2bfxWwx7UeYujwz5CdHdGW/kt78SKFLvBtKgWwCSWvFsLoh7QpjHN8/3l9Algs5jBy9Gc1LNEG0HJRRQTNBGs2Cunryaa+A6S/5/NbUQaS39B6iEJuGvt3fl9b+o6L0j9886wC2ChCF8R2T6cDUACbLPLXLNHFeldGumaNCQDiyZ9iOFtAWlsUcM9PUC7laluKQ91Ax01z0UA+3hTSuc+x3wGkj/cHTj2pde0/KSW2v/R1SOVqO8bBYbw4lUJJU50XpHq+XlE6RgIpgPMqJEGQRT+9ZdWzItEmjFICL+zGi7oKmuvY2L/nqTqUcLMSDey4CQj1s5YjQOkIcOQ3/XluxQPA7FPQGSE9su8ppJOjWi/jW8/gmTrVb/WQrkZoA3W4QaAwm1QA/bpWHRroOAhCumMzSN5+Ja4QQs/Dn0mPI9E+gJbWzjq83kWA6CrA7ADclPbZlcTnFPYCoR6g5QL/nJMzA4z/DaBK2g4xM7YDO7fr7QJPZTD8+/8HX1P6JgPVQk5qJUC1Fi1G/M7URDALFi2L9ZDTWkuw7mPU7c127xHMHhmD1q0Hdrz0dZSKufqV4sgyoOMWIPEWwGzlU93MHNsGJL/pj3OReWDibwCZ1XaIfGYEL7+o/3q/8xyelNIX9WM96vpat1/1bKMbCkYAGy+6xwhmlR/DRP7yzdAWFpHSQTaTRP+yTRCiTvWREIDVBkTXAWYMcFKAsn3wKJLaooDUE5UxotHB+p2GOwuM/5XWWb92MYXnf/IvsG29ke9cAdO/9Wf4sisb9sERrBwogM0gf/UUxHoev5Hl9JzH2XMYqduvxKZ4FNrCY4X8DEwrjo6ugTo/AaKyZmB0sCKEMgfIImvCpmpzXCD1zUo5qEd3sD1ekT9nUt8VltP42U/+Bfl8VvvlfOen+PqPXsZRSlZgHjTKJQUwOHvX+uQcGlpO21pgbx3EJp2FLzl9GPFEH1oTXT54EgRgtVciglZPZXygm2ON2DRCqipLw5QOA+3XAiJUm0vKvQhM/J3Wbl+nlMYLz/wzMtm09suZzWHyv38B/+K4kBQ7XwkWJY8C6KkA+l0OmzmCuehjbz+IqbdfhfNiEcR1NrqT4/vR2bMWsZiPxuKZrUBkFRBdC4gI4GZ90D1MakJhNzD970B42dzSQbpCcmlg5jEg/QQAfUuxOKU0Xnj2XzCbSdck+/7te/jXn+7EGAWPkkcBbF4B9LsYMoJ5juNLCYRDKFy0AedpLYFKYmriEHr6NiEcDvvs6QhVtpaLDgJWBwAHcPPgxrsNjswCya9XonORFUB4qbdpp54Epr4MlIe0XoZdnMELz/wLMjWSv8kkjvz2F/G4Up4/IIygUfQogA0ggJTCAJ3LjoOYuvUKrG+JQWt4TrolTI7tQ/eSQYTDUR8+JXMTRiKrKjJotgHKqYwXJI3L/9/enQbJcdZnAH/mvvaY1V5aaXV4V6d1+wBjGxwT4jhQgQSqqBCokFSKBFKVBCiqkg+kUglJ5QsEiiJUBQgFJg4Ex3YZgxPbYOMLyZJ131pJq9Xex8zOzuzcVz60LGxJuzvT/fbbb3c/T9WWdufYac1Mv/Pbf/f/fUtj2nx8pTFteUF/F+Dx6/krBygMa/BLPA4UL5ta9QOAYnYChw/8GIvZRSlPVa2O2td/iO8NTyBNYBF7BKB98KcSerg9Cm1LvQ5POofEvbux2+xm3WqlgJmpS+joGkQoGLJouGzgzh6fVg0Mb9RA6ItqH+a1PEdPR4yKAa3qF70daLlLe53rZSB/Fki/DBQvXptDsqgtN+gJa38g3FjlK45ph5MzrwDJp4DMfqA8AcD81thMcgiHDjyBQrEo7Wk7ch6vfOcpvEFgcXvsjiI3V/+IL27PTV9f+zw+uGMAt8t4UwbD7dh790fR1ha3195UKwKlCa1aVJ7VKoQyQMoI+LM/BgTWaId6A90a7JpFI/xapa9ubQf59OgbOHXiRdTr8k5TyBaQ+tMv4cuJBRSw9JIlqi0yze1pfntYAXQ4AIkuQvCmr7MjmHj4Huz1+czfP6qVIqanLqI13o9o1EaTNHv8gL9DqwpGtgDBHsAbuXaouKDWXu92kHoCGvYim4HYPiC6Ewj2ac0/ukrdNQCVa1/WpF4r4dLpZ3Dh/CHpD/2tJ/DI0QuYZTWLFT8CkAAkAB22TQsZlGMR5HYMYLOMN2atWsT0xFn4Q3G0tXVaN1m07j3Lq2Ei2KtNKxMe0Jaf8/i16WXqFTAyQeoFAp3a6xDdCcTuAMLrtXn/vEHbP4WF3ByOv/5jTE1flf7Yh07jpW8+joOEBEMA2h+AxF9jS+i4bpuOnMPMO3egqyuOLkklDSRmhlCqAKs618HrsfHniSegnTcY6gciW4HQem3OQU9AO5eMIBT8fPsBfzcQ2qidyxe7Q8NfoBvwRhUAqbhMj53A0YNPIp+X35CUSGH8c1/Dj5aY80/Fw4aqbhO3hwC0DICNVAXdDC0ovD1St+nwWVx96F24PRhASNabNJMaxUJqFh1dGxHw+52x53lDWvXpbSDs0C6v17UqIdPE8xkBAj0a8mK7gJa9QPg2DXy+WPPn9Kk2St8i5eICzhz7CS5ffAP1ek36ZhXLyP39t/AfE3NYSZ4qnkem6vYQygSgEpVA16BG4W1R5fW6nmwBlWQa0/fuxk6PR165o5BLYnL8LMKxbsRa4s47tuQNaQAMrgUim7RzCAM9gK9V6zquV1klfOtzFejR0BzZCsT2ANEd2s+BLg2DDj76WK/XMDt+GEcP/gTpdNKyzfjeT/BfLxzGqEF8qQAxlYCqGpZd1QACaK1cjPlvqgb/zpW+HVZsi9XbsdLO/bbteP51jN23G2/ctwd3y3ySKqUMTh1+DMn1d2LztvsRCMjYVS2ChCcABFdrX2+mVgQq89oKEpV5oJLSVihBzZmjhMenzbfoa9MOl/vatMPo3ijcmtziFM6eeA7z89OWbscLh/Dsf/8C503Gj1XwUAmoruzEtXTYceH/lyttcDm4pr5CAfi//UV8rK8Tq61400ZaunH7rofRsarX5cNTTVuvuJq54WvxWuex4p8XHp8GOl8M8Ma0f99Eny8G9hFoqZbSuHLxVVy5chp1i1/Sk5dw8PNfxZNQZxoTKx/bTdtAABKABJYijw2rH29NN2Jf/wL+sD2GuCVvXI8Xq/t3Y3Dr/QiHwmBuUTyo5bWl62pvfuU1GNaK2nmGtdK1JpSq2OHS4wc8QcAb1g7ZesPalyd07edr2PNG+DIt9wpWC5gZP4Tz5w+jVLJ+LeqRaVz4i3/BI6UKqjaDEoFKABKAOgFoNfLgoseFnR7rji3o+sfP4GMhiU0hN8YXiGLL9gfQ178DXhaM9EpDW+2iXgVQvfZzVasw1iva+O8JLDGCBK59+bWK3lK34/Dd+MtRqyAxdQznzx1APq/GCjNTCYz89VfwvWQaRYeiyY04bebxXRE3rgVsdpVQT6ODmY8PyY8rqyJrZvX3lplMIJ9MY/qdO7Hd67Hm07deK2Nu+iISMyOItXQhHGkl6Jp+J3g1wHmD1yp0EW2JO19Ma0R585Dsrb68Ee1+bwKQ0Y/SegnzM8dw8sjTGLl6AZWKGo0/k3O48tl/xfebxJ/B8rX0ypRVlTCr8UX4uRiAZgHPisdWFXYq4lHYe+TiGNLBADK7BrHJyjdxsZjBxNhJpJJjiMS6EI60gGHsUfErIjVzHKeO/BTDV86jWFJnGqDJxNvwpyLi3ABFKw/TugqBBKB6VTtZsJMBZ7MeQ/TvbSpHz2N2bTc8A2uxzuo3cz6/gInRk8jnU2ht60YgwPMDGUXhV8lgZuwgTh75GUauXlQKfgAwNoPLf/UVPJLKoKQDdc3AQcb5aLLPeVMVigwBeEsMyIKWqodFCbrlf9+yefU4xlRBIAAspmcxNnIMxXwKsVgHAsEoRzdGiVQKk5i88iqOH30eE5OjKFeqym3j6DQufvYr+M90FiUDmHALGGVAURTe2PRBAFpeQVP1cQi6xn/HLRHY3YHq5nXYoEiNBZn0LEZHjmExNYpwpAXhSJwCYSx4K1aQXRjC8LnncerkrzA7N4NqVc05HC+N4fTnvoYfZXIorwAC0RCzKxidiEWeA0j8SUGd2VAl6HSCrsH7vy37T2KiPYbS1g3YqNLyvdlcGhNjZzA/dwmhUAiRaAc8dl4ijLGH+8pJzE0ewdkT/4uLF08hnclYPpffcpv76jG89DffwNPF0k0zjItAlBPBaCbijLxTOMULAWgaDJ1WpSPo9N/vphw8g8lwGNkdAxiAYnNzFApZTE1cwPjIMVTKGUSj7fD7o9buYYzT1IfswkVcHXoRp068jInJURSKZaU3uVpF5bFf4Mmv/hD763Uh88S5BYxOqC4ShgSgWlOMKAQ6Uc+lXUDnEXH7I+cw4wEWdg5iwOuBcqW2arWC1PwURkeOIZcZRzAQQCgSZ1WQINWZGsr5CUyOHMCZE8/h8uUzSC0soFZT/3M0V0D6y4/i+0+8iCEDoLEjGFd6cewGRk7uzOHPNARaOZkxFPxdsPD+kHAfiLjdA/uw5vMfxwejYcRUf/OHQkGsXbsZvWt2INbWD4CHiDkiL/95WynMIDFzEROjZ5FcSKl8ePeWmZ3H+N/9Ox69NIYMzJ/AWC/SREyYbPT+ZkzcLPJ3mfH/5HBDABJ0LgOdMPy9eZvBtWj7hz/H7/WuQo9ddoRYSxvW9W9Hd982hCLdhBhz/d1eKcwiMTOEifFzSCaTdv20rB88g/3//F08nytcb/ZoBg/NQoNgtBcYCUAikKCTfF8VUNcw7Jq5PhZB4J8+jYd2DmK73XaIllg7evsG0N07iJb2dTdUBjlkOD91lPIzSMwMYXpqCIlkwnaVvrcmX8LiD36KJx97ARcMAEM1LBKMYp9HAtDlzwFBJx90VqOuadg1c73XC3zhE3jX++7GvR6PPfe1SCSK1X2D6O4dRGt7PzzeEIcwJ5KvWkAmPYrEzCVMTV5CNpd3xP9raBRnvvQdPDWZQA7G14ZVAYsEo3gwEoBEIEFnQZXO0kO1Jl7/tuse2Ic1f/kHeH97DHE77yRerxddXavR1b0R8c71iLb0gecN2nVIraKUm0YqeRWJ2RFMz0ygUq065lUoV1B85jU8+43HcKhBODQCC6uxKLO66BYwcrRiTEeOSiAE3H2oVijuGrwOnXGEv/gneJ8dDwkvVx3s6d2Izq6NaIv3wx9s5Sii8BBfLiaQSl5FcnYEMzNXlVuKTVSuTOD8V3+En525jHkdGKhDHhSddB6iCuDT8/xwdGB0IdDOoLMb6lSF3bLou9XlH3sIWz/+MH4rFITjFu2NxVrR1bUO8Y61aF+1BsFwF0cUy1JDKZ9EOj2JVHIcidmryCxmHP0/zhWQ/tlr+Pm3nsTRBkCg9zq7VAtlVQrtCkaGAFwWgE4HnVNQZ0lFz8jlW9aj/W8/iYfX9WK9k3emlpY2dHWvR7xjDVpaVyMU64SHh4xNSb1eQT4zhXRqAvPJMczNjTu2wncTdeuoHjqD/V/+AX6ZWkRRIPZUqxiqgkUngJEhAJuqAhoBIcCpUpQ+T8/AfaDntl4vPH/0fuz48IP4jUgIUTfsWH6/Dx0dvYiv6kdbew9a2noRCMY54jSLvVoZhVwCi5kZZBamkErNIDU/i1q95rrnYjKBkW/+D54+cBLTBlFnJgStQKBq1UKZyGzk9WQIwKYRyPPv7As7GdW+pi/r7kDkCx/Hu+/Yhj1u3B/D4Rja4z1ob+9FrK0L0WgXwly3+Hoq5RwKuSRy2QQyC9NIzU9jIT2HWq3m6udlPoPZp36Jnz/6LM7ohJ0ZVUE7QtFt5yEyBKAQBKpa2VMVdSrCTxb6VrzNA/vQ92cfxm/3dNhn8miz4vX60NbWhdb2bsRiHYjEOhCJxBGKxOHzBZxX0UMdlWIW+UISuUwS2ewcMukE0gtzKJUKHInfkmweC88ewIvffgpHKxVUl/jQF4VBu0PQblg0+z4MASgcgU6eKkUF2FmJO1PRd+PPfj88n/oQ9j58D+6LRtRfSs6KBMMxtLasQktsFULRVoRCLQiFWhAMtyAYaoHPH1JuUKtWK6hU8igVF1HML6BYSCOXTSOfX0BucQG5fBq1WpUv7jIplpF/+Qhe/ubjOLCYQ7kJ+JmNQSshaAUCVaoWNrstDAFoSwSqWtUz+jv0/n5RILQcfTf8DACethiCn/4w7n7gDrwjGECIu2Az1cMAItE2BIMRBENhBAMR+INhBAJhBIIRBPxh+AIhAB74/QF44IXPHwQ8Hvh8wZurc/U6arXyr3+uVVCrVlGpFFGrllGrVVCplFCtFlGplFAuZlEs5lAs5FAo5VAsZFGtlPjC6EyhhNzrp3Dg209i//Q88lj6hH7RGBQJPiOQE4E8J1YLiT8C0NYIVBV1jplyxSL0Cfu5dxXCn/kI7rlnJ+7y+eDnbsi4JfkSFt84jUP/9jheS6RQwPLdnKphUC/ozKwmuvXQMkMASkOgVajjeXrqVvUaqvotd93WDYh/6vdx765B7PR64OOuyDg16SwSvziIV777NI4WSqg2ib1G8GYGEHl+oZpYZAhAqQgUDUCZ+LNrRc+R6LvV94P9aPvjD+Add2zD3mAAQe6OjFMyMYsrL7yBA48+izNLNHcY/dltGFQFilatnsIQgNIRKLtap2oDhhMO5ZqJvIbRd6vvV7Uj9ImHsec378Y90TBauEsydky5gtLZKzjxxIs48NpxTDWBNbtg0A0QtAKBjWwTQwBKRaBs/NkNflajTwYChVf9lvu+NYbAJz+APe/Zi7s62tDJ3ZKxQxYWMfurE3j9kWdwdO7X5/fpBZ8s/KmCQTtDUAYCGQJQOgJl4s+pFT1V0LfSfURU9ppF34rX378Paz70buzbNYhdbBhhVEu1hvLwBM4/tx+HnnoFl2o11HQirxnw6YGd2zFoBJFWH1pmCEBLnj8Zh2rtgjsRkFP5/D0RsNMLvZVuiw29aPnoQ9jzrl24ozWKOHdRxsLUp5O4+vopHH30/3A8mb6+Ti8MVPlEVgNlYtBMIDqxI7lZBDIEoBLVQJVgJwt3Tjt/T/rhXCPou9VlXi+8v/se3PbgPuzasgHbAn42jTBykkxj+sQQTjzxAo6dHcF8E6Az8j0xqN46yLKgyBCASiLQKA7NgJ/ZuLPqUK5M5CmJvqVu0xKF/3fuxeCDd2LXwFps83nBhXYZoUktYubURZx6Zj9OHDqNmSUqNHVYg0GzceiGQ8dWQhDEHwFoJwRaBT+rcGfXpg1LmzjQ5Hl+zaBvqev6exD9yHuxc98WbOvrxgavhxhkdFf6ps5exulnD+DU/lOYWgJZK4HN6mqgVZVA1TGoF3SyIMgQgLaqBqrUeSv7kK1dOnXNauIwE32NgPCW//Z2IvLQOzFw13Zs3dSPbZxbkFku9TpqM/MYPX0Z5547gFOHz2FuGdBZiUGrKoV2wKCsqqBZEGQIQNshUGZFT4WJlFU6lKtC1c8I9ISib6l/26IIfOB+bLp7B7YMrMWmWBht3IWZfAGZkSkMHTmP80+/gnNzqSUbORoFnWwYqnTeYKMga+R+Kk1kLes6hgB0RTXQKtwRfeIAqDz6lvt31yZ0vGcfNu0YwMDGPmwK+BHiruz8VKsoTyUxcuEqhvafxMWXjmC8VluxyqcyBlVtInEqBs2CIEMAurYaqDL6RAHPqU0cstDX6G2bvk1LFP6H3oENd27H5sG1GOyMo5djhzNSr6M2t4DxS2MYOngGQ88fwMhb1uDVAzyZGHRyE4kR0JmBQT14E4FEhgB0dDXQbBASffbq4hWJPT0IXPGy3k5EHrwTG3Zvxm239WFjZzv6PGwmsUuFrzKXwtiVKQyfvowrLx7Clakk8jd82NYN/OsEDFpZKbQzBkVWBRkC0NEIdGJVT8RKG2ZV9qyAnkro010BXGK8uP59Vxzh996Fjbu3YOOGXmzojmONz4cAd3XrU6ogNzmHkeFxDB89jysvHcFYtoDyCkgzikCzMSgThqo1kViFQVHoa+RyhgB0VTXQbehzStXPLugTWQFc8fugH957dqFv7xasG+xH/5purIu3oJvjjbmpVFFKLmBiIoHx4TGMHR/C6P5TmLlh2bWVgCcKf07BoMrnDToNgwwB6GoI8lCuOk0cstEnq8nDVPwtMa54uuII3bcH/ds3YO3aHqzu6UBfvA09Xg98HAKaT7mCYnIB4xNzGL80hrETQxg7dA6zlQqqt4Bcs9AzC4HNoNDuU8qogD/VMLjcbRkC0PWvA9FnXhOHaOjZCX1Nn+cnEn9LXRcJwrd3O3p23obVt/Whr7cLfR2t6G6JIM5zCrUUy8ilMpiem8fMVBLTw+OYOjOMmdPDSL2lsrcU3vQgUBb+ZGJQRhdxM2AjBm9+zzEEIF8PqH0o18mHc1WeuFnEeX2y8edZYazxLDUeRYLw7dqMVZvWo3t9D7p6OtC1Ko6ueBRdkQjaHFY1rOeLyGRySKQXMZ/MYH5uHsnhCcwePY+pkSks6gCeTAQagZ0ZGFSxi5gY5Hl+BCBjCwiajUAzQOgk9FnZ3GE5/la6zOuFZ6AfrQN9aF/difbeVejoaEVbeyvaW2OIR4KIBgOIhoKI+rzWNaLU66gVy8gWisgWSljM5pDOFpHN5JBNLGBhYhbJ4Ukkz17GfL54/bDtjR+My/2sAgLNqPa5GYNWLFNH+BGAjIsgKAOBdq/6mXWZKOyZMr2L6vhrdtxqjcHf14lYzypEV7Uh1tGCaCgIfyyCsNcLTySEsMcLbzSEsAfwhMMI3/g7KhWUK5XrXbMAgGwR+VIJ5VIZ5XQW+WIJ5XwJ5VQWuVwepYlZZEenkb02gfJSmGv0MlURqBd/RlDIKWXk44/wIwAZm0NQdBXPzk0cVq/WYUVzh1HwNXpen9n481g8rtUN3k4mAldCm5UVQJUwaGUXsZnVPxnVQ8KPAGQUhaDV6NN7WyehT4XmDj34M9zgoRODRvEnazyrG7hNo5frRaBe5FldATSCQqdj0I4dxgwByEiGoMrokw1Ao7e1C/qcgj87wM9sCBKBamJQFAydMPdgI9vDEICMxNfPDmvsGq3g6cWdqugzu7PXDfhTZfyq67zebQg0AjsVMdjI/ezcRNIM/hgCkFGgKqjqcmt27OK1Q2evqCYPO+HPI2Gs0/OhVncZAkXiTwQK7bzknOxqoCj8MQQgoyAERVb9iD41O3uN4E/opM4rXGf0Mj3jleixrS7otnVBl4lEoBHwmYk/IygkBs07FMwQgIxNXlunNXGouFqHyuf3iZ7ypdkqYKO3EYE/OzSBNFMNbLY6KGrKGJWni3EzBq1uImEIQMbGVUE7NXGIrO6JRJ/qzR0iDvWadQhYD/7c1ASiB30yEagXemYj0Cj4zICfSgA0ikGGAGRcWBU0ijkrq3t2Rp+VTR6y8Wek6mf3JpBGwac6AlXCn4oYlN1FLKL6xxCAjAuqglYDUCQQG72PLPTpaeYg/uTBzyP4A8/MbmC3IrAZtMnAoOwuYpkAZAhAxqXvAZWaOKxaos0Onb2yl3ZTCX8eC8Y4lbqBrUJgo6gThUAzgGcUg6ovOWcEgwwByDCO7eK1Y2evVU0edp/2xewxzcxuYBHoUxGBMvBnBIVOWGWkWQAyDAHILPveIPrUXrvXTPwZxZ5s/Mkey+oCbicLgaLgZzYCReOPGLz5e4YhABnLMGj0tnZGn8odvqrhz2Oj8UvFbmCrEKgXeGbjzw4YNAuGDEMAMlIxKPK2ZqDPbp29TsOfE7p/m4Wg7G5gIlCNjmGR2CP6GAKQUer9Y5fVOqxGn4pNHirhz0z4yVgKzigE7YrARjGnMv7siEGe08cQgIxtMGgX9JnZ1GFH/MlY7UO17l8RIBR1/l8jqGsGek5CoEjY2Q2DDEMAMsq+t+wwcbMqzR1Ox5+Mqp9KS8E1eluR5wC6BYF6oGjV9DGi4ccwBCBjy/eZ1ehTobNXtQ5fu8/5Z/UYZnU3cCMwtAsCm4GbaATqQaEsDDIMAcg46n3nFPTZeXoXFfFnF/iJhiAR2DjszMafVRgk+BgCkHHle9BJTR4irtOLv0ZRJ2OCZ9Hdv3YYs+oGb1MXeJnoZpCVMNYM7vQCTzb+zARfM384MAwByBCEcFZnr0jw6anumYE/leb8s2IpOKMQNKsRRC8CRSBPJPRUQSDBxxCADKMQCEXdRyYC7Yo/GYd8PTrfL2alLvj2dpkgWiYCzcKfSNgRfAwByDAKgFAEEEVh0Ez8iTyvz0lz/lk1jqnSDawSApsBoQwEGgGjERQyDAHIMAqAUBYCVcKfyAYPdv+Kw6Aq3cDN4K5Z+KmCQNH4I/gYApBhXIpCvbch/sThz41NIESgWvhjGAKQYVyEQqfjz+xmDxXg1+jvEPFBL6sbuBHUiYKeGxHIMAQgwxCFQq4zCkKV8WdG1c+q7l9RKKwbuF7FVUKMIFAP7vQCj9hjGAKQYYSgUOR1dsKfVRM+q9b9axSEVnQDNwJD1RAoEnrEHsMQgAxjGgxVONQr6/w/ESA0cp2q45eobmDVJ4gWBT9RCFwOeIQewxCADCNl/yH+Vh5XRFX9VB236oJuJ7rq5xYEMgxDADKMMvuWU/En8pCvE7p/9WBQ1Pl/jYDOSQhkGIYAZBhb73N2wJ/dp32xaik4KyBol2lhGv2eYRgCkGEIRJfhT5XuX1EgtKobWGUEMgxDADIMYxCIdsGf3bt/jYLQDt3AohDIMAwByDCMhfu1Hbp/mxmP3NoEYgR8ohHIMAwByDCMi7C43Ljh1u5f2RAUOUE0UccwHPwZhmF0jxlmNYGIHqdW+l0iQSQCgnVBlzMMwxCADMPYYuzxmPz7zcCc3vsSbgzDMAzDMAzDMAzDMAzDMAzDMAzDMAzDMAzDMAzDMAzDMAzDMAzDMAzDMAzDMAzDMAzDMAzDMAzDMAzDMAzDMAzDMAzDMAzDMAzDMAzDMAzDMAzDMAzDMAzDMAzDMAzDMAzDMAzDMAzDMAzDMAzDMAzDMOLz/8JPKHcCEDavAAAAJXRFWHRkYXRlOmNyZWF0ZQAyMDI0LTA3LTE4VDA0OjEyOjE3KzAwOjAw4nlxzgAAACV0RVh0ZGF0ZTptb2RpZnkAMjAyNC0wNy0xOFQwNDoxMjoxNyswMDowMJMkyXIAAAAASUVORK5CYII=;" vertex="1" parent="1">
          <mxGeometry x="460" y="90" width="50" height="50" as="geometry" />
        </mxCell>
        <mxCell id="CZolbAfWvqU23V3ubjtU-18" value="" style="edgeStyle=orthogonalEdgeStyle;rounded=0;sketch=1;hachureGap=4;jiggle=2;curveFitting=1;orthogonalLoop=1;jettySize=auto;html=1;fontFamily=Architects Daughter;fontSource=https%3A%2F%2Ffonts.googleapis.com%2Fcss%3Ffamily%3DArchitects%2BDaughter;" edge="1" parent="1" source="CZolbAfWvqU23V3ubjtU-13" target="CZolbAfWvqU23V3ubjtU-17">
          <mxGeometry relative="1" as="geometry" />
        </mxCell>
        <mxCell id="CZolbAfWvqU23V3ubjtU-13" value="" style="shape=image;verticalLabelPosition=bottom;labelBackgroundColor=default;verticalAlign=top;aspect=fixed;imageAspect=0;image=data:image/png,UklGRsAWAABXRUJQVlA4WAoAAAAQAAAAaQIAxwAAQUxQSHELAAAB8Ift/zk3/v/dR0EZFEGdGtna7aq27UXTrrc2FrUbbfXaV23bbbK1bURFGu2Eg/sfzWbuz8fzMTOPx7zQiJgAsFEXPHxVVLzV4Y2PWvF1DR1I3YAfozPRYc6M/jFA3vhMjUUHO3aKj6Tpdh8d8PvdZIznIgs65JYFntLFZw867Ht9JIvPSXTgT/lKFY+96NDv9ZApi9HBXyxRupgdPXNXaeL9CB3+R96yZBo6gdMkiX+CM5DgJ0d+QKfweyliOO8cnDPIkBpZzkFmdRkSgk7icBmy2llYLUOinIVojQRJcBYeeUoQq7OQWMx1Jtn/g/8++O+D//5TY8Jm27cMdgYKRmwmDBZ+x5BwuTNQJBEJ2wi/AxSLnAHfOIpW/29DwWodv5u7evvBk6dZb+hqUXHkjidZqNIOLhWa1rv+RhW3c6UI3m1FVbtS9HqLKnehGJKDrjKfGtFVxusOusxMRpeZojGuM1+hy4zmgOtMQKLrTDt0nZnkQrPWheaM64z7PT50dInwjlXi3bX9a1csZbOqS0Txd2TJK9sHGkDtDk2+oqUqVKpWIaikbz6NKCuVRnW4OvCQd1pPb/+g4Mate301ph9T7pW7TdsY9TA+JSMzK8OYFPfwr+3zv2xUVICV+ZtovyfYO03hMrU+6dB9wCDSERNmhW/cf+baw9ikdBO+f4gd366RtzORNOHopDp6Ife6DNi1Qk1+/Pf5F6lmZHg3K43CXqKSORdHlRBw88COGVpGPrYi84y02JeDiifMCRRtpvr2y23gBVQlE9W2WpDJ2BAdb7yn/k45e5BGFDwtaLcankKVMmAY9Q6Z3VGCM0uR1PIpiIIjYK9GGZFXJfYgy3drcaV1Ds2PIAxW2ylDKKpXsZp3ke24BhzxvYukW7XiYIF90kcgtxrEIOvPK/IjDEkfB4A4+NU+TUVuVX6O7Efn50VbM0l2axAI0+1S+xxueV9GNc7iRJEHSDoDBJ/vQ+RWBKoyvS4fIpH0qKfo+xW51cKsDtzBhY5mklcVQPBVTOGWxzlUaU49DhR7gpTmXiD6wpFb3VC1YRxYiaTLQfRVTOOW5rAS6clJyUYLXayv6rpZSC4UFH6zkVuV04ks15YOblqlVImSlRr1nROdSYPt1eb3BCmTa4HoK/SMX98i7d7PPSCv2lrLjCQL1PYvJA0B4dcJFc1OSoixMY2p7SRpX4Ht9S5SRGnV1dNKslYj/v5Q4MqcLjUCi/n45tlnGUueDynSOgJl8QsECb6qCniOlHeLg/DzuEsW3dEdKOewVM5IEQK0H6XZZgpW1VqkzGgO4q9aFpHlNw+gnctSUyT8S0cES23DdmrqYyUZDxKgL9JaRwE1U10pfgLq2tm2DVNR4Euk3OcmJCbZm1lEEcCDwRRtyAw3bBulHs1GpIwpA0Li4nImQxf6cGMXzRMfLgynaE0Gq2ybrp4BSJnTBcQEq0Y/Xuiu0YwEXvWh+9m2maopGUsyD4TO0wK88I4neeHFh8EU4+h62varWjTbkDIqv9i5ruNF+QySRcCHHhRb6Jq9sXmcWgYh5dtqIHZOAS8aIaWlOSdaUMR5kxn8bPUvoJKy8SRDQfDs4EZXkqcFORFsJsCRZAwrpN2JlCtB9KzgxgiSzcAJv0SK2HJ8G4KUN3yFzyxuTCMZxQvDDQq8EMSzoHgKY0MQPj9zYxlJC17ABhKMHVGMW7o9SPkTiJ+B3FhHYSzHje9oEGN3TO8Z7M2jr5Fyu14AtefGbopnBbjxUQ7R+9kvToWGNC9h4ErQG4qngSB+rI24cZTivIYbhksK5J5ya/u07jW8OKHfh4TZrUEAZVbhxmmKXcANGKdYrlkvToSOaFZMfSFI+QuIoKQSvNBeoFjJkdLvmMjVGn/w5yrqqviG4oSnEIrx4tkcjsBcdt437utsUI/hEBK+qgBC6LY7L3RXKCbxJCCOKUQ82VI13yChpS+IoSgNLww3KX7gCQxiDc2RvuqomkSxDATRQeDZSK5o/mAN8VINFbTQHUHCqMIC5PkpFk9P5NowrkCBA8xhTEP2mgxHyikgQKYCLx0FKLyPOYyrzpp11GuSlCYCZLr9C+EMFIhgDq/5MmZJQto7xSTI97wBGPyCNVzBGP1mrfwYzx8ImPuWMUtrPuAo+TGTQwBlJ10zs4Tn3PmQ/qlU0F2hWMglAI8m047FW5jBrnzAh/4yQXueYhWn3i9St++MTVffmFk4pOED7nCTCHCKYjvHctX71e//285b7xTKqMwJnCATDlKc5l3uhoAGg2bvvpdNhj/zIqulRNhCccfNLuSeL3jURaqDvMCnJeXBSoo3Re0IALj3fUgT78ML3OsmDeZQmGraFwD/IySW+tzAadJgFAX2tTdQ7DYFDlLDawtNVjtZMIBkkd2BTlaKmSp4W2sDDcaUkQSfkVwxKPE7n/SXKNaoYBj4PabBIx5yoEo2RXYdBfz28gmmUuxnb6MGoEUmDf4mB3wTKHApmc/o58iOZ5tOHW3sXF6JVhRnNaw99QcAmExk6iIFdJdJkivQeH3/GGmpShnR5olKVMwguKJjzNQe3tfvo8H48jIANpLgLh1BwZA7SE1VMsm235Qo/obgqp6xBZB7qec0eDKfDJhAg7/Y5Dn4OtJT+b2xbZUSXi9Vd6XgP0D7HBqcKwPaEOHSQnly63cZlaTyjbPtrFYB7xi1pdWDPM4gMveQACWTifBq74L/oO8ahcpS5X9kW2KAAqVSCa7omBoDeXU/SoMJlcWfNooK8UHYgLqlfLw6nkGlqXQXbcPBCrSyEhwBlvbp8wRlY2gwqqDwg9/pENGcFPMMlaeCXQTn3ekikfAPluKCwMbOOTS4VPx9alWCUbJ5BDiWLDiV4nuWhoPNs4ks/YRfgae8GkCRHUIUeBkJrU1Y+sw2jxM0mBgs+mA5r6plEaD1z2CKz28i5cvCLLWyDSom0OD5QqKvmZlT7tcpEI37Q2p550UT0H1HDpKuBXVBTwsNhos+w1+cglk0iGiKOb89YtbkceMmzV9/PhGp26oNFhLhUMEHw3hVO5uKzeseqssfTZRUR/AVfswp7SE1DQHVQdU3NHjFW+zB95yCFmb1RHlwAPpbaHCNRuwVusvO2wUvWNJsUU1GQ+ABhBLh12IPOlkYSQ8LghCWoFyCWkYBHwpcJEqrL/YglImcjbUAwOM8S9DDpI5QDSfgo0QavFVE7BU6xcDhTyHXFmaWYKwqVroBL2AYEa7VCj0IvK7U+a4a+MeNTMEEK3PWWTrgB6wkwu/EHpSJVuTuME/IY6UkpmBoEmOxfUFh1nyuEqU1FXvg8yddzGgvyPs0tqD2CZbMa8sBX6BeKg3eKyb2AIY8pUmcFQC2ej1kCwxf3GLFeqwFKM8cDCfCrTrBB37TX9pmjKgIhP0ZAyjY/0g6A2nb2uiAQ5p/E+EYZ6usheQ3bhynCFUMwC/kxN95smytC6T643k7xAAA1Bh3PFGR9OjxVYDNIkkUbRWBIneIsJ2TVfiH0YRjGnNj1J/hYWFhYcvnvT9r2vTp02e0ZAAAgvqHR700Wt87+hlQVx6d1zFd2QAA/5bjNl6Oz7TN9Op85MAKGmDVM2S07WPKKAM1RtOO7e1kOa4a7wqN2vbq31IP/NUXrfpJr28mzQ1duW7durUrFk0N6VS7mBbssyRwkj/474P/Pvjv/0945ydB4pyFJ/kkyBln4ZxGgqx0FtaABP3KWRguQ6pmOgeZ1WWIPto5OKeXIfCNc/AdSNHisc5AvJ8cgQnOwBSQpIXvO34PvWQJtM9x9EwdQZ7OdvQWgkR13+HY7fSQKeB11JE77gNytfA2x22nN8hWt1kmx8w0zx0kbIebjtjtjiBnC4195mi9nOAN0rbo1yeNjlP66RHFQe5WGhx6/GGW1a6zYH58MmxoZZCvAFZQOCAoCwAAEFsAnQEqagLIAD5tNpZIpCKiIiJTKniADYlnbuFo3o/+XsAAn/9izfgBdXOLWixO7uQcz9Kb13zPed96bP936hf9v6jf0K/Lo9l/92MqB8r/0L8UPjd4z/rOSY3ciwPYntI/2PevOU/0z0R5in6XR7ZJ5qXkY/c/UE6WgNHxdQoevo/Ev3wjUHtoIfETLvTwV+WwHtPtQSGkSL9p9qCQ0ke/gGPppv2bwSRpbLMkhqmgEhpEi/afagkNIkX7a7etK2XUn3WOImy3mDcLvUKAGzBuGAkNHJZV89Fv7LQg8ooSrL3UFSFILYr9zqyH6YdbjuJcG2arrM9SDLD4o8g/vAodqCQ0iRq+gBJ2gu0yMTPJf/1YVTVIp9Jwue/gtO3kJLdF7vGJRcJIoAl5M7peqe7qpmg5YnU3WfOlOGqoZkX/mtFeRC4U098pz01gZ/CuVwsulvnbD/wdvp2LUrSilnwlwEd4YhFeMtRLxmhl7AfmiIRYC6zfe9KPPT2dBEVzGru0i6dEOhFIYKFzDPR6vTk6U9NMJ/3VgyAVfkp7CP/KChbiwi6S6a30kkZ7SWX/Bl3s3ThNcMPPDNcJdnWmLKCn7NZp/VFYsehm3OWEd2Af//6y59BSKtfOPh4cavfCCjOA0OICGq/Uiz2tsaGty1EGDDVIw8VULGumRU71yZT+TuNLvMNiAiXPuWmLo6L+cmAPNkcw6+X1yajTUno7Zooo+wIHIVMsh9/sEtamIcsA9rtGgWZ6+6azunb8DMHUKICuQOyZ7gAQupoPXSANZWxju3yRMW6fOP0KcP8225tK5Dv4PCeQmV0bCLBZ6BBLZmcoJFx1TE506O3XC5e2UCdWdFnDFlLUC/gwF9rKAEjS/bF6fj/pkIg/HZCd9pveP6CtZ0qCEH2rGZ0i8tg+MDsn/WQ2klcdCebV5opF+0+1BIZlIopGDijFWO/FmIie/LzDNFIv2n2oJDSJF+0+0sAA/kxXsOWznZD0pRPFm2/f8fmvjt7mtGwA52b9wfspvfVh5v+d3wH4l5UFMXZfW8OAJE4hg7h/SXKZ9l4lenYQDBdO48SS/icXiDvHdesAAaaYZAddPy4js/8vZywtNCe+c7EPhQxjEQVZ+AAAAgiAKEgOwe8I7GNTGks2Ran9satva3yaWhoOLHV6GUUxERt20HO1btWRouZOOsErEMpwHF5AVslN0w1/OWAAAACChnzbMQ4YGLpIBIgDXHEf4hP+o83XFJEPkWlcLruBRtW1dHwm/GTAMNyWm04AiCV3//pmwXYZzjTCwWgryXi7tPUynL4aHrDd6lcTI+STk6C4MqA3CdlJ9NSkhFqByTS9J7VSYqcbccrf3QXEzPk8VzC9uhdtgvCKfwvYgz7bqpfvnmA4py5QjpusiguuSqRVgtR4+nFMBLv38KqpC8jBnoCoB/79n+RniRJpyrjWtEGWflZ+CWMmxASmZZLOfsrB96J//KxcQ69VnWjAAB/61rq8L55IGUnh+CZc6KfZIO7TGBjmGugSfXupLECZRkm3D/9zgblHDCPB0+jaSe8LDgRMurok1fZZ3S3/PL+la8sxivO8HWEf6I5Dsnqi6IdoYE+gGWymopv3V5e9Zf7gjuUFLBlu/9xBlS9gyS6oDfQ8rWj+itMSbZtENS60AM2YfMvFegbeZa3sf8GQQzLQ6QyMc/dvQZZIyo9B+bCSb4bXPUiswizCjBO1LRAp3NnAloG5B1AwUZeXE5ZXaLXAn8lKXkqr8gWESlGDqLRiArl10CaXl92o8zvQckRSE5DG1V/uCNevPXH6ovy4p/w8J+ZZ8bXCzfoFEn/0wqh5V6L6Zwl01V52boSpZjpFaxolfK9g33rqpUM8KtPJztKvNhl+TP8FY3OPPTrYJtYJJNIsyjkj55gKZTtWAkClmvlTZDhIWPajUeXzZQZNXqaVu/7ely6mAy6Ok/b3WIyq4bH8dP9MWsDc7eT54aZZMT3T5tVkj85HjfP1zxa0t+dl399n779gTrfjxMZQK/5DdYargiiV3GhanTARM97ID6rf4KXwCdHJWeet5rFSde2fPiQLhDFRINkPmzc9TCKgFtDUxamJ0vLe1GwY7oITKRBg1kIGjjVe5H+VwmT1k9ZbkYC29IwW7alOReXKingkzAQKYP5JJ9cG5cGDvR6atGvgYjf/JMO8iFeYeDJ/9zk7DQ/b/8EIM2yMwJpktODzm9eFqnRP3Mj6LQ4GpeJaXgNBsYVL/A9WrtkgQDnGmfrZCKg5l9K2twOvKkBUIT9/nfiPVZeZKLLefcqJngjtTNCfKXmz+07+TQt77M72T4GEyEidx3fnxAM4Z2wcPMU8ZPGJHWIuJ//5FfzMPF0lBMsrjG3rvphhQS58oTpBHDGhPkfqYHN0lW7SNcuHoBPPUKNLWmmGQwR6M+LP/Tb3JgKOHZ6r2r6l9rsUfUYLg3JGz+mNy2Uz15DYKJg+gUSe7d3vfeOkkw5qdxYEIewwnv8ZYN98XQ68b15aApc7v/QbNjP73il06geGXbWfK8CgcKXlXyu4/UbhjEveS68+5MijjCXXZZvXwjfNYaZ689fCN81YeSRFxnFrxBSlQ2LgCZaixqK1OqpW0ogCAXC6a4HKCDlZu2H5b27NXp58bewRANMtdlV4btIT1zXxh9JyIUCshOvkCOsr87fADuF3E8O5SQY/6ErkkkKi9czPzCetrYtx9VL1lGj++/WHo+qcEzSmOGYSEJlDzH6QCGwrNx9KvImZrEZfpa3CxOwu/mNZgt+M/gUug7zGODRZ+fe4BDVEWimRrSqxwMF6DcooXzuFYiMJb0uc7SxKCO/U8zg+8N05/W51QGS9GKN0M8/aGif3yyvvBy9uQacAR3DjF71gn5Jd8TffZMkW0SBFNTEIiv2P11yiMsHBTVgwsvykPh7TPU4GqTTzenzsD/ffeR7lR4EpU2hv/aHnHkXpCEk/r8/l0N+V7MaFdHjjc2+oG68EqfM6XFjRrGyCbIR1D51AW8WLO/QWotIUx9rt+GZSdRA6X5TzEJBAZqjYgkOV7JM7cQf1fefnrWh2O3ht8mAKUyors78Nc21BsKW0qlMEd8HjxJ0PGxezcg2FZn2yR8rZ0jvg5EbDh0VMYlMxgBLiwTx3kzBSdTQj//+mP3mJMBD8rZ7zcsRsR4tHabGFnArOiNDfDTmoO6osV3Zi6YCxSx6BJHhHe5kLsawEvvmrvk6ZgwUcYaLEQYVhisolTGySmGR2Wmw8FJKTJUrKk25Pn9WlkRXZqlQ1EiagZ+rQkOo1bctw9Hs1DfQtLsBRvSJF+VLq8RshWEqI7lq7DtGkOoo0pUMr8lBkUjoi2w80ZuH6lbKd3cX1cPIbn5Efv8tIUBkqeC0yYT70OfuAEzsKzXxBSzLKJkStNskhhB5qlgH5mglgvcZnV89GZZihwZninCGViAy0UscaSwPBdSSqp8wv96PoaXG/fiHW9Uxi7BzO+gMg0AevQZzwzamtTUiCT1b1TdpxGUVAOl1HfYBMgeAAh2AAAAAAAP6dTuUb61Nbo9kTD7z/plerPvYATVvs1uBjA8kbfGnR3VE8QASyDNXk4bucTB9WV6fKZI5JC6sYFEgbFn0pmszvpyYPDO3UMbetHDgyvuIg5Xv54AAAAFK9vJGp/PuX4Nh4CnZL+Db7r9347LTOQ/75DN+1cvoulPx//NAnqBpTCOn/w22Zb7x8KQ9Nio9Ntphl52nmhnUqNFDMk+sAtwBzXo9BljDN54fOXxjsNmGuMk0nhF9DWOG2BNKaJ7am+VvCZ2qs4QAAAAAAAAAA;" vertex="1" parent="1">
          <mxGeometry x="490" y="200" width="123.6" height="40" as="geometry" />
        </mxCell>
        <mxCell id="CZolbAfWvqU23V3ubjtU-14" value="" style="shape=curlyBracket;whiteSpace=wrap;html=1;rounded=1;flipH=1;labelPosition=right;verticalLabelPosition=middle;align=left;verticalAlign=middle;sketch=1;hachureGap=4;jiggle=2;curveFitting=1;fontFamily=Architects Daughter;fontSource=https%3A%2F%2Ffonts.googleapis.com%2Fcss%3Ffamily%3DArchitects%2BDaughter;rotation=-90;" vertex="1" parent="1">
          <mxGeometry x="475" y="30" width="20" height="260" as="geometry" />
        </mxCell>
        <mxCell id="CZolbAfWvqU23V3ubjtU-21" style="edgeStyle=orthogonalEdgeStyle;rounded=0;sketch=1;hachureGap=4;jiggle=2;curveFitting=1;orthogonalLoop=1;jettySize=auto;html=1;entryX=0.5;entryY=0;entryDx=0;entryDy=0;fontFamily=Architects Daughter;fontSource=https%3A%2F%2Ffonts.googleapis.com%2Fcss%3Ffamily%3DArchitects%2BDaughter;" edge="1" parent="1" source="CZolbAfWvqU23V3ubjtU-17" target="CZolbAfWvqU23V3ubjtU-7">
          <mxGeometry relative="1" as="geometry" />
        </mxCell>
        <mxCell id="CZolbAfWvqU23V3ubjtU-17" value="web server" style="rounded=1;whiteSpace=wrap;html=1;sketch=1;hachureGap=4;jiggle=2;curveFitting=1;fontFamily=Architects Daughter;fontSource=https%3A%2F%2Ffonts.googleapis.com%2Fcss%3Ffamily%3DArchitects%2BDaughter;" vertex="1" parent="1">
          <mxGeometry x="491.8" y="290" width="120" height="40" as="geometry" />
        </mxCell>
        <mxCell id="CZolbAfWvqU23V3ubjtU-23" value="BD&lt;div&gt;NoSQL&lt;/div&gt;" style="shape=cylinder3;whiteSpace=wrap;html=1;boundedLbl=1;backgroundOutline=1;size=15;sketch=1;hachureGap=4;jiggle=2;curveFitting=1;fontFamily=Architects Daughter;fontSource=https%3A%2F%2Ffonts.googleapis.com%2Fcss%3Ffamily%3DArchitects%2BDaughter;" vertex="1" parent="1">
          <mxGeometry x="680" y="390" width="60" height="80" as="geometry" />
        </mxCell>
        <mxCell id="CZolbAfWvqU23V3ubjtU-24" style="edgeStyle=orthogonalEdgeStyle;rounded=0;sketch=1;hachureGap=4;jiggle=2;curveFitting=1;orthogonalLoop=1;jettySize=auto;html=1;entryX=0;entryY=0.5;entryDx=0;entryDy=0;entryPerimeter=0;fontFamily=Architects Daughter;fontSource=https%3A%2F%2Ffonts.googleapis.com%2Fcss%3Ffamily%3DArchitects%2BDaughter;" edge="1" parent="1" source="CZolbAfWvqU23V3ubjtU-7" target="CZolbAfWvqU23V3ubjtU-23">
          <mxGeometry relative="1" as="geometry" />
        </mxCell>
        <mxCell id="CZolbAfWvqU23V3ubjtU-27" value="" style="shape=image;verticalLabelPosition=bottom;labelBackgroundColor=default;verticalAlign=top;aspect=fixed;imageAspect=0;image=data:image/png,iVBORw0KGgoAAAANSUhEUgAAAIAAAACACAYAAADDPmHLAAAABHNCSVQICAgIfAhkiAAAAAlwSFlzAAADsQAAA7EB9YPtSQAAABl0RVh0U29mdHdhcmUAd3d3Lmlua3NjYXBlLm9yZ5vuPBoAAAy8SURBVHic7Z1bjF1VGcd/a58zM51bKb1ALzCUCiKt2gq2AxQq6qAxbYlEGxL1hQcSSNQHE0UTg30xEZ+UaIKGBxPxgZCAoR0RnEpr0QKl3Bo61EJth7Z0ptPOdO7ntpcPe6bMnJ6999l7r7X2Pmf2LznJydmXtc7Z/7PWt771rW+BWU4Dsux11OXcoxXOPT3r+OMVjgd5fWf6PqtdjpeA21zqthg453Ldt2ad926F44Mu94wFK+4KJBgL+D2QqXDs18BSs9XRQyoAb24BHi77bBPwQAx10UIqAH9+Caycfp8B/kAd/W5180U0shB4bPr9D4ENMdZFOdm4KwC0AztcPvfiKNBT9tma6Vc5h4Chss/OVlU7h+8Cfwd2BrgmpQKVRgFBXqcvv+Ucdrpcd7fHNaurLNuu8rx0FFCniLgroINUAO7kIh6vCVIBuPMkcMrl2AjwW4N10UYqAHcuAg+5HPsJ7uKoKZIwChjD8biV8yCOyzVOuoGngftnfbYP+CPw/ZD3bAYe8TnncWAy5P0DkQQBjAA/rfD5fcQvAHAe9JeBq3AeyoM41nxYWoBf+ZzzJIYEkHYB/gwCP5p+/yhwLMa6KCcJLUAt8BfgJuA3cVdENakAqufRuCugg7QLmOeY9m7dBTSVfZYD9lc49w4cg6mac2cIMhcwQzOwucLnJ4APPMq6FqdbKOddYGD6/W1Am8c93NgHFEJcl5KSkpKSkpKSkpKSkpLihTI/gLy34x5snlB1vxQPLB4Sz/f9Q8WtVLqCJ6jshElRTUmMq7qVQlew3a/uXime2Op+a4UCaE0FYIq2KWW/tdK5ALmtY5zL/fcpapkUu/uU/cZqZwPlpUmQFH0EWdDii1oBiFQA+pFKu1rVASG1ZweUT04ngTweUYdC6Z8sFUASwk7L8W7klf7Gim0AUXsCSBozKxBdUdsFqBWAJVMbIColvxOsBAtAqlXnvMT2OS7U/skUB4VmUgFExU8Aij2uaQuQNHwFkE2wAIqlVABR8ROAwnkAUC2AF08N4YxiU8LibQTm6e4bVlmcUgEIZwBzTuU95x3eLcCAiLYw9TJ0rAxKh4JR8BaA8i5WvQBE6gyKhKcA1PtZNCwODT8SmOy6n4lvuiXlUI8QFouvXgalorEy+fPP4FC3+3EvG0CDp1W9AGT4ZsqamkC2LlRZG2+EgKZWc+UBjHvYcH4jAKsWugAZfrZKDCcqhZ4eRj2+o68PQL2fRYMRGL6S1sh5lRVJJhc9Bkl+ApCWchtAvQAyEbqAkQsqa5I87GK0LkCDp1VDCxDeU2WNDoP0bQdrl5FB7+/nNxMo1UdeaxBAQ/hKlopY4yMK65IwvJp/8G8BmppqQABN/xukilltN8TFOrYDRnyMXG8BlMh+qPzHUS4A8QwlEKE7c6uuBeDTAnj/bQad31YtmpJERRkJ1LEh6CcAzxZAj4dVV5awdChYiUhdgJ5wO015AmV/2EVHgVqAUpG2px7zP8+1sAxyZTuiMBX+HkE4+qr3ccMTQaBLANLqR4SbtRTDAVqATJamAy8gchHS6q4If6lSfKOBa6kLiBAdHLQLsK9YEraoZBGDGxh0CSCCxyqoEWgvTOLKjhAYjgaeQZMRGD52PegwUM6bFkDteoBLd9Vx00gtwOhQIHewvXC+CECPEahHANli+OaqVEQEcAfXTRfgOw+gJ+JajwDyLQNECF4MYgfUjQC8WwBJ8xVagm21CEC88EEOZ9OlUFgXgwhgXnQBQ+KZ97SE2+vcL8CIN1AumhcC0BZoq08AIoIAAowE5kcLoDYpxGwS2gIE6AKuqBMbwDMaWN+aS317Bsnw8wFBYgJkUwvnf/dyuHJMhoU/8TC8/+/Kx2a2lXZDQzTwDBoFYA2EnQ8I6g4OHUpuMix83G3HGmJzA4PWLiCNCZiD11RwTF5A0CkAKxXAJaSEMY/v5L8kvBaNwPDZQqyRC86PVi+MD3nbGb5ewFrsAqKotlgI5A5OPH6RQH4CaFSbFWQ2+gRQyEWqdF11A9GigaGUr70uQLzUPw6EzmtfXwKItB5gVOw6M6GwNnPQvXVsGhwKMOrzXbzNHa35FhIsgHpqAXy6AG8/lNaMK5oFED6Qsa5WCEXqAvSm3tO7fbyQA2GjApre3Is1pjQh1uVYGeSKNkQxF+y6plbY8fPqz/fqAvzcwJqigWfQK4AI6wMyZ46TOXNccX0qECYsfPmaYALwWhTq/wepYRtA6nNhxkr7smDne2UF8ZuH0px9VbMNUKepYxcuDXZ+lHkAS31WkDm313lz7DpNHx9EABMjUPSI5opxJhB0CyCrz4UZKwsDdAFRvYAasoLMRq8RaMn+KuLdXRn+xVOUlq2q6tzmPU/T8pyhnWuDtACjEbOClBbUrgDEX08My20dU8CCUNcXC1UHe5QWLw9TRDiCCCBaCzAlXvhA66yYbk8gREgeHSg0zOQSMXMC0N6F6hdAlMyhAeYDjC4QCWQDREoLo92I1i+ACJtJBooObr8ybDHBaQ/Q2sz7FiCCKzPwEjGhdCvkyixohcbm6s/3EoDEWwAGtuAxIABDqWOzDciW9rBFVU+Q5h+iOoHqQAARbIBA6WIw1A0E9gJGyA1swJOqXwAGo4ONpIsJKgCvmUDfaGD9nlTNs4FESh9vjQYTwNj3HqHxnf00Hnmd7LG3EQVFC2obm+HGTlh7J6zvqv663DjkPRJYxbgeYAYDApD9YY0zMTmOyE8hG6vzI5WuuYHJa25gcusDiEKO7H/fprH3dRree43syaPVZx4RFnSsg5vvdF43bISGENuMR80NnNXfBegXgF3oJ9MY+nJrdIjSkuCT9rKhicK6TgrrOuHbP8AaG6ah9w0ajrxGw+EDZM5/PPeCZR2fPPDPbIbWRaHrfImo8wCW/n0Y9Qug8+x53ugohi1LDA9CCAGUY7ctIrexi9xGpwnPnD1Jw/sHaV25FHHjJkcAqvELBvV2AhVZf3qI5xTWpwLaBSB2YsttDAKhnPW6gkNLy6/DXrGatiUaDccRH/PHxwsodkaZSqsOE3MBzNuFon5+DJ9NIhXWxBUzAjA4EkgUCXcDgykBREhwUNPh4X6xADEuCJkh8V1AZrhGtyKWEoY9Gj7f5NBmBKB/FADT0cHhFgg0vvFPFv94G/nP3k5+3e0U1m5CtrQprqAixi7A0QPQ+wocfhmGPnY/1zcUzMwWvIYEIAdCLg8AwBr8mAV7n2XB3mfBylDs+DSFdZ3kN2yh8KnPOY6bOLBL8NER54G/uwc+PFS9s8lvSXiEjOtBMCQAu1/ZQ7JLZE/0kj3RS3P3n7DbFlG4+YsU1naS//xm7MVXqynHjcGP4Mh+56H37neifsOQgIkgMCWAbKYfW0/GD2tsmKaDPTQd7AGgtGwV+Q1byK+/i+JNtyCzDdEKyE86/+zeV5zXycMKak0VXYCZiGoDERQg7712JbY4baKsOeU2LqB443ryN28i/4UtlFaumXNcCMGSSo6gc31weA+80wPHXveO6w/LKDDmcdy2Voi/nTirvuC5mBHA3WRp68hhbNRRmdKyVc78wNpO8utug9Z2RwBBjDdVDAPuE4U2Y31NYq/vwrHIGBEAgNzWMQgkJ69rtoHCTbeSXSoRxw6a37L2AuC6KFmcE7tPXmWiGmZsAIcBkiSAYoGG916Nb9OoGLaIq4TBJrlOF4qGJQFuYDAqADOOjZqghE9yaHO/lckuYP4KQAL56VcOKPicHyGOMijmBCDkANKYzRk/JZyHnQemCOoJr0MBEH4+oCaY+ZfncB54lH2+bX0bRJRjTgAGVrkYp4jzsGcevDrqsQWw+2P2A0XHZm6zrst1oDkpxGzMCcASp7AZAIw4OJRR4JNm3c94U8NxSpYxt7lxq0xu7ViDYDuwDbgLCBFwr5ByR1A04y0ME8B/kPQAPaK775D2EmcRq1kut69swc7egUUXki7gVuOVWE6wIZoKJEew2IVND3bj/ul9FmMhUeMyuf2667HlPdOCuAdQsDrDB4GBf7k4h5B7selB2N1i9ynjM6NuJEoAs5E7yDDRsQHoQtAF3I1Zx1UUisA7wG4ku9jY95aJGP8wJFYA5cj7Vi0hn/nKdOvwDeDauOtUxnEEPdj0kMu+JHqOh9461yQ1I4By5NaONTitw3agi5CZyCIwDhxwjDfxvOg+2Wu4fCXUrABmI3dc08yEtXmWMXkL6r+bDbx16V/e0v4vXRs6m6QuBFCOvPf6qymVtky3DluBsCnEBhDsw6aHjNwtnv/ojMJqJoK6FMBsLjMmBV9C4hYpWkTyGrAL6KG7701R1xMY80AA5citHVci+CrwNZBfBzEBvIgQL0Jhn84NmpLI/wEcoq8d7Ii50AAAAABJRU5ErkJggg==;" vertex="1" parent="1">
          <mxGeometry x="620" y="285" width="50" height="50" as="geometry" />
        </mxCell>
        <mxCell id="CZolbAfWvqU23V3ubjtU-28" value="" style="shape=image;verticalLabelPosition=bottom;labelBackgroundColor=default;verticalAlign=top;aspect=fixed;imageAspect=0;image=data:image/png,iVBORw0KGgoAAAANSUhEUgAAAEAAAABACAYAAACqaXHeAAAABHNCSVQICAgIfAhkiAAAAAlwSFlzAAAB2AAAAdgB+lymcgAAABl0RVh0U29mdHdhcmUAd3d3Lmlua3NjYXBlLm9yZ5vuPBoAAASLSURBVHic7Zl9TJVVHMc/1wyVF8lhiIJBLSJZXvsjy8owsYKwWpDilkbDuZovZc7VqOQauGy5BDWz4WAuREtboZGxcCjTas5qZS0sRRBLM4vxKm8XvP1xducunOc+l8uV81x5vv89v/M7z/mez73PebU46nAwjDVCtQHVMgGoNqBaJgDVBlTLBKDagGqZAFQbUC0TgGoDqmUCUG1AtUwAqg2olglAtQHVMgGoNqBaJgDVBlTLBKDagGqZAFQbUC0TgGoDqjXsAYwc6gb/vgRvbeofDw+Ddav16/91EUpKoeoYnKmHhiYIDoTICIiJgpTZkD4XRgV45scy1LfDJ2sg/tH+8dgYOHVYu15nF2S9Cx+WQLfdfRuTJsDWHEhN0vfjF59ASxskpMPmHfqdB7jwDzyzFDYU6Of6BYBnV8L3vwysjsMh/jGflLnPMzyArw7DgUPe1XU4YFk2NDRq5wz5IDhQFe6Rx8eMhhUZcI8VLrdD6ddQVumaEx4G+dkQNk77/YYHUPmtPF5aAEkJV58z54sx4pVc8ZyRBnlr3HceDA6g9bIYAPsq4mbXzju1MhPqz0PyLHjsIc/aMDSAK1fk8fYO8X1bLP3L8tYMrA1DD4Jjg+ULmpY22PGpb9owNACLBaZb5WUvvgFvvgdt7YNrw9AAAOalyOM9vbD+A4iZCWvz4eK/3r3f8ACWLBDrfC01NELuFoh+EJZkQd2fA3u/4QEEBcLuzfqbm247FO2BuERY/JrnIAwPACDhXviiEEJD9HPtPWKAvCsJthbr5/sFABDz+olymJvoWX57B7y0FpbbxJSpJb8BABAdCV8WwbFSeMJDENt2ut8V+hUAp+67G8qK4Ph+WPg03KiznLPlwbkL8jK/BODUdCuU5EPtUbEM1gLRbRcHKTL5NQCnoiJgkw1+KIMJ4+U5B7+Rx68LAE5Z74SPNsrLas7K49cEwKHvtMv+0zicCA7SrvNHLaRkwu79+m0/PEMeb2mTb658CuBUHSRlwJyFsPeAPEfrlxgv2bc3t8Lqt2FqEpRXidOdEyfde9BaAIWGwAhJb30CoKMTsjeCNRkqjorYC6/Dz9WuefYe2P6x/B1xt7k+F38Od8yGvEJRDwSQWQvgs3L53N7UAs9rHK3fOlkeH/R5QFc3THscTp91jTe3woxUWJQK06aINfu+Cu1fMPEB1+fac3CpoX9ecyvMWwZT4yAtWdwFtLXD72dg1z4BQaYn58jjPrkXWG4TCw5vFRkBNVUwetTVWGcXzJwPP/46WHcQOAaqD4qFVF/55BPYkAXxsd7Xz13l2nkQz6UFcHv04LwBrH9V3nnwEYCgQKgo9g7CigxYnC4vmzwRjuzVHtn1ZLGA7WWxSNKSz2aByAixRl+6CEbeoJ8fGgLb1sH7Oe7zJoZD5S7Y/g7cMslzP/GxULETcla5z7smd4P158WAdOQ4VJ+GxmYICICwm8A6BRLvh+fSIMTN3C9Tb6+4FC2rhJ9+EwNlUws4gHFjITpK7BOeekRsoWWHpn015JejRtN1tRT2RiYA1QZUa9gD+B+ejy7SkCazDAAAAABJRU5ErkJggg==;" vertex="1" parent="1">
          <mxGeometry x="680" y="290" width="45" height="45" as="geometry" />
        </mxCell>
      </root>
    </mxGraphModel>
  </diagram>
</mxfile>
